<?xml version="1.0" encoding="UTF-8"?>
<svg width="6.083px" height="9.834px" viewBox="0 0 6.083 9.834" version="1.1" xmlns="http://www.w3.org/2000/svg" xmlns:xlink="http://www.w3.org/1999/xlink">
    <title>FDC0D525-5DD9-499C-9881-9E7F884BD1DB</title>
    <g id="UI-KIt" stroke="none" stroke-width="1" fill="none" fill-rule="evenodd">
        <g id="Table" transform="translate(-492.000000, -1743.000000)" fill="#0060AF" fill-rule="nonzero">
            <g id="Table/mobile" transform="translate(150.000000, 1579.000000)">
                <g id="Group-6" transform="translate(15.000000, 136.000000)">
                    <g id="Group-5" transform="translate(-1.000000, 18.000000)">
                        <g id="Group-8" transform="translate(316.000000, 0.000000)">
                            <g id="chevron_right_FILL0_wght600_GRAD0_opsz20" transform="translate(12.000000, 10.000000)">
                                <path d="M0.354,9.479 C0.118,9.243 0,8.97233333 0,8.667 C0,8.36166667 0.118,8.091 0.354,7.855 L3.291,4.917 L0.354,1.979 C0.118,1.743 0,1.47233333 0,1.167 C0,0.861666667 0.118,0.591 0.354,0.355 C0.59,0.118333333 0.860666667,0 1.166,0 C1.472,0 1.743,0.118333333 1.979,0.355 L5.729,4.105 C5.85366667,4.22966667 5.944,4.36133333 6,4.5 C6.05533333,4.63933333 6.083,4.77833333 6.083,4.917 C6.083,5.05566667 6.05533333,5.19466667 6,5.334 C5.944,5.47266667 5.85366667,5.60433333 5.729,5.729 L1.979,9.479 C1.743,9.71566667 1.472,9.834 1.166,9.834 C0.860666667,9.834 0.59,9.71566667 0.354,9.479 Z" id="Path"></path>
                            </g>
                        </g>
                    </g>
                </g>
            </g>
        </g>
    </g>
</svg>
