<svg width="10px" height="10px" viewBox="0 0 10 10" version="1.1" xmlns="http://www.w3.org/2000/svg" xmlns:xlink="http://www.w3.org/1999/xlink">
    <g id="Layout-Builder-2.0" stroke="none" stroke-width="1" fill="none" fill-rule="evenodd">
        <g id="Event-Desktop" transform="translate(-150.000000, -611.000000)" fill="#636466" fill-rule="nonzero">
            <g id="Group-2" transform="translate(0.000000, 595.000000)">
                <g id="np_home_5350993_000000" transform="translate(150.000000, 16.000000)">
                    <path d="M0.610100393,4.48655165 C0.741779556,4.48699052 0.869941731,4.44485649 0.975282814,4.36629423 L1.30359866,4.12138616 L1.30359866,9.54617233 C1.30359866,9.79678821 1.50681987,10 1.75744738,10 L3.56672963,10 C3.81735714,10 4.02057835,9.79678821 4.02057835,9.54617233 L4.02057835,6.95046366 C4.02057835,6.8859451 4.07280955,6.83283543 4.13733559,6.83239723 L5.86234499,6.83239723 C5.92686654,6.83283611 5.97910223,6.88594285 5.97910223,6.95046366 L5.97910223,9.54617233 C5.97910223,9.79678821 6.18232344,10 6.43295094,10 L8.2422332,10 C8.49286071,10 8.69608192,9.79678821 8.69608192,9.54617233 L8.69608192,4.12138616 L9.02439777,4.36629423 C9.29389116,4.56819142 9.67619782,4.51332671 9.87810437,4.24384581 C10.0800109,3.97436492 10.0255819,3.59207597 9.75565028,3.39017878 L9.01386928,2.83409354 L8.40157634,2.37456929 L5.41168741,0.131779022 C5.29493016,0.0439988561 5.15228429,-0.00252322735 5.00612143,0.000105964181 L4.99383107,0.000105964181 C4.84766821,-0.00252749698 4.70502234,0.0439954854 4.58826509,0.131779022 L1.59837616,2.37411985 L0.986083224,2.8336441 L0.244302218,3.38972935 L0.244302218,3.39016822 C0.102532785,3.49594374 0.0138664928,3.65833452 0.00157389071,3.83477125 C-0.011154683,4.01120798 0.0538050896,4.18413912 0.178895238,4.30922796 C0.293011935,4.42377757 0.448826847,4.48785569 0.610349841,4.48654109 L0.610100393,4.48655165 Z" id="Path"></path>
                </g>
            </g>
        </g>
    </g>
</svg>