<?xml version="1.0" encoding="UTF-8"?>
<svg width="209px" height="69px" viewBox="0 0 209 69" version="1.1" xmlns="http://www.w3.org/2000/svg" xmlns:xlink="http://www.w3.org/1999/xlink">
    <g id="Group 113">
        <g id="ymca">
            <path d="M55.3347 62.4854L56.9395 65.1688L58.4584 66.0309C58.5489 66.0678 58.617 66.1439 58.6431 66.237C58.6692 66.33 58.6503 66.4298 58.5919 66.5073L58.4203 66.8208C58.2837 67.0496 58.1597 67.1155 57.915 66.9775L56.4501 66.1437L53.1229 66.1061C53.0377 66.1103 52.9527 66.0942 52.8751 66.0591C52.8103 66.0161 52.7664 65.9487 52.7537 65.8727C52.7411 65.7967 52.7609 65.7189 52.8083 65.6578L53.0308 65.2816C53.0991 65.1241 53.2653 65.0306 53.4375 65.0528L55.7192 65.0967L54.5434 63.1437C54.4391 63.0074 54.4391 62.8193 54.5434 62.6829L54.7214 62.3695C54.7493 62.2955 54.8095 62.2378 54.8852 62.2123C54.9609 62.1868 55.0442 62.1962 55.1122 62.2378C55.2042 62.3029 55.2803 62.3875 55.3347 62.4854Z" fill="white"/>
            <path d="M62.4466 59.9212L62.2782 60.2128C62.2392 60.2999 62.1621 60.3648 62.0688 60.3892C61.9754 60.4136 61.8759 60.3948 61.7983 60.3381L58.8175 58.8836C58.9415 59.0278 59.1194 59.2222 59.2561 59.3758C59.7899 60.0027 60.3683 60.6297 60.7083 61.0591C60.8605 61.1989 60.8837 61.4286 60.7623 61.5952L60.6543 61.777C60.5725 61.9649 60.3588 62.0601 60.1617 61.9964C59.6152 61.9181 58.7572 61.7582 57.9373 61.6109C57.7307 61.5764 57.4797 61.5074 57.3017 61.4761L60.0696 63.2942C60.2603 63.4227 60.3206 63.5607 60.1999 63.7644L60.0283 64.0591C59.9012 64.2754 59.7518 64.3726 59.5039 64.2158L55.6111 61.5168C55.3696 61.3538 55.43 61.1845 55.5285 61.0153L55.751 60.6328C55.8194 60.4645 55.9997 60.3683 56.18 60.404C56.9808 60.5168 58.3854 60.7864 59.4626 60.9714C58.7603 60.1469 57.8197 59.0905 57.3208 58.4636C57.2058 58.325 57.2058 58.1257 57.3208 57.9871L57.5464 57.6015C57.6449 57.4354 57.7625 57.288 58.0294 57.4228L62.3449 59.4071C62.6023 59.52 62.5737 59.7049 62.4466 59.9212Z" fill="white"/>
            <path d="M64.6615 56.2692C64.5058 56.5827 64.42 56.7614 64.2293 57.0811C64.0737 57.3604 63.8849 57.6203 63.6668 57.8554C62.8597 58.6893 61.8841 58.4228 60.6638 57.7269C58.5887 56.5451 58.5792 55.6736 59.3736 54.3163C59.5643 54.0028 59.6914 53.8304 59.8757 53.542C60.0601 53.2536 60.1935 53.2285 60.3333 53.3226L60.5653 53.4542C60.8195 53.5984 60.8831 53.6893 60.7496 53.9119C60.6162 54.1345 60.4891 54.2755 60.2761 54.6423C60.1156 54.8946 59.9976 55.1709 59.9266 55.4605C59.8726 55.9746 60.4223 56.3069 61.2358 56.7677C62.0493 57.2285 62.6786 57.5357 63.1425 56.9934C63.2704 56.8305 63.3862 56.6587 63.4889 56.4793C63.705 56.1094 63.7431 55.962 63.8956 55.705C64.0482 55.4479 64.134 55.4887 64.3914 55.636L64.6234 55.7677C64.7823 55.8555 64.8077 55.9714 64.6615 56.2692Z" fill="white"/>
            <path fill-rule="evenodd" clip-rule="evenodd" d="M67.0258 52.1063L67.2482 51.7239C67.315 51.6047 67.369 51.4449 67.1751 51.3477C67.1366 51.328 67.0945 51.3162 67.0512 51.3132L62.0652 50.4731C61.8477 50.3913 61.6037 50.4957 61.5155 50.7082L61.3471 50.9935C61.2071 51.1797 61.2422 51.442 61.4265 51.5859L64.6424 55.3131C64.6934 55.3824 64.7557 55.4428 64.8267 55.4918C64.9189 55.5514 65.0047 55.5545 65.1445 55.3163L65.3288 55.0028C65.4687 54.7677 65.3956 54.6486 65.2399 54.4793L64.5725 53.727C64.6844 53.5491 64.7864 53.3744 64.9021 53.1762C64.9475 53.0985 64.995 53.0172 65.046 52.9307C65.0798 52.8735 65.1118 52.8195 65.1426 52.7675C65.277 52.5406 65.3888 52.3519 65.5259 52.0969L66.5872 52.2912C66.76 52.3545 66.9527 52.2732 67.0258 52.1063ZM63.9878 53.0624L62.65 51.5546L64.6424 51.9464C64.5836 52.0467 64.5288 52.1369 64.474 52.227C64.4192 52.3171 64.3644 52.4072 64.3056 52.5075C64.2428 52.6147 64.1837 52.7191 64.1276 52.818C64.0787 52.9043 64.0322 52.9864 63.9878 53.0624Z" fill="white"/>
        </g>
        <g id="the">
            <path fill-rule="evenodd" clip-rule="evenodd" d="M10.8871 36.6237C11.7654 36.1862 12.7316 35.9474 13.7153 35.9247V35.9059C16.2925 35.9059 16.9408 37.4952 16.9345 38.84V45.1722C16.9345 45.7615 16.7533 46.1126 16.1178 46.1126H15.0087C14.4621 46.1126 14.2556 45.7992 14.2556 45.1722V40.235C14.2556 38.9779 14.0649 38.4513 12.6667 38.4513C11.1954 38.4513 10.8776 38.9591 10.8776 40.4387V45.1691C10.8776 45.7584 10.6964 46.1095 10.0609 46.1095H8.95184C8.36395 46.1095 8.1987 45.7804 8.1987 45.2851V32.7837C8.1987 32.0815 8.5133 31.8965 9.11708 31.8965H10.0704C10.7187 31.8965 10.8871 32.3918 10.8871 32.7837V36.6237ZM26.4329 43.887C26.1854 43.9122 25.9408 43.9594 25.702 44.028C24.8691 44.2285 24.0168 44.3399 23.1597 44.3603C22.725 44.3667 22.2931 44.289 21.8886 44.1315C21.2531 43.8431 21.1768 43.0374 21.199 42.003H26.3089C27.0398 42.003 27.186 41.8807 27.186 40.7491C27.186 39.4231 27.0621 38.1253 26.4138 37.1943C25.8068 36.3479 24.7582 35.9153 23.0199 35.9153C21.1768 35.9153 20.0264 36.3886 19.3972 37.2789C18.768 38.1692 18.5583 39.4043 18.5583 41.2224C18.5583 43.2694 18.8507 44.6142 19.7309 45.4167C20.4237 46.0437 21.555 46.3854 23.1248 46.3854C24.1897 46.3842 25.2527 46.2951 26.3026 46.1189C26.9381 46.0155 27.0557 45.6863 27.0557 45.2098C27.0633 44.977 27.0484 44.744 27.0112 44.5139C26.935 44.2506 26.7475 43.887 26.4329 43.887ZM21.199 39.9999C21.199 38.4921 21.5168 37.978 23.0199 37.978C24.4436 37.978 24.6311 38.514 24.6311 39.793V40.188H21.199V39.9999Z" fill="white"/>
            <path d="M6.0378 38.3823H3.76886V42.5359C3.76886 43.5045 3.81335 43.8776 3.89597 44.0437C3.96248 44.1526 4.0852 44.2155 4.21375 44.2067C4.80164 44.2067 5.44991 43.8932 5.93294 43.8932C6.08893 43.8844 6.24109 43.943 6.34973 44.0538C6.45836 44.1646 6.51271 44.3165 6.49858 44.47V45.213C6.49858 45.9778 6.28885 46.1847 5.61834 46.2474C5.0126 46.3137 4.40373 46.3482 3.79428 46.3509C1.56983 46.3509 1.09316 45.5452 1.09316 43.0876V38.3855H0.505269C0.104867 38.3855 0 38.1159 0 37.7867V36.8965C0 36.3792 0.209734 36.2162 0.565647 36.2162H1.08998V34.5423C1.08998 33.8401 1.38234 33.6332 1.99248 33.6332H2.94581C3.18416 33.6289 3.41276 33.7264 3.57291 33.9006C3.73305 34.0748 3.80912 34.3087 3.78157 34.5423V36.2162H5.8376C6.29838 36.2162 6.54943 36.2789 6.54943 36.8777V37.5987C6.53672 38.2977 6.40961 38.3823 6.0378 38.3823Z" fill="white"/>
        </g>
        <path id="logo-triangle" fill-rule="evenodd" clip-rule="evenodd" d="M82.2515 0.0158706H55.9108C54.9747 0.0158702 54.0771 0.382897 53.4155 1.03612C52.7539 1.68935 52.3826 2.5752 52.3834 3.49858C52.372 4.07624 52.5168 4.64648 52.8029 5.15059L66.0257 27.7396C66.6539 28.8201 67.8201 29.4864 69.0827 29.4864C70.3454 29.4864 71.5116 28.8201 72.1398 27.7396L85.3594 5.15059C85.6465 4.64673 85.7924 4.07651 85.782 3.49858C85.7829 2.57465 85.4112 1.68833 84.7489 1.03501C84.0866 0.381697 83.1881 0.0150378 82.2515 0.0158706Z" fill="white"/>
        <path id="logo-chevron" fill-rule="evenodd" clip-rule="evenodd" d="M64.2933 32.2753L47.9531 4.33846L47.6671 3.84944C46.1974 1.43224 43.5329 -0.0288728 40.6759 0.0156371H27.1862C25.6846 0.0190939 24.4692 1.22086 24.4692 2.70212C24.4608 3.14643 24.5704 3.58518 24.787 3.97483L41.2448 32.0935C42.8012 34.7109 42.8266 37.9479 41.3115 40.5887L27.0114 65.0398C26.7948 65.4294 26.6853 65.8682 26.6937 66.3125C26.6937 67.7962 27.9129 68.9989 29.417 68.9989H43.2531C46.1103 69.0441 48.775 67.5828 50.2443 65.1651L50.5303 64.6761L64.2901 41.1655L64.5443 40.7298C65.2416 39.5002 65.5958 38.1102 65.5708 36.7016C65.5767 35.2356 65.1898 33.794 64.449 32.523L64.2933 32.2753Z" fill="white"/>
        <g id="areas of impact">
            <path d="M104.276 40.6906C104.297 40.8311 104.252 40.9737 104.153 41.0755C104.054 41.1773 103.913 41.2263 103.773 41.2078H102.008V42.3707C102.601 42.3582 103.132 42.3519 103.601 42.3519C103.929 42.3519 104.094 42.5275 104.094 42.8754V42.9945C104.098 43.1232 104.066 43.2504 104.001 43.3613C103.903 43.4784 103.752 43.5365 103.601 43.5149H102.879L102.008 43.4961V45.6339C102.028 45.7707 101.983 45.909 101.885 46.007C101.788 46.1051 101.651 46.1515 101.514 46.1323H101.121C100.976 46.1421 100.833 46.1011 100.715 46.0163C100.612 45.9174 100.56 45.7763 100.574 45.6339V40.4367C100.554 40.2913 100.615 40.1465 100.734 40.0605C100.853 39.9979 100.986 39.9676 101.121 39.9728H103.773C104.11 39.9728 104.276 40.1264 104.276 40.4367V40.6906Z" fill="white"/>
            <path fill-rule="evenodd" clip-rule="evenodd" d="M109.685 44.7154C109.859 44.1772 109.942 43.6136 109.932 43.0478C109.942 42.48 109.859 41.9144 109.685 41.3739C109.53 40.9116 109.231 40.5116 108.833 40.2329C108.35 39.9287 107.787 39.7809 107.218 39.8098C106.774 39.7962 106.333 39.8797 105.925 40.0543C105.592 40.2081 105.305 40.4457 105.091 40.7439C104.875 41.0478 104.724 41.3922 104.644 41.7564C104.552 42.1805 104.508 42.6138 104.513 43.0478C104.508 43.4789 104.553 43.9092 104.647 44.3299C104.727 44.6959 104.879 45.0422 105.094 45.3486C105.309 45.6483 105.599 45.8861 105.934 46.0382C106.339 46.2134 106.777 46.2979 107.218 46.2859C107.787 46.3147 108.35 46.167 108.833 45.8627C109.23 45.5802 109.529 45.1786 109.685 44.7154ZM108.417 42.1764C108.455 42.446 108.455 42.7344 108.455 43.0478V43.0416C108.487 43.5435 108.422 44.047 108.264 44.5242C108.108 44.8628 107.758 45.032 107.218 45.032C106.683 45.032 106.336 44.8628 106.178 44.5242C106.02 44.0468 105.955 43.5435 105.987 43.0416C105.955 42.5365 106.02 42.0301 106.178 41.5495C106.334 41.2172 106.674 41.0511 107.218 41.0511C107.761 41.0511 108.111 41.2172 108.264 41.5495C108.352 41.7476 108.404 41.9599 108.417 42.1764Z" fill="white"/>
            <path fill-rule="evenodd" clip-rule="evenodd" d="M114.836 46.1072C115.114 46.1072 115.254 45.9912 115.254 45.7655C115.257 45.619 115.205 45.4767 115.107 45.3674L113.824 43.866C114.573 43.681 114.945 43.1074 114.945 42.1451C114.952 41.7965 114.912 41.4485 114.826 41.1106C114.762 40.8493 114.63 40.6101 114.442 40.4179C114.281 40.2456 114.077 40.1191 113.852 40.0511C113.506 39.986 113.154 39.9598 112.802 39.9728H111.106C110.971 39.9676 110.836 39.9979 110.716 40.0605C110.599 40.1477 110.539 40.292 110.56 40.4367V45.5963C110.546 45.738 110.596 45.8784 110.697 45.9787C110.817 46.0628 110.961 46.1036 111.106 46.0947H111.497C111.633 46.1139 111.771 46.0675 111.868 45.9694C111.965 45.8713 112.01 45.7331 111.99 45.5963V43.9443H112.121L113.643 45.8251C113.72 45.923 113.819 46.0004 113.933 46.0508C114.046 46.0911 114.166 46.1102 114.286 46.1072H114.836ZM113.315 41.2674C113.443 41.3269 113.505 41.5996 113.505 42.0886H113.511C113.517 42.2297 113.504 42.3708 113.474 42.5087C113.451 42.5867 113.394 42.6494 113.318 42.6779C113.186 42.7159 113.049 42.7318 112.912 42.725H111.975V41.2078H112.715C112.917 41.1925 113.12 41.2127 113.315 41.2674Z" fill="white"/>
            <path d="M122.401 40.3677C122.4 40.4786 122.368 40.587 122.31 40.6812L120.523 43.7249V45.6057C120.543 45.7418 120.498 45.8795 120.402 45.9774C120.306 46.0753 120.169 46.1222 120.033 46.1041H119.627C119.484 46.114 119.341 46.0742 119.224 45.9912C119.12 45.8914 119.069 45.7491 119.084 45.6057V43.8064L117.269 40.6906C117.212 40.5952 117.179 40.4878 117.172 40.3771C117.153 40.2532 117.21 40.1299 117.316 40.0637C117.41 40.0076 117.518 39.9783 117.628 39.979H118.122C118.351 39.9546 118.57 40.0811 118.665 40.2925L119.814 42.2955L120.992 40.2862C121.04 40.1928 121.111 40.113 121.198 40.0543C121.303 39.9996 121.421 39.9747 121.539 39.9822H121.941C122.063 39.9734 122.184 40.0115 122.279 40.0888C122.355 40.1598 122.397 40.2603 122.394 40.3646L122.401 40.3677Z" fill="white"/>
            <path fill-rule="evenodd" clip-rule="evenodd" d="M127.82 44.7154C127.995 44.1773 128.079 43.6138 128.07 43.0478C128.079 42.4798 127.995 41.9142 127.82 41.3739C127.667 40.9105 127.368 40.5098 126.967 40.2329C126.486 39.9282 125.923 39.7803 125.355 39.8098C124.912 39.7962 124.471 39.8797 124.062 40.0543C123.729 40.2081 123.44 40.4456 123.225 40.7439C123.012 41.0487 122.861 41.3928 122.782 41.7564C122.69 42.1805 122.646 42.6138 122.65 43.0478C122.646 43.4789 122.691 43.9092 122.785 44.3299C122.865 44.6959 123.017 45.0422 123.231 45.3486C123.446 45.6476 123.734 45.8853 124.068 46.0382C124.475 46.2133 124.914 46.2978 125.355 46.2859C125.923 46.3153 126.486 46.1675 126.967 45.8627C127.366 45.5819 127.665 45.1797 127.82 44.7154ZM126.592 43.042C126.594 42.753 126.58 42.464 126.552 42.1764C126.541 41.9599 126.49 41.7474 126.402 41.5495C126.245 41.2172 125.899 41.0511 125.355 41.0511C124.812 41.0511 124.471 41.2172 124.315 41.5495C124.156 42.0298 124.09 42.5363 124.122 43.0416C124.091 43.5437 124.156 44.0471 124.315 44.5242C124.473 44.8628 124.82 45.032 125.355 45.032C125.896 45.032 126.245 44.8628 126.402 44.5242C126.56 44.0471 126.625 43.5438 126.592 43.042Z" fill="white"/>
            <path d="M133.785 42.3175C133.785 42.9287 133.785 43.3801 133.764 43.6685C133.756 43.9511 133.729 44.2328 133.682 44.5117C133.63 44.8934 133.478 45.2545 133.242 45.5586C133.03 45.8091 132.748 45.9903 132.433 46.079C132.034 46.189 131.622 46.2407 131.209 46.2326C130.793 46.2403 130.379 46.1886 129.978 46.079C129.657 45.989 129.371 45.8044 129.157 45.5492C128.924 45.2434 128.774 44.883 128.719 44.5023C128.688 44.3142 128.663 44.1324 128.647 43.9506C128.632 43.7688 128.626 43.5713 128.622 43.3613C128.619 43.1513 128.622 42.8065 128.622 42.3237V40.443C128.602 40.2976 128.663 40.1527 128.782 40.0668C128.901 40.0046 129.035 39.9743 129.169 39.979H129.55C129.691 39.9657 129.831 40.0111 129.937 40.1044C130.018 40.1979 130.06 40.3193 130.053 40.443V43.051C130.053 43.3895 130.053 43.6528 130.072 43.8377C130.079 43.9916 130.099 44.1447 130.131 44.2954C130.157 44.4029 130.192 44.5079 130.237 44.6089C130.3 44.7417 130.412 44.8443 130.55 44.8941C130.766 44.9647 130.994 44.9945 131.221 44.9819C131.451 44.9949 131.682 44.9652 131.902 44.8941C132.033 44.8407 132.138 44.7385 132.196 44.6089C132.271 44.4465 132.32 44.2728 132.339 44.0948C132.37 43.7488 132.383 43.4014 132.377 43.0541V40.4367C132.356 40.2899 132.42 40.144 132.542 40.0605C132.663 39.9989 132.797 39.9688 132.933 39.9728H133.326C133.639 39.9728 133.807 40.1264 133.807 40.4367V42.3175H133.785Z" fill="white"/>
            <path d="M138.992 40.6906C138.992 41.0354 138.83 41.2078 138.502 41.2078C138.174 41.2078 137.74 41.2078 137.252 41.189V45.5963C137.272 45.7331 137.227 45.8713 137.13 45.9694C137.033 46.0675 136.895 46.1139 136.759 46.0947H136.368C136.224 46.1054 136.081 46.0655 135.962 45.9818C135.862 45.88 135.813 45.7385 135.828 45.5963V41.189C135.341 41.189 134.925 41.2078 134.579 41.2078C134.37 41.2078 134.236 41.1577 134.176 41.0573C134.114 40.9453 134.083 40.8187 134.085 40.6906V40.4367C134.085 40.1232 134.251 39.9728 134.579 39.9728H138.508C138.836 39.9728 138.998 40.1264 138.998 40.4367V40.6781L138.992 40.6906Z" fill="white"/>
            <path d="M144.221 45.5963C144.239 45.7343 144.191 45.8729 144.093 45.9708C143.994 46.0686 143.855 46.1145 143.718 46.0947H143.334C143.19 46.1046 143.048 46.0648 142.931 45.9818C142.827 45.882 142.775 45.7397 142.79 45.5963V43.402C142.59 43.402 142.253 43.402 141.784 43.402H140.785V45.5963C140.805 45.7331 140.76 45.8713 140.662 45.9694C140.565 46.0675 140.428 46.1139 140.291 46.0947H139.898C139.753 46.1045 139.61 46.0635 139.492 45.9787C139.389 45.8798 139.337 45.7387 139.351 45.5963V40.4367C139.331 40.2913 139.392 40.1465 139.511 40.0605C139.63 39.9979 139.763 39.9676 139.898 39.9728H140.291C140.604 39.9728 140.785 40.1264 140.785 40.4367V42.2485C140.985 42.2485 141.319 42.2485 141.784 42.2485C142.25 42.2485 142.59 42.2485 142.79 42.2485V40.4367C142.769 40.292 142.829 40.1477 142.946 40.0605C143.066 39.9979 143.199 39.9676 143.334 39.9728H143.718C144.052 39.9728 144.221 40.1264 144.221 40.4367V45.5963Z" fill="white"/>
            <path fill-rule="evenodd" clip-rule="evenodd" d="M152.089 44.4082C152.17 43.9775 152.209 43.5396 152.204 43.1011L152.201 43.0792C152.213 42.5412 152.157 42.0039 152.032 41.4805C151.952 41.1281 151.779 40.8035 151.533 40.5401C151.302 40.3192 151.016 40.1654 150.705 40.095C150.295 40.0055 149.875 39.9645 149.455 39.9728H147.856C147.722 39.968 147.588 39.9983 147.469 40.0605C147.35 40.1465 147.289 40.2913 147.31 40.4367V45.5963C147.295 45.7387 147.347 45.8798 147.45 45.9787C147.569 46.0623 147.712 46.1032 147.856 46.0947H149.455C149.53 46.0947 149.608 46.0897 149.69 46.0845C149.781 46.0788 149.877 46.0727 149.977 46.0727C150.179 46.0551 150.379 46.0247 150.577 45.9818C150.976 45.9119 151.341 45.71 151.614 45.4082C151.853 45.1202 152.016 44.7763 152.089 44.4082ZM150.649 41.8285C150.72 42.1567 150.751 42.4925 150.742 42.8284L150.755 42.8065V43.098C150.768 43.4718 150.734 43.8458 150.652 44.2108C150.603 44.4297 150.455 44.613 150.252 44.706C149.943 44.8102 149.618 44.8548 149.293 44.8377H148.756V41.2172H149.293C149.609 41.2021 149.926 41.2391 150.23 41.3269C150.444 41.4142 150.6 41.602 150.649 41.8285Z" fill="white"/>
            <path d="M156.692 45.6276C156.692 45.9411 156.527 46.0947 156.199 46.0947H153.36C153.214 46.1036 153.07 46.0628 152.951 45.9787C152.85 45.8784 152.799 45.738 152.813 45.5963V40.4367C152.792 40.292 152.852 40.1477 152.969 40.0605C153.09 39.9979 153.224 39.9676 153.36 39.9728H156.196C156.524 39.9728 156.689 40.1264 156.689 40.4367V40.6781C156.693 40.8067 156.66 40.9337 156.596 41.0448C156.497 41.1608 156.346 41.2176 156.196 41.1953H154.244V42.3676L154.915 42.3519H155.983C156.125 42.3346 156.267 42.3848 156.366 42.4876C156.465 42.5904 156.511 42.7339 156.489 42.8754V42.9945C156.511 43.1359 156.465 43.2793 156.366 43.3816C156.266 43.484 156.125 43.5333 155.983 43.5149H155.187L154.25 43.4961V44.9349H156.202C156.352 44.9125 156.503 44.9693 156.602 45.0853C156.667 45.1962 156.699 45.3234 156.696 45.4521V45.6934L156.692 45.6276Z" fill="white"/>
            <path d="M162.583 40.305C162.575 40.4126 162.551 40.5184 162.511 40.6185L160.637 45.6495C160.594 45.7819 160.519 45.9014 160.419 45.9975C160.296 46.0812 160.148 46.1199 160 46.1072H159.575C159.431 46.117 159.287 46.0796 159.166 46.0006C159.062 45.9048 158.983 45.784 158.938 45.6495L156.97 40.537C156.952 40.4801 156.94 40.4212 156.936 40.3615C156.925 40.248 156.977 40.1375 157.07 40.0731C157.16 40.0222 157.261 39.9963 157.364 39.9978H157.92C158.166 39.985 158.388 40.1433 158.457 40.3803L159.806 44.0916L161.109 40.4367C161.15 40.3186 161.217 40.2115 161.306 40.1232C161.415 40.0428 161.549 40.0049 161.684 40.0167H162.13C162.259 40.0007 162.39 40.0283 162.502 40.095C162.562 40.1603 162.591 40.248 162.583 40.3364V40.305Z" fill="white"/>
            <path d="M166.859 45.6276C166.859 45.9411 166.694 46.0947 166.366 46.0947H163.533C163.387 46.1036 163.243 46.0628 163.123 45.9787C163.02 45.8798 162.968 45.7387 162.983 45.5963V40.4367C162.962 40.2913 163.024 40.1465 163.142 40.0605C163.263 39.9979 163.397 39.9676 163.533 39.9728H166.366C166.694 39.9728 166.859 40.1264 166.859 40.4367V40.6781C166.862 40.8067 166.83 40.9337 166.765 41.0448C166.703 41.1451 166.572 41.1953 166.366 41.1953H164.417V42.3676L165.088 42.3519H166.166C166.307 42.3343 166.449 42.3846 166.547 42.4875C166.646 42.5905 166.691 42.7342 166.669 42.8754V42.9945C166.69 43.1353 166.645 43.278 166.546 43.3802C166.447 43.4824 166.306 43.5323 166.166 43.5149H165.369L164.432 43.4961V44.9349H166.384C166.59 44.9349 166.722 44.985 166.784 45.0853C166.849 45.1962 166.882 45.3234 166.878 45.4521V45.6934L166.859 45.6276Z" fill="white"/>
            <path d="M171.076 45.6276C171.076 45.9411 170.913 46.0947 170.585 46.0947H168.015C167.869 46.1036 167.725 46.0628 167.606 45.9787C167.504 45.8792 167.453 45.7382 167.468 45.5963V40.4367C167.468 40.2455 167.518 40.1232 167.624 40.0605C167.745 39.9979 167.879 39.9676 168.015 39.9728H168.405C168.733 39.9728 168.899 40.1264 168.899 40.4367V44.8878C169.523 44.8753 170.086 44.869 170.585 44.869C170.913 44.869 171.076 45.0414 171.076 45.3862V45.6276Z" fill="white"/>
            <path fill-rule="evenodd" clip-rule="evenodd" d="M176.329 44.7154C176.506 44.1777 176.59 43.6139 176.579 43.0478C176.59 42.4797 176.506 41.9138 176.329 41.3739C176.177 40.9113 175.878 40.5109 175.48 40.2329C174.998 39.9287 174.434 39.7809 173.865 39.8098C173.422 39.7959 172.982 39.8793 172.575 40.0543C172.24 40.208 171.951 40.4455 171.735 40.7439C171.523 41.0494 171.372 41.3932 171.291 41.7564C171.199 42.1805 171.155 42.6138 171.16 43.0478C171.155 43.4789 171.2 43.9092 171.294 44.3299C171.374 44.6959 171.526 45.0422 171.741 45.3486C171.955 45.6476 172.244 45.8853 172.578 46.0382C172.984 46.2133 173.423 46.2978 173.865 46.2859C174.434 46.3147 174.998 46.167 175.48 45.8627C175.877 45.581 176.175 45.179 176.329 44.7154ZM175.064 42.1764C175.102 42.446 175.102 42.7344 175.102 43.0478V43.0416C175.134 43.5435 175.07 44.047 174.911 44.5242C174.755 44.8628 174.405 45.032 173.865 45.032C173.33 45.032 172.983 44.8628 172.825 44.5242C172.667 44.0468 172.603 43.5435 172.634 43.0416C172.602 42.5365 172.667 42.0301 172.825 41.5495C172.981 41.2172 173.321 41.0511 173.865 41.0511C174.408 41.0511 174.758 41.2172 174.911 41.5495C174.999 41.7476 175.051 41.9599 175.064 42.1764Z" fill="white"/>
            <path fill-rule="evenodd" clip-rule="evenodd" d="M181.373 43.3174C181.521 42.9493 181.59 42.5542 181.577 42.1576V42.1451C181.583 41.7965 181.544 41.4485 181.458 41.1106C181.394 40.8493 181.261 40.6101 181.074 40.4179C180.913 40.2449 180.709 40.1182 180.483 40.0511C180.137 39.986 179.785 39.9598 179.434 39.9728H177.738C177.602 39.9676 177.468 39.9979 177.347 40.0605C177.229 40.1465 177.167 40.2913 177.188 40.4367V45.5963C177.175 45.7385 177.227 45.879 177.329 45.9787C177.448 46.0628 177.592 46.1036 177.738 46.0947H178.128C178.265 46.1139 178.402 46.0675 178.499 45.9694C178.596 45.8713 178.642 45.7331 178.622 45.5963V44.192H179.381C179.646 44.1963 179.911 44.1837 180.174 44.1543C180.365 44.1262 180.551 44.0714 180.727 43.9913C181.018 43.8552 181.249 43.6149 181.373 43.3174ZM180.152 42.0886V42.1983L180.149 42.1889C180.171 42.4091 180.141 42.6314 180.062 42.8378C179.999 42.9224 179.831 42.9663 179.559 42.9663H178.622V41.1984H179.396C179.587 41.1834 179.778 41.2036 179.962 41.258C180.09 41.3175 180.152 41.5934 180.152 42.0886Z" fill="white"/>
            <path d="M188.485 45.6464C188.485 45.9442 188.301 46.0947 187.936 46.0947H187.555C187.422 46.1108 187.289 46.0668 187.192 45.9748C187.095 45.8827 187.043 45.752 187.052 45.6182L186.843 42.5087C186.755 42.7281 186.602 43.1356 186.38 43.7813C186.159 44.4271 186.009 44.822 185.931 45.0132C185.886 45.134 185.812 45.2417 185.715 45.3267C185.604 45.4031 185.471 45.4396 185.337 45.4301H185.103C185.005 45.4339 184.907 45.4169 184.815 45.38C184.741 45.3451 184.677 45.2923 184.628 45.2264C184.58 45.1587 184.541 45.0849 184.513 45.007C184.484 44.9443 184.409 44.7436 184.288 44.4114C184.166 44.0791 184.038 43.7343 183.91 43.3864C183.782 43.0384 183.672 42.7438 183.597 42.5024L183.397 45.6119C183.405 45.7461 183.353 45.8766 183.255 45.9686C183.158 46.0605 183.024 46.1043 182.891 46.0884H182.51C182.145 46.0884 181.964 45.9379 181.964 45.6401V45.5649L182.407 40.4367C182.404 40.2981 182.465 40.1658 182.573 40.0793C182.69 40.0149 182.823 39.9845 182.957 39.9916H183.463C183.589 39.9847 183.714 40.0118 183.825 40.0699C183.92 40.1319 183.991 40.2233 184.028 40.3301C184.088 40.4712 184.172 40.6812 184.281 40.957L184.594 41.7783C184.691 42.0479 184.787 42.3206 184.906 42.5996C185.025 42.8786 185.115 43.1826 185.237 43.5023L185.44 42.9538C185.559 42.6403 185.674 42.3269 185.784 42.0134C185.893 41.6999 186.002 41.4084 186.096 41.1263C186.19 40.8442 186.305 40.5809 186.408 40.3301C186.446 40.2244 186.516 40.1334 186.608 40.0699C186.717 40.0112 186.841 39.9841 186.964 39.9916H187.477C187.608 39.9845 187.739 40.0149 187.855 40.0793C187.967 40.1629 188.032 40.2961 188.029 40.4367L188.498 45.5775V45.6527L188.485 45.6464Z" fill="white"/>
            <path d="M192.93 45.6276C192.93 45.9411 192.765 46.0947 192.437 46.0947H189.591C189.447 46.1045 189.303 46.0635 189.185 45.9787C189.082 45.8798 189.03 45.7387 189.045 45.5963V40.4367C189.024 40.2913 189.085 40.1465 189.204 40.0605C189.323 39.9979 189.457 39.9676 189.591 39.9728H192.427C192.74 39.9728 192.921 40.1264 192.921 40.4367V40.6781C192.924 40.8067 192.892 40.9337 192.827 41.0448C192.728 41.1608 192.577 41.2176 192.427 41.1953H190.478V42.3676L191.147 42.3519H192.218C192.359 42.3343 192.501 42.3846 192.6 42.4875C192.699 42.5905 192.744 42.7342 192.721 42.8754V42.9945C192.742 43.1353 192.697 43.278 192.598 43.3802C192.5 43.4824 192.359 43.5323 192.218 43.5149H191.421L190.484 43.4961V44.9349H192.437C192.587 44.9125 192.738 44.9693 192.836 45.0853C192.902 45.1962 192.934 45.3234 192.93 45.4521V45.6934V45.6276Z" fill="white"/>
            <path d="M198.69 45.5963C198.709 45.7334 198.662 45.8715 198.565 45.9694C198.467 46.0673 198.33 46.1136 198.193 46.0947H197.924C197.807 46.0982 197.69 46.0834 197.578 46.0508C197.479 46.014 197.392 45.9499 197.328 45.8658C196.759 45.1261 195.964 44.0216 194.942 42.5526V45.5963C194.961 45.7346 194.914 45.8741 194.815 45.9723C194.716 46.0705 194.576 46.1158 194.439 46.0947H194.083C193.938 46.1045 193.794 46.0635 193.677 45.9787C193.573 45.8798 193.522 45.7387 193.536 45.5963V40.4367C193.515 40.2913 193.577 40.1465 193.695 40.0605C193.815 39.9979 193.948 39.9676 194.083 39.9728H194.323C194.397 39.967 194.471 39.967 194.545 39.9728C194.604 39.982 194.66 40.0033 194.71 40.0355C194.772 40.0745 194.825 40.1257 194.867 40.1859C195.177 40.5892 195.982 41.7031 197.281 43.5274V40.4367C197.26 40.2913 197.322 40.1465 197.44 40.0605C197.561 39.9983 197.695 39.9681 197.831 39.9728H198.193C198.524 39.9728 198.69 40.1264 198.69 40.4367V45.5963Z" fill="white"/>
            <path d="M203.959 40.6906C203.959 41.0354 203.796 41.2078 203.468 41.2078C203.14 41.2078 202.706 41.2078 202.219 41.189V45.5963C202.239 45.7331 202.194 45.8713 202.097 45.9694C201.999 46.0675 201.862 46.1139 201.726 46.0947H201.335C201.191 46.1054 201.047 46.0655 200.929 45.9818C200.829 45.88 200.78 45.7385 200.795 45.5963V41.189C200.308 41.189 199.889 41.2078 199.545 41.2078C199.337 41.2078 199.203 41.1577 199.143 41.0573C199.081 40.9453 199.049 40.8187 199.052 40.6906V40.4367C199.052 40.1232 199.217 39.9728 199.545 39.9728H203.475C203.787 39.9728 203.965 40.1264 203.965 40.4367V40.6781L203.959 40.6906Z" fill="white"/>
            <path d="M104.276 52.0347C104.297 52.1752 104.252 52.3179 104.153 52.4196C104.054 52.5214 103.913 52.5704 103.773 52.552H102.008V53.7149C102.601 53.7024 103.132 53.6961 103.601 53.6961C103.929 53.6961 104.094 53.8716 104.094 54.2196V54.3387C104.098 54.4674 104.066 54.5945 104.001 54.7054C103.903 54.8226 103.752 54.8806 103.601 54.859H102.879L102.008 54.8402V56.978C102.027 57.1143 101.981 57.2516 101.884 57.349C101.787 57.4463 101.65 57.4923 101.514 57.4733H101.121C100.977 57.484 100.833 57.4441 100.715 57.3604C100.612 57.2616 100.56 57.1204 100.574 56.978V51.8028C100.554 51.6574 100.615 51.5125 100.734 51.4266C100.853 51.364 100.986 51.3337 101.121 51.3389H103.773C104.11 51.3389 104.276 51.4925 104.276 51.8028V52.0347Z" fill="white"/>
            <path fill-rule="evenodd" clip-rule="evenodd" d="M109.685 56.069C109.859 55.5307 109.942 54.9671 109.932 54.4014C109.942 53.8336 109.859 53.2679 109.685 52.7275C109.53 52.2652 109.231 51.8651 108.833 51.5865C108.35 51.2822 107.787 51.1344 107.218 51.1633C106.774 51.1498 106.333 51.2332 105.925 51.4078C105.592 51.5617 105.305 51.7993 105.091 52.0974C104.875 52.4013 104.724 52.7457 104.644 53.1099C104.552 53.5341 104.508 53.9673 104.513 54.4014C104.508 54.8325 104.553 55.2627 104.647 55.6834C104.727 56.0494 104.879 56.3957 105.094 56.7022C105.309 57.0019 105.599 57.2397 105.934 57.3918C106.339 57.5669 106.777 57.6514 107.218 57.6394C107.787 57.6683 108.35 57.5205 108.833 57.2162C109.23 56.9337 109.529 56.5321 109.685 56.069ZM108.417 53.5299C108.455 53.7995 108.455 54.0879 108.455 54.4014V54.3951C108.487 54.897 108.422 55.4005 108.264 55.8778C108.108 56.2163 107.758 56.3856 107.218 56.3856C106.683 56.3856 106.336 56.2163 106.178 55.8778C105.924 54.9026 105.924 53.8782 106.178 52.903C106.334 52.5708 106.674 52.4046 107.218 52.4046C107.761 52.4046 108.111 52.5708 108.264 52.903C108.352 53.1012 108.404 53.3135 108.417 53.5299Z" fill="white"/>
            <path fill-rule="evenodd" clip-rule="evenodd" d="M114.836 57.4451C115.114 57.4451 115.254 57.3322 115.254 57.1065C115.25 56.9678 115.199 56.8348 115.107 56.7304L113.824 55.232C114.573 55.0471 114.945 54.4735 114.945 53.5143C114.952 53.1646 114.912 52.8156 114.826 52.4767C114.762 52.2154 114.63 51.9762 114.442 51.784C114.281 51.6117 114.077 51.4852 113.852 51.4172C113.506 51.3521 113.154 51.3258 112.802 51.3389H111.106C110.971 51.3337 110.836 51.364 110.716 51.4266C110.599 51.5137 110.539 51.6581 110.56 51.8028V56.9373C110.546 57.079 110.596 57.2195 110.697 57.3197C110.817 57.4027 110.961 57.4424 111.106 57.4325H111.497C111.633 57.4529 111.771 57.4074 111.868 57.3097C111.965 57.212 112.011 57.0739 111.99 56.9373V55.2853H112.121L113.643 57.1661C113.72 57.264 113.819 57.3415 113.933 57.3918C114.047 57.4309 114.166 57.449 114.286 57.4451H114.836ZM113.315 52.6209C113.443 52.6805 113.505 52.9532 113.505 53.4422H113.511C113.517 53.5832 113.504 53.7244 113.474 53.8622C113.451 53.9402 113.394 54.003 113.318 54.0315C113.186 54.0694 113.049 54.0853 112.912 54.0785H111.975V52.5614H112.715C112.917 52.546 113.12 52.5662 113.315 52.6209Z" fill="white"/>
            <path d="M122.41 56.9498C122.428 57.0877 122.381 57.2262 122.282 57.3236C122.183 57.421 122.044 57.466 121.907 57.4451H121.523C121.38 57.456 121.238 57.4172 121.12 57.3354C121.016 57.2355 120.964 57.0932 120.979 56.9498V54.7556C120.771 54.7556 120.437 54.7556 119.977 54.7556H118.974V56.9498C118.993 57.0861 118.947 57.2234 118.85 57.3207C118.753 57.4181 118.617 57.4641 118.481 57.4451H118.09C117.945 57.455 117.801 57.4152 117.681 57.3322C117.578 57.2333 117.526 57.0922 117.541 56.9498V51.8028C117.52 51.6574 117.581 51.5125 117.7 51.4266C117.82 51.364 117.955 51.3337 118.09 51.3389H118.481C118.809 51.3389 118.974 51.4925 118.974 51.8028V53.602C119.177 53.602 119.508 53.602 119.977 53.602C120.445 53.602 120.78 53.602 120.979 53.602V51.7902C120.959 51.6456 121.019 51.5012 121.136 51.4141C121.255 51.3518 121.388 51.3216 121.523 51.3263H121.907C122.241 51.3263 122.41 51.4799 122.41 51.7902V56.9498Z" fill="white"/>
            <path d="M127.051 56.9812C127.051 57.2946 126.886 57.4451 126.558 57.4451H123.722C123.578 57.4558 123.434 57.4159 123.316 57.3322C123.213 57.2333 123.161 57.0922 123.175 56.9498V51.8028C123.155 51.6581 123.214 51.5137 123.331 51.4266C123.452 51.3644 123.586 51.3342 123.722 51.3389H126.558C126.886 51.3389 127.051 51.4925 127.051 51.8028V52.0347C127.055 52.1634 127.022 52.2903 126.958 52.4015C126.859 52.5175 126.708 52.5743 126.558 52.552H124.609V53.7243L125.277 53.7086H126.349C126.49 53.691 126.631 53.7412 126.73 53.8442C126.829 53.9472 126.874 54.0909 126.851 54.2321V54.3512C126.873 54.4919 126.828 54.6347 126.729 54.7369C126.63 54.8391 126.489 54.8889 126.349 54.8716H125.552L124.615 54.8528V56.2915H126.564C126.714 56.2692 126.865 56.326 126.964 56.442C127.029 56.5529 127.062 56.6801 127.058 56.8088V57.0501L127.051 56.9812Z" fill="white"/>
            <path fill-rule="evenodd" clip-rule="evenodd" d="M132.63 57.4451C132.914 57.4451 133.058 57.3228 133.058 57.0815L133.076 57.0689C133.073 57.0091 133.061 56.95 133.042 56.8934L131.065 51.7432C131.024 51.61 130.947 51.4907 130.843 51.3984C130.719 51.3169 130.572 51.2784 130.425 51.2887H130.05C129.943 51.2856 129.837 51.3037 129.737 51.342C129.662 51.3761 129.596 51.429 129.547 51.4956C129.494 51.5756 129.451 51.6619 129.419 51.7526L127.545 56.8119C127.504 56.9121 127.478 57.0177 127.467 57.1253C127.461 57.2136 127.493 57.3001 127.554 57.3636C127.666 57.4328 127.798 57.4615 127.929 57.4451H128.348C128.481 57.4585 128.615 57.4204 128.722 57.3385C128.807 57.2484 128.872 57.1416 128.913 57.025L129.16 56.3386H131.346L131.63 57.0877C131.667 57.1925 131.728 57.2871 131.808 57.3636C131.903 57.4249 132.015 57.4535 132.127 57.4451H132.63ZM130.228 53.2134L130.931 55.2414H129.528L130.228 53.2134Z" fill="white"/>
            <path d="M137.099 56.9812C137.099 57.2946 136.934 57.4451 136.609 57.4451H134.035C133.891 57.4558 133.747 57.4159 133.629 57.3322C133.526 57.2333 133.474 57.0922 133.489 56.9498V51.8028C133.468 51.6574 133.529 51.5125 133.648 51.4266C133.767 51.364 133.901 51.3337 134.035 51.3389H134.429C134.757 51.3389 134.922 51.4925 134.922 51.8028V56.2414C135.547 56.2288 136.109 56.2226 136.609 56.2226C136.921 56.2226 137.099 56.395 137.099 56.7398V56.9812Z" fill="white"/>
            <path d="M141.21 52.0347C141.21 52.3795 141.044 52.552 140.719 52.552C140.394 52.552 139.954 52.552 139.47 52.5331V56.9404C139.49 57.077 139.445 57.2152 139.348 57.3128C139.25 57.4105 139.113 57.4561 138.976 57.4357H138.586C138.442 57.4473 138.299 57.4085 138.18 57.326C138.079 57.2248 138.028 57.0831 138.043 56.9404V52.5425C137.558 52.5425 137.14 52.5614 136.793 52.5614C136.585 52.5614 136.451 52.5112 136.39 52.4109C136.328 52.2988 136.297 52.1723 136.3 52.0441V51.8028C136.3 51.4893 136.465 51.3389 136.793 51.3389H140.722C141.035 51.3389 141.213 51.4925 141.213 51.8028V52.0347H141.21Z" fill="white"/>
            <path d="M146.432 56.9498C146.452 57.088 146.405 57.2273 146.305 57.3251C146.206 57.4229 146.066 57.4674 145.929 57.4451H145.551C145.407 57.4567 145.264 57.4179 145.145 57.3354C145.044 57.2342 144.993 57.0925 145.008 56.9498V54.7556C144.805 54.7556 144.471 54.7556 144.002 54.7556H143.003V56.9498C143.023 57.0864 142.977 57.2246 142.88 57.3222C142.783 57.4199 142.645 57.4655 142.509 57.4451H142.115C141.971 57.4558 141.828 57.4159 141.709 57.3322C141.606 57.2333 141.554 57.0922 141.569 56.9498V51.8028C141.548 51.6581 141.608 51.5137 141.725 51.4266C141.845 51.364 141.98 51.3337 142.115 51.3389H142.506C142.837 51.3389 142.999 51.4925 142.999 51.8028V53.602C143.208 53.602 143.542 53.602 144.002 53.602C144.471 53.602 144.805 53.602 145.008 53.602V51.7902C144.987 51.6456 145.047 51.5012 145.164 51.4141C145.283 51.3511 145.417 51.3209 145.551 51.3263H145.932C146.27 51.3263 146.435 51.4799 146.435 51.7902V56.9373L146.432 56.9498Z" fill="white"/>
            <path d="M152.057 51.7213C152.057 51.8318 152.027 51.9403 151.97 52.0347L150.18 55.0784V56.9592C150.2 57.0952 150.155 57.2327 150.059 57.3302C149.962 57.4277 149.825 57.4738 149.69 57.4545H149.299C149.156 57.4654 149.014 57.4266 148.896 57.3448C148.794 57.2443 148.743 57.1021 148.759 56.9592V55.1599L146.935 52.0347C146.88 51.9388 146.847 51.8317 146.838 51.7213C146.826 51.6027 146.881 51.4872 146.982 51.4235C147.076 51.3674 147.184 51.3381 147.294 51.3389H147.791C147.908 51.3326 148.025 51.3597 148.128 51.4172C148.214 51.4764 148.284 51.5561 148.331 51.6492L149.48 53.6522L150.658 51.6429C150.705 51.5487 150.775 51.4678 150.861 51.4078C150.966 51.3539 151.084 51.329 151.201 51.3357H151.601C151.723 51.327 151.844 51.3651 151.939 51.4423C152.015 51.5133 152.057 51.6138 152.054 51.7181L152.057 51.7213Z" fill="white"/>
            <path d="M158.392 56.9812C158.392 57.2946 158.229 57.4451 157.904 57.4451H155.331C155.186 57.4558 155.043 57.4159 154.925 57.3322C154.821 57.2333 154.77 57.0922 154.784 56.9498V51.8028C154.763 51.6581 154.823 51.5137 154.94 51.4266C155.061 51.364 155.195 51.3337 155.331 51.3389H155.724C156.052 51.3389 156.218 51.4925 156.218 51.8028V56.2414C156.842 56.2288 157.405 56.2226 157.904 56.2226C158.229 56.2226 158.392 56.395 158.392 56.7398V56.9812Z" fill="white"/>
            <path d="M160.406 56.9498C160.426 57.0858 160.381 57.2233 160.285 57.3208C160.188 57.4183 160.051 57.4644 159.916 57.4451H159.522C159.378 57.4567 159.235 57.4179 159.116 57.3354C159.015 57.2342 158.964 57.0925 158.979 56.9498V51.8028C158.958 51.6574 159.019 51.5125 159.138 51.4266C159.256 51.3639 159.389 51.3337 159.522 51.3389H159.919C160.247 51.3389 160.409 51.4925 160.409 51.8028V56.9498H160.406Z" fill="white"/>
            <path d="M166.497 51.6586C166.489 51.7662 166.465 51.8719 166.425 51.972L164.551 57.0031C164.509 57.1351 164.435 57.2547 164.335 57.351C164.211 57.4334 164.062 57.471 163.914 57.4576H163.492C163.349 57.4688 163.206 57.4325 163.086 57.3542C162.982 57.2584 162.903 57.1376 162.858 57.0031L160.89 51.8905C160.869 51.8341 160.857 51.775 160.853 51.715C160.842 51.6015 160.893 51.4911 160.987 51.4266C161.077 51.3766 161.178 51.3507 161.281 51.3514H161.84C162.085 51.3397 162.307 51.4975 162.377 51.7338L163.726 55.4452L165.029 51.7871C165.069 51.6685 165.136 51.5611 165.226 51.4736C165.334 51.3929 165.469 51.355 165.603 51.3671H166.047C166.176 51.3502 166.307 51.3778 166.419 51.4454C166.48 51.5102 166.51 51.598 166.503 51.6868L166.497 51.6586Z" fill="white"/>
            <path d="M168.352 56.9498C168.372 57.0858 168.327 57.2233 168.231 57.3208C168.134 57.4183 167.997 57.4644 167.862 57.4451H167.465C167.321 57.4567 167.178 57.4179 167.059 57.3354C166.956 57.2349 166.906 57.0927 166.922 56.9498V51.8028C166.901 51.6574 166.962 51.5125 167.081 51.4266C167.199 51.3639 167.331 51.3337 167.465 51.3389H167.862C168.174 51.3389 168.352 51.4925 168.352 51.8028V56.9498Z" fill="white"/>
            <path d="M174.308 56.9498C174.328 57.0858 174.283 57.2233 174.187 57.3208C174.09 57.4183 173.954 57.4644 173.818 57.4451H173.546C173.429 57.4494 173.312 57.4356 173.2 57.4043C173.101 57.3676 173.014 57.3035 172.95 57.2194C172.383 56.4796 171.588 55.3783 170.563 53.9155V56.9592C170.583 57.0974 170.536 57.2367 170.437 57.3345C170.338 57.4323 170.198 57.4768 170.061 57.4545H169.704C169.56 57.4652 169.417 57.4253 169.298 57.3416C169.195 57.2427 169.143 57.1016 169.158 56.9592V51.8028C169.137 51.6581 169.197 51.5137 169.314 51.4266C169.435 51.3644 169.569 51.3342 169.704 51.3389H169.945C170.019 51.333 170.093 51.333 170.167 51.3389C170.226 51.348 170.282 51.3694 170.332 51.4016C170.394 51.4405 170.447 51.4917 170.488 51.552C170.799 51.9574 171.605 53.0713 172.906 54.8935V51.7902C172.906 51.599 172.956 51.4768 173.062 51.4141C173.183 51.3514 173.317 51.3212 173.453 51.3263H173.818C174.13 51.3263 174.308 51.4799 174.308 51.7902V56.9498Z" fill="white"/>
            <path d="M179.596 56.8338C179.606 56.963 179.568 57.0913 179.49 57.1943C179.392 57.2927 179.269 57.3621 179.134 57.3949C178.65 57.5185 178.152 57.5765 177.654 57.5673C177.195 57.5793 176.738 57.5136 176.301 57.373C175.972 57.2631 175.681 57.0621 175.461 56.7931C175.248 56.5089 175.103 56.1798 175.036 55.8308C174.949 55.3806 174.908 54.9226 174.914 54.4641C174.883 53.7888 174.983 53.1139 175.208 52.4767C175.366 52.0596 175.681 51.7217 176.086 51.5363C176.584 51.3484 177.115 51.2621 177.647 51.2824C177.897 51.2824 178.131 51.2824 178.35 51.2824C178.569 51.2824 178.784 51.3075 179.006 51.3295C179.163 51.3282 179.317 51.3694 179.453 51.4486C179.536 51.5215 179.58 51.6296 179.571 51.7401V52.0535C179.585 52.1976 179.553 52.3423 179.481 52.4673C179.382 52.5563 179.25 52.5976 179.118 52.5802C179.043 52.5802 178.89 52.5676 178.659 52.5425C178.384 52.5168 178.108 52.5053 177.832 52.5081C177.509 52.489 177.185 52.5272 176.876 52.6209C176.723 52.6846 176.6 52.803 176.529 52.9532C176.453 53.1224 176.409 53.304 176.398 53.4892C176.398 53.6929 176.373 53.9845 176.373 54.3638V54.4735C176.368 54.7875 176.382 55.1015 176.414 55.4138C176.433 55.6219 176.505 55.8214 176.623 55.9937C176.747 56.1671 176.937 56.2807 177.148 56.3072C177.374 56.3348 177.603 56.3463 177.832 56.3417L178.16 56.3072V54.8559H177.432C177.281 54.8763 177.131 54.8184 177.032 54.7023C176.967 54.5914 176.934 54.4642 176.938 54.3355V54.2164C176.934 54.0867 176.966 53.9584 177.032 53.8465C177.094 53.7431 177.226 53.6929 177.432 53.6929H179.09C179.424 53.6929 179.59 53.8528 179.59 54.1725V56.8495L179.596 56.8338Z" fill="white"/>
            <path d="M104.276 63.3977C104.297 63.5382 104.252 63.6808 104.153 63.7826C104.054 63.8844 103.913 63.9334 103.773 63.9149H102.683L102.008 63.8992V65.0622C102.601 65.0496 103.132 65.0434 103.601 65.0434C103.929 65.0434 104.094 65.2189 104.094 65.5668V65.686C104.098 65.8146 104.066 65.9418 104.001 66.0527C103.902 66.1687 103.751 66.2255 103.601 66.2032C103.376 66.2032 103.135 66.2032 102.879 66.2032L102.008 66.1844V68.3222C102.027 68.4585 101.981 68.5958 101.884 68.6931C101.787 68.7904 101.65 68.8364 101.514 68.8174H101.121C100.977 68.8281 100.833 68.7883 100.715 68.7046C100.612 68.6057 100.56 68.4646 100.574 68.3222V63.1563C100.554 63.011 100.615 62.8661 100.734 62.7802C100.853 62.7164 100.986 62.6851 101.121 62.6893H103.773C104.11 62.6893 104.276 62.846 104.276 63.1563V63.3977Z" fill="white"/>
            <path fill-rule="evenodd" clip-rule="evenodd" d="M109.685 67.4225C109.859 66.8842 109.942 66.3207 109.932 65.7549C109.943 65.1871 109.859 64.6214 109.685 64.081C109.53 63.6187 109.231 63.2187 108.833 62.94C108.35 62.6358 107.787 62.488 107.218 62.5169C106.774 62.5033 106.333 62.5868 105.925 62.7614C105.592 62.9152 105.305 63.1528 105.091 63.451C104.875 63.7549 104.724 64.0992 104.644 64.4635C104.552 64.8876 104.508 65.3209 104.513 65.7549C104.508 66.186 104.553 66.6163 104.647 67.037C104.727 67.403 104.879 67.7493 105.094 68.0557C105.309 68.3554 105.599 68.5932 105.934 68.7453C106.339 68.9205 106.777 69.005 107.218 68.993C107.787 69.0218 108.35 68.8741 108.833 68.5698C109.23 68.2873 109.529 67.8857 109.685 67.4225ZM108.417 64.8835C108.455 65.1531 108.455 65.4415 108.455 65.7549V65.7487C108.487 66.2506 108.422 66.7541 108.264 67.2313C108.108 67.5699 107.758 67.7391 107.218 67.7391C106.683 67.7391 106.336 67.5699 106.178 67.2313C105.924 66.2561 105.924 65.2318 106.178 64.2566C106.334 63.9243 106.674 63.755 107.218 63.755C107.761 63.755 108.111 63.9243 108.264 64.2566C108.352 64.4547 108.404 64.667 108.417 64.8835Z" fill="white"/>
            <path fill-rule="evenodd" clip-rule="evenodd" d="M114.836 68.7986C115.114 68.7986 115.254 68.6858 115.254 68.4601C115.25 68.3214 115.199 68.1883 115.107 68.0839L113.824 66.5856C114.573 66.4006 114.945 65.827 114.945 64.8678C114.952 64.5182 114.912 64.1692 114.826 63.8303C114.762 63.569 114.63 63.3297 114.442 63.1375C114.281 62.9652 114.077 62.8387 113.852 62.7708C113.506 62.7041 113.154 62.6768 112.802 62.6893H111.106C110.971 62.6851 110.836 62.7164 110.716 62.7802C110.599 62.8673 110.539 63.0117 110.56 63.1563V68.2908C110.546 68.4325 110.596 68.573 110.697 68.6732C110.817 68.7562 110.961 68.796 111.106 68.7861H111.497C111.633 68.8065 111.771 68.7609 111.868 68.6632C111.965 68.5656 112.011 68.4274 111.99 68.2908V66.6389H112.121L113.643 68.5196C113.72 68.6175 113.819 68.695 113.933 68.7453C114.047 68.7845 114.166 68.8025 114.286 68.7986H114.836ZM113.315 63.9713C113.443 64.034 113.505 64.3067 113.505 64.7957H113.511C113.517 64.9357 113.504 65.0759 113.474 65.2126C113.453 65.2921 113.395 65.3563 113.318 65.385C113.186 65.423 113.049 65.4389 112.912 65.4321H111.975V63.9149H112.715C112.917 63.9011 113.119 63.9202 113.315 63.9713Z" fill="white"/>
            <path d="M121.479 66.8802C121.511 67.3157 121.45 67.753 121.298 68.1623C121.186 68.3613 121.016 68.5211 120.811 68.6199C120.594 68.731 120.359 68.8032 120.117 68.8331C119.85 68.8653 119.581 68.881 119.312 68.8801C118.884 68.8801 118.434 68.8582 117.956 68.8174C117.799 68.8173 117.646 68.7739 117.512 68.692C117.429 68.6217 117.384 68.5159 117.391 68.4068V68.0933C117.376 67.9478 117.408 67.8013 117.484 67.6764C117.583 67.5909 117.714 67.551 117.844 67.5667C117.965 67.5667 118.156 67.5667 118.409 67.6043C118.662 67.642 118.999 67.6388 119.446 67.6388C119.595 67.6431 119.745 67.6348 119.893 67.6137C119.959 67.6051 120.016 67.5623 120.042 67.5009C120.069 67.3987 120.081 67.293 120.077 67.1874V66.9273C120.083 66.8342 120.068 66.7409 120.033 66.6546C119.98 66.5837 119.905 66.532 119.821 66.5072L118.662 66.0433C118.39 65.9384 118.131 65.8016 117.89 65.6358C117.733 65.519 117.616 65.3556 117.556 65.1687C117.483 64.8886 117.452 64.5992 117.462 64.3099C117.456 64.0381 117.489 63.7668 117.559 63.5043C117.623 63.2859 117.754 63.0936 117.934 62.9557C118.166 62.7914 118.438 62.6918 118.721 62.6673C119.014 62.6376 119.308 62.6261 119.602 62.6328H119.739C120.002 62.6328 120.364 62.6329 120.789 62.6767C120.947 62.671 121.104 62.7125 121.239 62.7958C121.325 62.8669 121.372 62.9756 121.364 63.0874V63.382C121.378 63.5275 121.345 63.6738 121.27 63.7989C121.169 63.8848 121.036 63.9246 120.904 63.9086C120.855 63.9086 120.717 63.9086 120.489 63.8867C120.261 63.8647 120.074 63.8647 119.921 63.8647H119.252C119.084 63.8647 118.974 63.8961 118.94 63.9557C118.886 64.0598 118.862 64.1771 118.871 64.2942V64.4039C118.865 64.498 118.88 64.5923 118.915 64.6797C118.969 64.7523 119.044 64.8061 119.13 64.8333L119.549 64.9995L119.886 65.1374C120.245 65.2793 120.596 65.4426 120.936 65.6264C121.124 65.7289 121.275 65.8893 121.367 66.0841C121.46 66.3429 121.502 66.6178 121.489 66.8928L121.479 66.8802Z" fill="white"/>
            <path fill-rule="evenodd" clip-rule="evenodd" d="M127.101 67.4225C127.276 66.8844 127.361 66.3209 127.351 65.7549C127.361 65.1869 127.276 64.6212 127.101 64.081C126.949 63.6176 126.649 63.2169 126.249 62.94C125.768 62.6352 125.205 62.4874 124.637 62.5169C124.193 62.5033 123.752 62.5868 123.344 62.7614C123.01 62.9152 122.722 63.1527 122.507 63.451C122.294 63.7558 122.143 64.0999 122.063 64.4635C121.971 64.8876 121.927 65.3209 121.932 65.7549C121.927 66.186 121.972 66.6163 122.066 67.037C122.146 67.403 122.298 67.7493 122.513 68.0557C122.728 68.3547 123.016 68.5924 123.35 68.7453C123.756 68.9204 124.195 69.0049 124.637 68.993C125.205 69.0224 125.768 68.8746 126.249 68.5698C126.648 68.289 126.947 67.8868 127.101 67.4225ZM125.874 65.7491C125.875 65.4601 125.862 65.1711 125.833 64.8835C125.822 64.667 125.771 64.4545 125.683 64.2566C125.53 63.9243 125.18 63.755 124.637 63.755C124.093 63.755 123.753 63.9243 123.597 64.2566C123.339 65.2312 123.339 66.2567 123.597 67.2313C123.755 67.5699 124.102 67.7391 124.637 67.7391C125.177 67.7391 125.527 67.5699 125.683 67.2313C125.842 66.7542 125.906 66.2509 125.874 65.7491Z" fill="white"/>
            <path d="M132.183 68.4601C132.19 68.5716 132.143 68.6796 132.058 68.7516C131.923 68.8345 131.767 68.8759 131.608 68.8707C131.199 68.9052 130.849 68.9209 130.559 68.9209C130.099 68.9331 129.641 68.8674 129.203 68.7265C128.877 68.6159 128.589 68.4148 128.373 68.1466C128.16 67.8624 128.015 67.5333 127.948 67.1843C127.86 66.7341 127.82 66.2762 127.826 65.8176C127.795 65.1423 127.895 64.4675 128.12 63.8303C128.277 63.4131 128.593 63.0753 128.997 62.8899C129.496 62.7021 130.027 62.6158 130.559 62.636C130.821 62.636 131.184 62.636 131.608 62.6799C131.767 62.6747 131.923 62.7161 132.058 62.799C132.143 62.871 132.19 62.979 132.183 63.0905V63.3852C132.198 63.5306 132.165 63.677 132.089 63.8021C131.988 63.8879 131.856 63.9277 131.724 63.9118C131.668 63.9118 131.527 63.9118 131.302 63.8898C131.077 63.8679 130.887 63.8679 130.74 63.8679C130.417 63.8488 130.094 63.887 129.784 63.9807C129.631 64.0433 129.507 64.1621 129.438 64.313C129.362 64.4823 129.316 64.6638 129.303 64.849C129.288 65.0528 129.281 65.3443 129.281 65.7236V65.827C129.277 66.141 129.29 66.455 129.322 66.7674C129.342 66.9749 129.413 67.1742 129.528 67.3473C129.654 67.5202 129.845 67.6336 130.056 67.6608C130.283 67.6884 130.512 67.6999 130.74 67.6952C130.799 67.6952 130.943 67.6952 131.168 67.6733C131.393 67.6514 131.577 67.6514 131.724 67.6514C131.856 67.6347 131.989 67.6758 132.089 67.7642C132.165 67.8903 132.198 68.0377 132.183 68.1842V68.4726V68.4601Z" fill="white"/>
            <path d="M134.123 68.3034C134.143 68.4393 134.098 68.5768 134.001 68.6743C133.905 68.7718 133.768 68.8179 133.632 68.7986H133.236C133.093 68.8095 132.951 68.7708 132.833 68.6889C132.729 68.5891 132.677 68.4468 132.692 68.3034V63.1563C132.671 63.011 132.733 62.8661 132.851 62.7802C132.97 62.7172 133.102 62.6859 133.236 62.6893H133.632C133.96 62.6893 134.123 62.846 134.123 63.1563V68.3034Z" fill="white"/>
            <path fill-rule="evenodd" clip-rule="evenodd" d="M139.91 68.7986C140.195 68.7986 140.338 68.6795 140.338 68.435L140.332 68.4068C140.329 68.3467 140.316 68.2874 140.295 68.2313L138.321 63.0811C138.28 62.9479 138.203 62.8286 138.099 62.7363C137.975 62.6548 137.828 62.6163 137.68 62.6266H137.305C137.199 62.6235 137.093 62.6416 136.993 62.6799C136.917 62.7131 136.851 62.7661 136.803 62.8335C136.748 62.9133 136.704 62.9996 136.671 63.0905L134.797 68.1498C134.756 68.2501 134.729 68.3555 134.716 68.4632C134.711 68.5519 134.744 68.6385 134.807 68.7014C134.919 68.7706 135.051 68.7994 135.182 68.7829H135.6C135.733 68.7968 135.866 68.7587 135.972 68.6764C136.058 68.5878 136.123 68.4806 136.162 68.3629L136.412 67.6764H138.599L138.883 68.4256C138.92 68.5304 138.981 68.6249 139.061 68.7014C139.161 68.7746 139.284 68.8091 139.408 68.7986H139.91ZM137.493 64.5732L138.199 66.595H136.806L137.493 64.5732Z" fill="white"/>
            <path d="M144.502 68.3347C144.502 68.6482 144.339 68.7986 144.011 68.7986H141.441C141.297 68.8093 141.153 68.7694 141.035 68.6858C140.932 68.5869 140.88 68.4458 140.894 68.3034V63.1563C140.874 63.0117 140.934 62.8673 141.05 62.7802C141.171 62.7168 141.305 62.6855 141.441 62.6893H141.831C142.162 62.6893 142.325 62.846 142.325 63.1563V67.5949C142.949 67.5824 143.512 67.5761 144.011 67.5761C144.339 67.5761 144.502 67.7485 144.502 68.0933V68.3347Z" fill="white"/>
            <path fill-rule="evenodd" clip-rule="evenodd" d="M151.339 68.7986C151.62 68.7986 151.757 68.6858 151.757 68.4601H151.751C151.749 68.3211 151.697 68.1876 151.604 68.0839L150.324 66.5856C151.071 66.3996 151.445 65.827 151.445 64.8678C151.451 64.5183 151.411 64.1695 151.326 63.8303C151.262 63.569 151.13 63.3297 150.942 63.1375C150.781 62.9658 150.577 62.8394 150.352 62.7708C150.005 62.7041 149.652 62.6767 149.299 62.6893H147.613C147.477 62.6851 147.342 62.7164 147.222 62.7802C147.104 62.8661 147.042 63.011 147.063 63.1563V68.2908C147.049 68.4332 147.1 68.5744 147.204 68.6732C147.323 68.7562 147.467 68.796 147.613 68.7861H148.003C148.139 68.8051 148.276 68.7591 148.373 68.6618C148.47 68.5644 148.516 68.4271 148.497 68.2908V66.6389H148.625L150.149 68.5196C150.226 68.6175 150.326 68.695 150.439 68.7453C150.553 68.7845 150.672 68.8025 150.792 68.7986H151.339ZM149.837 63.9713C149.965 64.034 150.027 64.3067 150.027 64.7957H150.033C150.039 64.9357 150.026 65.0759 149.996 65.2126C149.975 65.2931 149.915 65.3577 149.837 65.385C149.706 65.4234 149.57 65.4393 149.434 65.4321H148.497V63.9149H149.237C149.438 63.9011 149.641 63.9202 149.837 63.9713Z" fill="white"/>
            <path d="M156.171 68.3347C156.171 68.6482 156.008 68.7986 155.677 68.7986H152.844C152.7 68.8093 152.557 68.7694 152.438 68.6858C152.335 68.5869 152.283 68.4458 152.298 68.3034V63.1563C152.277 63.0117 152.337 62.8673 152.454 62.7802C152.574 62.7164 152.709 62.6851 152.844 62.6893H155.677C156.008 62.6893 156.171 62.846 156.171 63.1563V63.3977C156.175 63.5251 156.144 63.6511 156.08 63.7613C156.018 63.8647 155.883 63.9149 155.677 63.9149H153.728V65.0872L154.4 65.0716H155.471C155.805 65.0716 155.971 65.2471 155.971 65.5951V65.7142C155.993 65.8541 155.948 65.996 155.849 66.0976C155.751 66.1993 155.611 66.2488 155.471 66.2314C155.221 66.2314 154.956 66.2314 154.672 66.2314L153.735 66.2126V67.6514H155.687C155.895 67.6514 156.029 67.7015 156.09 67.8018C156.154 67.913 156.185 68.0402 156.18 68.1686V68.3347H156.171Z" fill="white"/>
            <path d="M160.703 66.8802C160.735 67.3157 160.673 67.753 160.522 68.1623C160.41 68.3605 160.241 68.52 160.038 68.6199C159.82 68.7301 159.586 68.8022 159.344 68.8331C159.076 68.8654 158.806 68.8811 158.535 68.8801C158.11 68.8801 157.658 68.8582 157.18 68.8174C157.023 68.8168 156.87 68.7735 156.736 68.692C156.653 68.6217 156.608 68.5159 156.614 68.4068V68.0933C156.599 67.9478 156.632 67.8013 156.708 67.6764C156.807 67.5909 156.937 67.551 157.067 67.5667C157.189 67.5667 157.38 67.5667 157.633 67.6043C157.886 67.642 158.223 67.6388 158.67 67.6388C158.819 67.6431 158.968 67.6348 159.116 67.6137C159.183 67.607 159.241 67.5635 159.266 67.5009C159.296 67.3992 159.308 67.2933 159.304 67.1874V66.9273C159.311 66.8338 159.295 66.74 159.257 66.6546C159.204 66.583 159.13 66.5312 159.044 66.5072L157.886 66.0433C157.613 65.9384 157.354 65.8016 157.114 65.6358C156.958 65.5181 156.841 65.3551 156.78 65.1687C156.707 64.8886 156.675 64.5992 156.686 64.3099C156.68 64.0381 156.713 63.7668 156.783 63.5043C156.846 63.2859 156.978 63.0936 157.158 62.9557C157.391 62.7924 157.662 62.693 157.945 62.6673C158.237 62.6376 158.532 62.6261 158.826 62.6328H158.963C159.225 62.6328 159.588 62.6329 160.016 62.6767C160.173 62.6709 160.329 62.7124 160.462 62.7958C160.549 62.8669 160.595 62.9756 160.587 63.0874V63.382C160.602 63.5275 160.569 63.6738 160.494 63.7989C160.393 63.8859 160.26 63.9257 160.128 63.9086C160.078 63.9086 159.941 63.9086 159.713 63.8867C159.485 63.8647 159.297 63.8647 159.147 63.8647H158.479C158.31 63.8647 158.201 63.8961 158.167 63.9557C158.113 64.0598 158.089 64.1771 158.098 64.2942V64.4039C158.092 64.498 158.107 64.5923 158.142 64.6797C158.196 64.7523 158.271 64.8061 158.357 64.8333L158.776 64.9995L159.113 65.1374C159.473 65.2801 159.824 65.4433 160.166 65.6264C160.353 65.7298 160.503 65.89 160.594 66.0841C160.687 66.3429 160.728 66.6178 160.715 66.8928L160.703 66.8802Z" fill="white"/>
            <path fill-rule="evenodd" clip-rule="evenodd" d="M165.516 66.0245C165.661 65.6567 165.729 65.263 165.716 64.8678C165.721 64.5183 165.682 64.1695 165.597 63.8303C165.535 63.5685 165.402 63.3289 165.213 63.1375C165.052 62.9652 164.848 62.8387 164.623 62.7708C164.277 62.7041 163.925 62.6768 163.573 62.6893H161.877C161.741 62.6851 161.607 62.7164 161.487 62.7802C161.37 62.8673 161.31 63.0117 161.331 63.1563V68.3034C161.316 68.4458 161.368 68.5869 161.471 68.6858C161.589 68.7694 161.733 68.8093 161.877 68.7986H162.268C162.404 68.819 162.541 68.7734 162.639 68.6758C162.736 68.5781 162.781 68.4399 162.761 68.3034V66.899H163.517C163.784 66.9042 164.051 66.8906 164.317 66.8583C164.507 66.8332 164.692 66.7793 164.866 66.6984C165.158 66.5614 165.389 66.3215 165.516 66.0245ZM164.292 64.7957V64.9054L164.289 64.896C164.311 65.1162 164.281 65.3385 164.201 65.5449C164.139 65.6295 163.97 65.6734 163.698 65.6734H162.761V63.9055H163.536C163.726 63.892 163.917 63.911 164.101 63.9619C164.229 64.0246 164.292 64.3005 164.292 64.7957Z" fill="white"/>
            <path fill-rule="evenodd" clip-rule="evenodd" d="M171.282 67.4225C171.457 66.8844 171.541 66.3209 171.532 65.7549C171.541 65.1869 171.457 64.6212 171.282 64.081C171.129 63.6176 170.83 63.2169 170.429 62.94C169.948 62.6362 169.385 62.4884 168.817 62.5169C168.374 62.5033 167.933 62.5868 167.524 62.7614C167.19 62.9143 166.902 63.152 166.687 63.451C166.474 63.7558 166.324 64.0999 166.244 64.4635C166.069 65.3123 166.069 66.1881 166.244 67.037C166.327 67.402 166.478 67.7477 166.69 68.0557C166.906 68.3548 167.196 68.5925 167.531 68.7453C167.936 68.9208 168.376 69.0053 168.817 68.993C169.385 69.0214 169.948 68.8736 170.429 68.5698C170.829 68.289 171.128 67.8868 171.282 67.4225ZM170.054 65.7491C170.056 65.4601 170.042 65.1711 170.014 64.8835C170 64.6675 169.949 64.4555 169.864 64.2566C169.708 63.9243 169.358 63.755 168.817 63.755C168.277 63.755 167.934 63.9243 167.777 64.2566C167.519 65.2312 167.519 66.2567 167.777 67.2313C167.936 67.5699 168.282 67.7391 168.817 67.7391C169.358 67.7391 169.704 67.5699 169.864 67.2313C170.02 66.7539 170.085 66.2508 170.054 65.7491Z" fill="white"/>
            <path d="M177.294 68.3034C177.313 68.4397 177.267 68.577 177.17 68.6743C177.073 68.7716 176.937 68.8176 176.801 68.7986H176.529C176.412 68.8027 176.295 68.789 176.182 68.7579C176.084 68.7204 175.997 68.6564 175.933 68.5729C175.364 67.8332 174.569 66.7287 173.546 65.2596V68.3034C173.566 68.4415 173.519 68.5809 173.42 68.6786C173.32 68.7764 173.181 68.821 173.043 68.7986H172.687C172.543 68.8093 172.4 68.7694 172.281 68.6858C172.178 68.5869 172.126 68.4458 172.141 68.3034V63.1563C172.12 63.011 172.181 62.8661 172.3 62.7802C172.419 62.7168 172.553 62.6855 172.687 62.6893H172.928C173.003 62.6832 173.078 62.6832 173.153 62.6893C173.211 62.6985 173.266 62.7199 173.315 62.752C173.377 62.791 173.43 62.8422 173.471 62.9024C173.782 63.3057 174.587 64.4196 175.889 66.2439V63.1407C175.889 62.9494 175.939 62.8272 176.045 62.7645C176.165 62.7012 176.3 62.6699 176.435 62.6736H176.801C177.129 62.6736 177.294 62.8303 177.294 63.1407V68.3034Z" fill="white"/>
            <path d="M181.992 66.8802C182.024 67.3157 181.962 67.753 181.811 68.1623C181.699 68.3605 181.53 68.52 181.327 68.6199C181.109 68.7301 180.875 68.8022 180.633 68.8331C180.366 68.8653 180.097 68.881 179.827 68.8801C179.4 68.8801 178.947 68.8582 178.469 68.8174C178.313 68.8174 178.161 68.7739 178.028 68.692C177.943 68.623 177.896 68.5166 177.903 68.4068V68.0933C177.888 67.9478 177.921 67.8013 177.997 67.6764C178.097 67.5907 178.229 67.5509 178.359 67.5667C178.482 67.5667 178.67 67.5793 178.922 67.6043C179.165 67.6263 179.512 67.6388 179.962 67.6388C180.111 67.643 180.26 67.6346 180.408 67.6137C180.474 67.6059 180.53 67.5626 180.555 67.5009C180.585 67.3992 180.598 67.2933 180.593 67.1874V66.9273C180.6 66.8338 180.584 66.74 180.546 66.6546C180.493 66.583 180.419 66.5312 180.333 66.5072L179.178 66.0433C178.905 65.9391 178.646 65.8023 178.406 65.6358C178.248 65.5199 178.131 65.3562 178.072 65.1687C177.996 64.8891 177.964 64.5994 177.975 64.3099C177.969 64.0378 178.002 63.7663 178.075 63.5043C178.136 63.2855 178.267 63.0928 178.447 62.9557C178.68 62.7924 178.951 62.693 179.234 62.6673C179.527 62.6378 179.821 62.6262 180.115 62.6328H180.252C180.515 62.6328 180.877 62.6329 181.305 62.6767C181.462 62.6709 181.618 62.7124 181.751 62.7958C181.838 62.8669 181.884 62.9756 181.876 63.0874V63.382C181.892 63.5272 181.86 63.6734 181.786 63.7989C181.684 63.8848 181.552 63.9246 181.42 63.9086C181.37 63.9086 181.23 63.9086 181.005 63.8867C180.78 63.8647 180.59 63.8648 180.436 63.8648H179.768C179.599 63.8648 179.49 63.8961 179.456 63.9557C179.4 64.0591 179.376 64.177 179.387 64.2942V64.4039C179.38 64.4977 179.394 64.592 179.428 64.6797C179.482 64.7523 179.557 64.8061 179.643 64.8333L180.062 64.9995L180.402 65.1374C180.761 65.2806 181.111 65.4438 181.452 65.6264C181.639 65.7306 181.789 65.8905 181.883 66.0841C181.973 66.3436 182.014 66.6181 182.001 66.8928L181.992 66.8802Z" fill="white"/>
            <path d="M184.063 68.3034C184.083 68.4393 184.038 68.5768 183.941 68.6743C183.845 68.7718 183.708 68.8179 183.572 68.7986H183.179C183.035 68.8102 182.891 68.7715 182.773 68.6889C182.67 68.5883 182.619 68.4466 182.632 68.3034V63.1563C182.612 63.011 182.673 62.8661 182.792 62.7802C182.911 62.7168 183.044 62.6855 183.179 62.6893H183.572C183.885 62.6893 184.063 62.846 184.063 63.1563V68.3034Z" fill="white"/>
            <path fill-rule="evenodd" clip-rule="evenodd" d="M189.204 67.7172C189.281 67.4634 189.318 67.1989 189.313 66.9335H189.304C189.315 66.6224 189.259 66.3125 189.141 66.0245C189.03 65.7838 188.839 65.589 188.601 65.4728C188.741 65.3375 188.848 65.1711 188.913 64.9869C188.976 64.7744 189.005 64.5534 189.001 64.3318C189.009 64.0166 188.946 63.7037 188.817 63.4165C188.701 63.1653 188.498 62.9656 188.245 62.8554C188.09 62.7806 187.923 62.7339 187.751 62.7175C187.57 62.6893 187.211 62.6893 186.671 62.6893H185.487C185.351 62.6855 185.217 62.7168 185.097 62.7802C184.98 62.8673 184.92 63.0117 184.94 63.1563V68.3034C184.926 68.4461 184.977 68.5877 185.078 68.6889C185.197 68.7722 185.342 68.811 185.487 68.7986H187.236C187.468 68.8018 187.7 68.7871 187.93 68.7547C188.111 68.731 188.288 68.6803 188.454 68.6043C188.607 68.5351 188.744 68.436 188.857 68.3128C189.017 68.1436 189.135 67.9398 189.204 67.7172ZM187.627 64.4258C187.638 64.2851 187.613 64.1438 187.555 64.0152C187.529 63.9588 187.483 63.9141 187.427 63.8898C187.337 63.8709 187.246 63.8636 187.155 63.8679H186.368V65.2001H186.752C186.904 65.2043 187.057 65.1959 187.208 65.175C187.331 65.1632 187.443 65.1022 187.52 65.0057C187.603 64.8212 187.637 64.618 187.617 64.4164L187.627 64.4258ZM187.892 66.9335C187.903 66.7971 187.879 66.6602 187.823 66.5354C187.776 66.466 187.703 66.4185 187.62 66.4038C187.353 66.3526 187.08 66.3316 186.808 66.3411H186.368V67.6137H186.924C187.133 67.6204 187.342 67.6057 187.548 67.5699C187.656 67.5461 187.75 67.4808 187.811 67.388C187.881 67.2453 187.913 67.0862 187.901 66.9273L187.892 66.9335Z" fill="white"/>
            <path d="M191.437 68.3034C191.457 68.4393 191.412 68.5768 191.316 68.6743C191.219 68.7718 191.082 68.8179 190.947 68.7986H190.553C190.409 68.8102 190.266 68.7715 190.147 68.6889C190.046 68.5877 189.995 68.4461 190.01 68.3034V63.1563C189.989 63.011 190.05 62.8661 190.169 62.7802C190.287 62.7164 190.419 62.685 190.553 62.6893H190.947C191.259 62.6893 191.437 62.846 191.437 63.1563V68.3034Z" fill="white"/>
            <path d="M195.838 68.3347C195.838 68.6482 195.676 68.7986 195.351 68.7986H192.777C192.633 68.8093 192.489 68.7694 192.371 68.6858C192.268 68.5869 192.216 68.4458 192.23 68.3034V63.1563C192.21 63.011 192.271 62.8661 192.39 62.7802C192.509 62.7164 192.642 62.6851 192.777 62.6893H193.171C193.483 62.6893 193.664 62.846 193.664 63.1563V67.5949C194.289 67.5824 194.851 67.5761 195.351 67.5761C195.676 67.5761 195.838 67.7485 195.838 68.0933V68.3347Z" fill="white"/>
            <path d="M197.865 68.3034C197.885 68.4393 197.84 68.5768 197.744 68.6743C197.647 68.7718 197.51 68.8179 197.375 68.7986H196.978C196.834 68.8102 196.691 68.7715 196.572 68.6889C196.471 68.5877 196.42 68.4461 196.435 68.3034V63.1563C196.414 63.011 196.475 62.8661 196.594 62.7802C196.712 62.7168 196.844 62.6855 196.978 62.6893H197.375C197.687 62.6893 197.865 62.846 197.865 63.1563V68.3034Z" fill="white"/>
            <path d="M203.178 63.3977C203.178 63.7425 203.012 63.9149 202.688 63.9149C202.363 63.9149 201.922 63.9149 201.438 63.8961V68.3034C201.457 68.4397 201.411 68.577 201.314 68.6743C201.217 68.7716 201.081 68.8176 200.945 68.7986H200.551C200.407 68.8102 200.264 68.7715 200.145 68.6889C200.044 68.5877 199.993 68.4461 200.008 68.3034V63.8961C199.524 63.8961 199.105 63.9149 198.758 63.9149C198.552 63.9149 198.418 63.8647 198.355 63.7613C198.293 63.6506 198.262 63.5249 198.265 63.3977V63.1563C198.265 62.8429 198.43 62.6893 198.758 62.6893H202.688C203 62.6893 203.178 62.846 203.178 63.1563V63.3977Z" fill="white"/>
            <path d="M208.713 63.0748C208.712 63.1857 208.68 63.2941 208.622 63.3883L206.832 66.432V68.3128C206.852 68.4481 206.808 68.585 206.712 68.6823C206.616 68.7797 206.48 68.8262 206.345 68.808H205.948C205.804 68.8196 205.661 68.7809 205.542 68.6983C205.441 68.5971 205.391 68.4555 205.405 68.3128V66.5135L203.59 63.3977C203.533 63.3024 203.499 63.1951 203.49 63.0842C203.478 62.965 203.535 62.8494 203.637 62.7864C203.732 62.7301 203.839 62.6998 203.949 62.6987H204.443C204.672 62.6791 204.888 62.8041 204.986 63.0121L206.133 65.0152L207.313 63.0059C207.362 62.9124 207.432 62.8326 207.519 62.7739C207.624 62.7169 207.742 62.6908 207.86 62.6987H208.26C208.382 62.6898 208.503 62.7292 208.597 62.8084C208.674 62.8791 208.717 62.9795 208.716 63.0842L208.713 63.0748Z" fill="white"/>
            <path fill-rule="evenodd" clip-rule="evenodd" d="M205.738 40.5243C205.383 40.8775 205.183 41.3583 205.183 41.8598C205.183 42.3613 205.383 42.8421 205.738 43.1953C206.092 43.5484 206.573 43.7448 207.073 43.7406C208.108 43.7406 208.947 42.8985 208.947 41.8598C208.947 40.8211 208.108 39.979 207.073 39.979C206.573 39.9749 206.092 40.1712 205.738 40.5243ZM207.073 43.3613C206.247 43.3596 205.577 42.6888 205.574 41.8598C205.574 41.461 205.732 41.0787 206.013 40.797C206.294 40.5153 206.675 40.3575 207.073 40.3583C207.469 40.3583 207.85 40.5166 208.13 40.7983C208.41 41.08 208.567 41.4619 208.566 41.8598C208.566 42.6878 207.898 43.3596 207.073 43.3613Z" fill="white"/>
            <path fill-rule="evenodd" clip-rule="evenodd" d="M207.601 42.8096H207.779V42.8253C207.863 42.8253 207.872 42.7563 207.819 42.6905L207.332 42.1043C207.619 42.0855 207.751 41.8974 207.751 41.584C207.771 41.395 207.718 41.2055 207.604 41.0542C207.491 40.9414 207.432 40.9257 207.12 40.9257H206.573C206.514 40.9257 206.461 40.9288 206.461 41.0197V42.7218C206.461 42.8253 206.489 42.8253 206.573 42.8253H206.698C206.764 42.8253 206.795 42.8002 206.795 42.7218V42.1137H206.932L207.441 42.7406C207.479 42.7903 207.539 42.8165 207.601 42.8096ZM206.795 41.1921C206.971 41.1808 207.148 41.1871 207.323 41.2109V41.2141C207.388 41.2517 207.42 41.3363 207.42 41.5463C207.42 41.6874 207.413 41.7093 207.379 41.7532C207.345 41.7971 207.285 41.8191 207.157 41.8191H206.795V41.1921Z" fill="white"/>
        </g>
        <path id="logo-registeredtm" fill-rule="evenodd" clip-rule="evenodd" d="M87.6641 1.90279C87.6641 0.85191 88.5277 0 89.593 0C90.1043 0 90.5946 0.200572 90.9558 0.557505C91.3171 0.914438 91.5196 1.39843 91.5187 1.90279C91.5196 2.40716 91.3171 2.89115 90.9558 3.24808C90.5946 3.60502 90.1043 3.80559 89.593 3.80559C88.5277 3.80559 87.6641 2.95368 87.6641 1.90279ZM88.0613 1.90279C88.063 2.73655 88.7478 3.41202 89.593 3.41374C90.4369 3.4103 91.1198 2.73533 91.1215 1.90279C91.1215 1.07005 90.4372 0.394978 89.593 0.394978C89.187 0.394146 88.7974 0.552637 88.5101 0.835497C88.2228 1.11836 88.0613 1.50235 88.0613 1.90279ZM90.3175 2.85576H90.1332C90.0704 2.86404 90.0081 2.83753 89.9711 2.78679L89.45 2.14417H89.3102V2.75545C89.3102 2.83068 89.2784 2.85576 89.2116 2.85576H89.0814C88.9956 2.85576 88.967 2.85576 88.967 2.75545V1.04387C88.967 0.952964 89.021 0.949829 89.0814 0.949829H89.6407C89.9584 0.949829 90.0252 0.965503 90.1364 1.07835C90.2535 1.23056 90.307 1.42131 90.2857 1.61126C90.2857 1.92474 90.1555 2.11282 89.8599 2.13476L90.3557 2.72096C90.4129 2.78679 90.4033 2.85576 90.3175 2.85576ZM89.8504 1.2539C89.6716 1.22742 89.4905 1.22007 89.3102 1.23196V1.85891H89.6788C89.8091 1.85891 89.8726 1.83696 89.9076 1.79308C89.9425 1.74919 89.9489 1.72725 89.9489 1.58618C89.9489 1.37616 89.9298 1.28838 89.8504 1.2539Z" fill="white"/>
    </g>
</svg>