<?xml version="1.0" encoding="UTF-8"?>
<svg width="211px" height="55px" viewBox="0 0 211 55" version="1.1" xmlns="http://www.w3.org/2000/svg" xmlns:xlink="http://www.w3.org/1999/xlink">
    <title>18A612A8-B407-4667-98E0-6C45814FB6EB</title>
    <defs>
        <radialGradient cx="-28.52994%" cy="-30.8278357%" fx="-28.52994%" fy="-30.8278357%" r="165.500033%" gradientTransform="translate(-0.285299,-0.308278),scale(0.879995,1.000000),translate(0.285299,0.308278)" id="radialGradient1">
            <stop stop-color="var(--wsPartnerColor)" offset="0%"></stop>
            <stop stop-color="var(--wsPartnerColor)" offset="100%"></stop>
        </radialGradient>
        <radialGradient cx="-15.3531647%" cy="18.7130756%" fx="-15.3531647%" fy="18.7130756%" r="193.28266%" gradientTransform="translate(-0.153532,0.187131),scale(1.000000,0.597426),translate(0.153532,-0.187131)" id="radialGradient2">
            <stop stop-color="var(--wsTertiaryColor)" offset="0%"></stop>
            <stop stop-color="var(--wsSecondaryColor)" offset="44%"></stop>
            <stop stop-color="var(--wsPrimaryColor)" offset="100%"></stop>
        </radialGradient>
    </defs>
    <g id="UI-KIt" stroke="none" stroke-width="1" fill="none" fill-rule="evenodd">
        <g id="Icons-&amp;-Other-Branded-Assets" transform="translate(-150.000000, -377.000000)">
            <g id="logo_blue" transform="translate(150.000000, 377.000000)">
                <path d="M21.1262716,34.9819931 C20.9285077,35.0020945 20.7329934,35.0397281 20.5421116,35.0944352 C19.8764514,35.2542177 19.1952378,35.3430175 18.5102509,35.3592988 C18.1627453,35.364395 17.8175944,35.3024246 17.4943206,35.1768927 C16.9863554,34.9470111 16.9253996,34.3048416 16.9431784,33.4802661 L21.0272183,33.4802661 C21.6113783,33.4802661 21.7282103,33.3828162 21.7282103,32.4807806 C21.7282103,31.4238246 21.6291571,30.3893571 21.1110326,29.6472391 C20.6259259,28.9725864 19.7877833,28.6277639 18.3984986,28.6277639 C16.9253996,28.6277639 16.0059826,29.0050697 15.5030971,29.7147044 C15.0002116,30.4243391 14.8325831,31.4088323 14.8325831,32.8580863 C14.8325831,34.4897464 15.066247,35.5616947 15.7697788,36.2013654 C16.3234608,36.7011082 17.2276389,36.973468 18.4823128,36.973468 C19.3334648,36.9725767 20.1830447,36.9015312 21.0221387,36.7610773 C21.5301039,36.6786197 21.6240774,36.4162548 21.6240774,36.0364503 C21.6301125,35.8508548 21.6182065,35.6651149 21.5885199,35.4817358 C21.527564,35.2718439 21.3777143,34.9819931 21.1262716,34.9819931 Z M16.9431784,31.883588 C16.9431784,30.6817066 17.1971609,30.2719176 18.3984986,30.2719176 C19.5363406,30.2719176 19.6861903,30.6991976 19.6861903,31.7186729 L19.6861903,32.0335108 L16.9431784,32.0335108 L16.9431784,31.883588 Z M10.9618884,28.63526 C10.1756643,28.653317 9.40343331,28.8436765 8.70144342,29.1924732 L8.70144342,26.1315488 C8.70144342,25.8192096 8.56683265,25.4244128 8.04870817,25.4244128 L7.28676041,25.4244128 C6.8041935,25.4244128 6.55275074,25.5718369 6.55275074,26.1315488 L6.55275074,36.0964194 C6.55275074,36.4912162 6.68482168,36.7535811 7.15468947,36.7535811 L8.04108869,36.7535811 C8.54905387,36.7535811 8.69382394,36.4737252 8.69382394,36.003967 L8.69382394,32.2334079 C8.69382394,31.054015 8.94780653,30.6492234 10.1237459,30.6492234 C11.2412693,30.6492234 11.3936588,31.0690073 11.3936588,32.0709915 L11.3936588,32.380832 L11.3936588,32.380832 C11.3936588,32.538251 11.3936588,32.7181584 11.3936588,32.9205542 L11.3936588,36.0064657 C11.3936588,36.5062085 11.5587475,36.7560799 11.9955976,36.7560799 L12.8819968,36.7560799 C13.389962,36.7560799 13.5347689,36.4762239 13.5347689,36.0064657 L13.5347689,30.9590639 C13.5398117,29.8871156 13.0216872,28.6202678 10.9618884,28.6202678 L10.9618884,28.63526 Z M4.82566915,30.5942516 L3.01223348,30.5942516 L3.01223348,33.9050474 C3.01223348,34.67715 3.04779104,34.9744969 3.11382651,35.1069288 C3.16698024,35.1937141 3.26506773,35.2438938 3.3678091,35.2368619 C3.83767688,35.2368619 4.35580136,34.9869905 4.74185489,34.9869905 C4.86652997,34.9799446 4.98814257,35.0266663 5.07497099,35.1149686 C5.16179938,35.2032709 5.2052335,35.3243978 5.1939439,35.4467538 L5.1939439,36.038949 C5.1939439,36.6486352 5.02631539,36.8135503 4.49041213,36.8635245 C4.0062803,36.9163244 3.51964471,36.9438487 3.03255208,36.9459821 C1.25467398,36.9459821 0.873700098,36.3038127 0.873700098,34.344821 L0.873700098,30.5967504 L0.403832313,30.5967504 C0.0838142536,30.5967504 1.36424205e-12,30.381861 1.36424205e-12,30.119496 L1.36424205e-12,29.4098613 C1.36424205e-12,28.9975735 0.167628507,28.8676404 0.452089004,28.8676404 L0.871160272,28.8676404 L0.871160272,27.5333273 C0.871160272,26.9736154 1.10482425,26.8087003 1.59247082,26.8087003 L2.35441858,26.8087003 C2.54491347,26.8052818 2.72762585,26.882976 2.85561824,27.0218241 C2.98361063,27.1606718 3.0444083,27.3471403 3.02239278,27.5333273 L3.02239278,28.8676404 L4.66566012,28.8676404 C5.03393487,28.8676404 5.23458111,28.9176147 5.23458111,29.394869 L5.23458111,29.9695732 C5.22442181,30.5267864 5.12282877,30.5942516 4.82566915,30.5942516 Z" id="logo-the" fill="var(--wsSecondaryColor)" fill-rule="nonzero"></path>
                <path d="M44.0482,49.6094636 C44.1217333,49.6613421 44.18249,49.7288004 44.2259878,49.806862 L45.5085999,51.945761 L46.7226366,52.6329073 C46.7949249,52.6623799 46.8493686,52.7229894 46.8702094,52.797192 C46.8910502,52.8713948 46.8759608,52.9509061 46.8293093,53.0127118 L46.6921587,53.2625832 C46.5829462,53.4449893 46.483893,53.4974623 46.2883264,53.3875188 L45.1174667,52.722861 L42.458269,52.6928764 C42.3901306,52.6962394 42.3221732,52.683382 42.2601626,52.6553957 C42.2083837,52.6211596 42.1732894,52.5673925 42.163189,52.5068257 C42.1530889,52.4462591 42.168881,52.3842785 42.2068262,52.3355603 L42.3846141,52.0357147 C42.4392041,51.9101246 42.5720461,51.8355894 42.7097118,51.8533086 L44.5333067,51.8882906 L43.5935712,50.3315919 C43.5101778,50.2228991 43.5101778,50.0729738 43.5935712,49.964281 L43.7358014,49.7144096 C43.7581608,49.6554624 43.8062196,49.6094923 43.8667416,49.5891608 C43.9272637,49.5688295 43.9938642,49.5762812 44.0482,49.6094636 Z M46.3797601,45.7714392 L49.8288437,47.353125 C50.0345696,47.4430787 50.0117111,47.5905029 49.9101181,47.7629141 L49.7755073,47.9952945 C49.7443528,48.0647645 49.6827801,48.1165286 49.6081732,48.1359721 C49.5335661,48.1554156 49.4540202,48.1404288 49.3919936,48.095243 L47.009637,46.9358398 C47.1086902,47.0507807 47.2509204,47.2057009 47.3601329,47.3281379 C47.7868237,47.8278807 48.249072,48.3276234 48.5208334,48.6699472 C48.6424986,48.7813759 48.6609949,48.9644134 48.5640104,49.0972273 L48.4776563,49.2421527 C48.4122489,49.3919321 48.2414459,49.4678203 48.0839833,49.4170626 C47.6471333,49.3545948 46.9613803,49.2271604 46.3061052,49.1097208 C46.1410165,49.082235 45.9403703,49.0272633 45.79814,49.0022761 L48.0103284,50.4515301 C48.1627179,50.5539774 48.2109746,50.6639208 48.1144612,50.8263372 L47.9773106,51.0612163 C47.8757176,51.2336276 47.7563458,51.3110877 47.5582394,51.186152 L44.4469527,49.0347594 C44.2539259,48.9048263 44.3021826,48.7698958 44.3809172,48.6349652 L44.558705,48.3301221 C44.6133727,48.1959657 44.7575411,48.1192699 44.9015815,48.147716 C45.5416176,48.2376697 46.6642206,48.4525591 47.5252216,48.5999832 C46.9639201,47.9428215 46.2121316,47.1007549 45.813379,46.6010122 C45.7214899,46.4905488 45.7214899,46.3316711 45.813379,46.2212077 L45.9937066,45.9138659 C46.0724412,45.7814341 46.1664148,45.6639945 46.3797601,45.7714392 Z M48.2211339,42.5031216 L48.4065412,42.6080676 C48.6097273,42.7230084 48.6605238,42.7954711 48.5538511,42.9728798 C48.4471784,43.1502884 48.3455854,43.2627306 48.175417,43.5550801 C48.0471083,43.7562013 47.9527596,43.9764414 47.8960362,44.2072444 C47.8528592,44.6170334 48.292249,44.8818971 48.9424444,45.249208 C49.5926399,45.616519 50.0955254,45.8613929 50.46634,45.4291154 C50.5685786,45.29929 50.6611022,45.1623337 50.743181,45.0193264 C50.9158891,44.7244781 50.9463671,44.6070386 51.0682787,44.4021441 C51.1901903,44.1972495 51.2587656,44.2297328 51.4644915,44.3471724 L51.6498988,44.4521183 C51.7768901,44.5220823 51.7972087,44.6145347 51.6803767,44.8519125 C51.5559253,45.1017839 51.48735,45.2442106 51.3349604,45.4990794 C51.2106133,45.7216763 51.0596954,45.9288704 50.8854112,46.1162617 C50.2402955,46.7809196 49.4605689,46.5685289 48.4852758,46.0138145 C46.8267695,45.0717994 46.81915,44.3771569 47.4541065,43.2952138 C47.606496,43.0453425 47.7080891,42.9079132 47.855399,42.6780315 C48.0027089,42.4481499 48.1093816,42.4281602 48.2211339,42.5031216 Z M49.605339,40.2317907 L53.5903258,40.901446 C53.6249042,40.9038615 53.6586138,40.9132157 53.689379,40.9289319 C53.8443084,41.006392 53.8011313,41.1338264 53.747795,41.2287775 L53.5700072,41.5336206 C53.5116427,41.6666691 53.3576038,41.7314603 53.2195112,41.6810447 L52.3712094,41.5261245 C52.2365986,41.7759959 52.1324657,41.9459084 51.9876957,42.1907824 C51.8429256,42.4356563 51.7337131,42.6280573 51.6092616,42.8254557 L52.142625,43.425147 C52.2670765,43.5600775 52.3254925,43.6550286 52.2137402,43.8424322 L52.0664303,44.0923035 C51.9546779,44.2822058 51.8861026,44.2797071 51.8124477,44.2322315 C51.7556531,44.1931246 51.7058697,44.1449917 51.6651378,44.0898048 L49.094834,41.1188341 C48.9475508,41.0040922 48.9194443,40.7950468 49.0313384,40.6465772 L49.1659491,40.4191943 C49.2364577,40.2497755 49.4314516,40.166609 49.605339,40.2317907 Z M50.072667,41.093847 L51.1419336,42.2957283 C51.2181284,42.1657952 51.3019427,42.0133737 51.3959162,41.853456 C51.4898898,41.6935383 51.5711642,41.5661039 51.6651378,41.4061862 L50.072667,41.093847 Z" id="logo-ymca" fill="var(--wsPartnerColor)" fill-rule="nonzero"></path>
                <path d="M65.7383129,0.0124924408 L44.6856963,0.0124924408 C43.937556,0.0124924408 43.2200946,0.305051063 42.6913176,0.82573732 C42.1625408,1.34642358 41.8659828,2.05253464 41.8664896,2.78856459 C41.8573081,3.24901687 41.973032,3.70355685 42.2017466,4.10538676 L52.769962,22.1111183 C53.2720516,22.9723502 54.2041052,23.5035064 55.2132745,23.5035064 C56.2224438,23.5035064 57.1544975,22.9723502 57.656587,22.1111183 L68.2222626,4.10538676 C68.4517476,3.70375482 68.5683438,3.24923149 68.5600594,2.78856459 C68.5604721,2.05210149 68.2636605,1.34561123 67.7343341,0.824852963 C67.2050075,0.304094698 66.4868933,0.0118297893 65.7383129,0.0124924408 Z" id="logo-triangle" fill="url(#radialGradient1)"></path>
                <path d="M51.3857569,25.7267572 L38.3259723,3.45821989 L38.097388,3.06842053 C36.9227231,1.14167114 34.7932041,-0.0229853155 32.5097711,0.012493569 L21.7282103,0.012493569 C20.5280745,0.0152490239 19.5566559,0.973178855 19.5566592,2.15389129 C19.5499703,2.50805206 19.637527,2.85777804 19.8106418,3.16836909 L32.9643999,25.5818318 C34.2083741,27.6681276 34.2286973,30.2483347 33.0177363,32.3533462 L21.5885199,51.8433137 C21.4154051,52.1539048 21.3278484,52.5036308 21.3345373,52.8577915 C21.3345373,54.0404527 22.3090481,54.9991892 23.511168,54.9991892 L34.5695699,54.9991892 C36.8531347,55.035185 38.9828985,53.8703945 40.1571868,51.9432623 L40.3857711,51.5534629 L51.3832171,32.8131095 L51.5864032,32.4657883 C52.1436709,31.4857145 52.4267493,30.3777648 52.4067669,29.2549411 C52.4115525,28.0863413 52.1022515,26.9372638 51.5102084,25.9241556 L51.3857569,25.7267572 Z" id="logo-chevron" fill="url(#radialGradient2)"></path>
                <path d="M83.3422109,32.4343302 C83.3596874,32.5463199 83.3234173,32.6600049 83.2443291,32.741131 C83.1652408,32.8222572 83.0525821,32.8613384 82.9402981,32.8465992 L82.4659909,32.8465992 L82.0690708,32.8465992 L81.5298585,32.8465992 L81.5298585,33.7735799 C82.0041656,33.7635855 82.4285456,33.7585883 82.8029986,33.7585883 C83.0651157,33.7585883 83.1974224,33.8985099 83.1974224,34.1758546 L83.1974224,34.2708014 C83.2006033,34.373377 83.1746336,34.4747498 83.1225318,34.5631376 C83.0443354,34.6565016 82.9234951,34.7028024 82.8029986,34.685569 L82.226341,34.685569 L81.5298585,34.6705774 L81.5298585,36.3746228 C81.5458751,36.483667 81.509609,36.5938893 81.4319904,36.6720694 C81.3543718,36.7502495 81.2444797,36.787243 81.1354347,36.7719003 L80.8208942,36.7719003 C80.7052779,36.7797127 80.5905468,36.7470291 80.4963683,36.6794521 C80.4139423,36.6006304 80.3724863,36.4881375 80.3840324,36.3746228 L80.3840324,32.2319436 C80.3674891,32.1160829 80.4165253,32.0005997 80.5113464,31.9321115 C80.6066634,31.8821594 80.7133804,31.8580403 80.8208942,31.8621507 L82.9402981,31.8621507 C83.2099042,31.8621507 83.3422109,31.9845821 83.3422109,32.2319436 L83.3422109,32.4243358 L83.3422109,32.4343302 Z M86.6823315,34.3132776 C86.6823315,34.0634176 86.6823315,33.8335463 86.6523753,33.6186667 C86.6416535,33.4461324 86.6002293,33.2769018 86.530054,33.1189467 C86.4077327,32.854095 86.1281411,32.7216692 85.6937757,32.7216692 C85.2594102,32.7216692 84.9873077,32.854095 84.86249,33.1189467 C84.7363169,33.502021 84.6846263,33.9057404 84.7102125,34.3082804 C84.6849083,34.7083511 84.7366037,35.1095633 84.86249,35.4901183 C84.9889719,35.7599672 85.2660671,35.8948916 85.6937757,35.8948916 C86.1256448,35.8948916 86.4052363,35.7599672 86.530054,35.4901183 C86.656614,35.1097172 86.7083264,34.7083733 86.6823315,34.3082804 L86.6823315,34.3132776 Z M87.8631066,34.3132776 C87.8715001,34.7642449 87.8048524,35.2134664 87.6658947,35.6425329 C87.5408676,36.0117235 87.3023087,36.3318376 86.9843903,36.5570206 C86.5990526,36.7995638 86.148394,36.9173465 85.6937757,36.8943317 C85.3415123,36.9038856 84.9913969,36.836528 84.6677745,36.6969423 C84.3997161,36.5757109 84.1681569,36.3861611 83.9962555,36.1472502 C83.8245672,35.902981 83.7032131,35.6269279 83.639277,35.3352051 C83.5642345,34.9998469 83.5282139,34.6569239 83.5319338,34.3132776 C83.5281733,33.9672855 83.5633438,33.6219696 83.6367806,33.2838543 C83.7003148,32.9935399 83.8217312,32.7190447 83.9937591,32.4768064 C84.1648714,32.2391254 84.3944778,32.0497662 84.6602854,31.9271143 C84.9865929,31.7879295 85.3392367,31.7214296 85.6937757,31.7322235 C86.148394,31.7092086 86.5990526,31.8269914 86.9843903,32.0695345 C87.3031804,32.291647 87.5421197,32.6105196 87.6658947,32.979025 C87.8048126,33.4098199 87.8714524,33.8606769 87.8631066,34.3132776 L87.8631066,34.3132776 Z M90.7189347,33.5487059 L90.7189347,33.5487059 C90.7189347,33.1589243 90.6690076,32.941546 90.5666571,32.8940726 C90.410866,32.8504623 90.2486666,32.8343969 90.0873573,32.8465992 L90.0524084,32.8465992 C89.8027731,32.8465992 89.6180429,32.8465992 89.4957216,32.8465992 L89.4957216,34.0559218 L90.2446276,34.0559218 C90.354125,34.0613446 90.4637673,34.0486822 90.5691535,34.0184428 C90.6297192,33.9957299 90.6759978,33.945704 90.6939712,33.8835183 C90.7182067,33.7736535 90.7282742,33.6611327 90.7239274,33.5487059 L90.7189347,33.5487059 Z M92.1168925,36.479564 C92.1168925,36.6594633 92.0045566,36.7519115 91.7823812,36.7519115 L91.343023,36.7519115 C91.247039,36.7542825 91.1514326,36.7390395 91.0609351,36.7069367 C90.9700502,36.6668145 90.8903479,36.605054 90.8287742,36.5270374 L89.6130502,35.0278773 L89.5082034,35.0278773 L89.5082034,36.3446396 C89.52422,36.4536838 89.4879538,36.5639061 89.4103353,36.6420862 C89.3327167,36.7202663 89.2228246,36.7572598 89.1137796,36.7419171 L88.8017354,36.7419171 C88.6854109,36.7490813 88.5701049,36.7164846 88.4747131,36.6494689 C88.394148,36.5695719 88.3538061,36.4576142 88.3648736,36.3446396 L88.3648736,32.2319436 C88.3483463,32.1166455 88.3962589,32.0015519 88.4896913,31.9321115 C88.5859098,31.8821708 88.6934259,31.8580656 88.8017354,31.8621507 L90.1572552,31.8621507 C90.438296,31.851776 90.7196177,31.8727265 90.9960299,31.9246157 C91.1762783,31.978771 91.3390378,32.0796175 91.4678407,32.216952 C91.6177707,32.3701567 91.7238182,32.5608689 91.7748921,32.7691426 C91.8434065,33.0384698 91.8753146,33.3158159 91.8697535,33.5936807 C91.8697535,34.360751 91.5726875,34.8179948 90.9735627,34.9654123 L91.9995639,36.1622418 C92.0773358,36.2493729 92.1192564,36.3627497 92.1168925,36.479564 L92.1168925,36.479564 Z M97.8285487,32.1769744 C97.8277424,32.2653264 97.8026996,32.3517586 97.7561544,32.4268344 L96.3282404,34.8529753 L96.3282404,36.3521354 C96.3440729,36.4606863 96.3081108,36.5703842 96.231102,36.6484442 C96.1540931,36.7265043 96.0449579,36.7638844 95.9363129,36.7494129 L95.611787,36.7494129 C95.4973056,36.757363 95.3835826,36.7255978 95.2897574,36.6594633 C95.2069242,36.5798678 95.1654641,36.4664416 95.1774215,36.3521354 L95.1774215,34.9179389 L93.7270403,32.4343302 C93.6819746,32.3582926 93.6554612,32.2726887 93.6496534,32.1844702 C93.6345705,32.0856938 93.679735,31.9874217 93.7644856,31.9346101 C93.8400508,31.8898931 93.9263383,31.8665745 94.0141209,31.8671479 L94.4085447,31.8671479 C94.5920735,31.847697 94.7673082,31.9484972 94.8429102,32.1170079 L95.7615682,33.7136135 L96.7026934,32.1120107 C96.7412361,32.0375133 96.7978973,31.973927 96.8674527,31.9271143 C96.9512459,31.883552 97.045321,31.8636834 97.1395552,31.8696465 L97.4615847,31.8696465 C97.5589708,31.8626701 97.6553606,31.8930423 97.7311909,31.9545989 C97.7920795,32.0112271 97.8257215,32.0913123 97.8235559,32.1744758 L97.8285487,32.1769744 Z M101.178655,34.3132776 C101.179886,34.0813339 101.169054,33.8494832 101.146202,33.6186667 C101.13737,33.4461257 101.096746,33.2767055 101.026377,33.1189467 C100.901559,32.854095 100.624464,32.7216692 100.190099,32.7216692 C99.7557333,32.7216692 99.4836308,32.854095 99.3588132,33.1189467 C99.231492,33.5017873 99.1789458,33.9055696 99.2040393,34.3082804 C99.1792259,34.7085226 99.2317771,35.1097982 99.3588132,35.4901183 C99.4852951,35.7599672 99.7623903,35.8948916 100.190099,35.8948916 C100.621968,35.8948916 100.901559,35.7599672 101.026377,35.4901183 C101.152937,35.1097172 101.20465,34.7083733 101.178655,34.3082804 L101.178655,34.3132776 Z M102.35943,34.3132776 C102.367064,34.764388 102.299571,35.2136206 102.159721,35.6425329 C102.036411,36.0126238 101.797487,36.3332279 101.478217,36.5570206 C101.09398,36.7999723 100.643979,36.9178111 100.190099,36.8943317 C99.8370308,36.9038496 99.4861099,36.8365008 99.1616013,36.6969423 C98.8946389,36.5750452 98.664046,36.3855821 98.4925786,36.1472502 C98.3208903,35.902981 98.1995362,35.6269279 98.1356001,35.3352051 C98.0605577,34.9998469 98.0245371,34.6569239 98.0282569,34.3132776 C98.0244965,33.9672855 98.0596669,33.6219696 98.1331037,33.2838543 C98.196906,32.9940636 98.3173815,32.7197776 98.4875859,32.4768064 C98.6596393,32.2390257 98.8900723,32.0496941 99.1566086,31.9271143 C99.482916,31.7879295 99.8355599,31.7214296 100.190099,31.7322235 C100.643979,31.708744 101.09398,31.8265829 101.478217,32.0695345 C101.798398,32.2902006 102.037723,32.6095877 102.159721,32.979025 C102.299531,33.4096666 102.367016,33.8605345 102.35943,34.3132776 L102.35943,34.3132776 Z M106.927756,33.7311037 C106.927756,34.2183308 106.927756,34.5781292 106.910282,34.8080004 C106.904123,35.0332694 106.882436,35.2578443 106.845376,35.4801239 C106.803304,35.7844129 106.681904,36.0722441 106.493391,36.3146564 C106.323983,36.5143123 106.098834,36.6587466 105.846835,36.7294241 C105.52822,36.8170987 105.198639,36.8583334 104.868265,36.8518555 C104.536264,36.8580196 104.20508,36.8167946 103.884702,36.7294241 C103.628542,36.6576564 103.399818,36.5105492 103.228161,36.3071606 C103.042431,36.0633864 102.922118,35.7760956 102.878671,35.4726281 C102.853708,35.3227121 102.833737,35.1777933 102.821255,35.0328745 C102.808773,34.8879557 102.803781,34.7305438 102.801284,34.5631376 C102.798788,34.3957314 102.801284,34.1208854 102.801284,33.7361009 L102.801284,32.2369408 C102.784741,32.1210801 102.833777,32.0055969 102.928598,31.9371087 C103.024035,31.8874822 103.130664,31.8633829 103.238146,31.8671479 L103.542701,31.8671479 C103.655213,31.8565498 103.767133,31.8926857 103.852249,31.9670919 C103.916898,32.0416127 103.950026,32.1383959 103.944614,32.2369408 L103.944614,34.3157762 C103.944614,34.585625 103.944614,34.7955074 103.959592,34.9429249 C103.965787,35.0655832 103.981647,35.1875606 104.007023,35.3077205 C104.027555,35.393449 104.055968,35.4770922 104.091899,35.5575805 C104.141771,35.6634492 104.23154,35.7452124 104.341534,35.7849532 C104.514586,35.8412577 104.696563,35.8649784 104.87825,35.854914 C105.062408,35.8653316 105.246905,35.8416134 105.422455,35.7849532 C105.527103,35.7423784 105.611205,35.6608866 105.657112,35.5575805 C105.71742,35.4281573 105.756207,35.2897459 105.771945,35.1478101 C105.796857,34.8720406 105.806857,34.5951248 105.801901,34.3182748 L105.801901,32.2319436 C105.785248,32.1149211 105.836572,31.9986115 105.934208,31.9321115 C106.030729,31.8830078 106.138025,31.8589518 106.246252,31.8621507 L106.560792,31.8621507 C106.810428,31.8621507 106.945231,31.9845821 106.945231,32.2319436 L106.945231,33.7311037 L106.927756,33.7311037 Z M111.089177,32.4343302 C111.089177,32.7091762 110.959367,32.8465992 110.697249,32.8465992 C110.435132,32.8465992 110.088139,32.8465992 109.698708,32.8316076 L109.698708,36.3446396 C109.714725,36.4536838 109.678459,36.5639061 109.60084,36.6420862 C109.523222,36.7202663 109.413329,36.7572598 109.304284,36.7419171 L108.99224,36.7419171 C108.876922,36.7504532 108.762219,36.7186606 108.667714,36.6519675 C108.587654,36.5708476 108.548244,36.4580165 108.560371,36.3446396 L108.560371,32.8316076 C108.17094,32.8316076 107.838925,32.8465992 107.56183,32.8465992 C107.395406,32.8465992 107.288063,32.8066216 107.2398,32.7266664 C107.190245,32.6373512 107.165263,32.5364711 107.167406,32.4343302 L107.167406,32.2319436 C107.167406,31.9820835 107.299713,31.8621507 107.56183,31.8621507 L110.702242,31.8621507 C110.964359,31.8621507 111.09417,31.9845821 111.09417,32.2319436 L111.09417,32.4243358 L111.089177,32.4343302 Z M115.268072,36.3446396 C115.282478,36.454703 115.244588,36.5651712 115.165678,36.6431706 C115.086769,36.72117 114.975935,36.7577101 114.866159,36.7419171 L114.559108,36.7419171 C114.444627,36.7498672 114.330904,36.718102 114.237078,36.6519675 C114.154245,36.572372 114.112785,36.4589458 114.124742,36.3446396 L114.124742,34.5956194 C113.964976,34.5956194 113.69537,34.5956194 113.320917,34.5956194 L112.771719,34.5956194 L112.522084,34.5956194 L112.522084,36.3446396 C112.5381,36.4536838 112.501834,36.5639061 112.424216,36.6420862 C112.346597,36.7202663 112.236705,36.7572598 112.12766,36.7419171 L111.813119,36.7419171 C111.697503,36.7497295 111.582772,36.7170459 111.488593,36.6494689 C111.406168,36.5706472 111.364712,36.4581543 111.376258,36.3446396 L111.376258,32.2319436 C111.359714,32.1160829 111.40875,32.0005997 111.503572,31.9321115 C111.598889,31.8821594 111.705606,31.8580403 111.813119,31.8621507 L112.12766,31.8621507 C112.377295,31.8621507 112.522084,31.9845821 112.522084,32.2319436 L112.522084,33.6761345 C112.68185,33.6761345 112.94896,33.6761345 113.320917,33.6761345 C113.692873,33.6761345 113.964976,33.6761345 114.124742,33.6761345 L114.124742,32.2319436 C114.108215,32.1166455 114.156128,32.0015519 114.24956,31.9321115 C114.344877,31.8821594 114.451594,31.8580403 114.559108,31.8621507 L114.866159,31.8621507 C115.133269,31.8621507 115.268072,31.9845821 115.268072,32.2319436 L115.268072,36.3346452 L115.268072,36.3446396 Z M120.480458,34.1383756 C120.487774,33.8706379 120.462627,33.6030001 120.405567,33.3413221 C120.367089,33.1608398 120.241824,33.0111354 120.071056,32.941546 C119.827885,32.8715689 119.574885,32.8420257 119.32215,32.854095 C119.089989,32.854095 118.947697,32.854095 118.892777,32.854095 L118.892777,35.7399783 C118.947697,35.7399783 119.089989,35.7399783 119.32215,35.7399783 C119.581934,35.7536391 119.841958,35.7180338 120.08853,35.6350371 C120.251018,35.5609015 120.369324,35.4147359 120.408064,35.2402583 C120.473424,34.9493516 120.501111,34.6512357 120.490443,34.3532552 L120.490443,34.1208854 L120.480458,34.1383756 Z M121.648751,34.3557538 C121.652613,34.7052677 121.621672,35.0542971 121.556386,35.3976701 C121.49883,35.6910471 121.368329,35.9651737 121.17694,36.1947236 C120.959283,36.4352934 120.667592,36.5962197 120.348151,36.6519675 C120.190064,36.686175 120.02998,36.7103761 119.868851,36.7244269 C119.716574,36.7244269 119.576778,36.7419171 119.45196,36.7419171 L118.173827,36.7419171 C118.058321,36.7487072 117.943924,36.7161189 117.849301,36.6494689 C117.766876,36.5706472 117.72542,36.4581543 117.736966,36.3446396 L117.736966,32.2319436 C117.720422,32.1160829 117.769458,32.0005997 117.86428,31.9321115 C117.959716,31.882485 118.066346,31.8583857 118.173827,31.8621507 L119.45196,31.8621507 C119.787465,31.8555573 120.122588,31.8882612 120.450502,31.9595961 C120.699069,32.0156566 120.927734,32.1382967 121.112035,32.3143974 C121.309261,32.5243624 121.447117,32.7830733 121.511452,33.0639775 C121.610836,33.4811892 121.656143,33.9094714 121.646255,34.3382636 L121.648751,34.3557538 Z M125.236011,36.3696256 C125.236011,36.6194856 125.103704,36.7419171 124.841587,36.7419171 L122.572402,36.7419171 C122.456077,36.7490813 122.340771,36.7164846 122.245379,36.6494689 C122.164814,36.5695719 122.124472,36.4576142 122.13554,36.3446396 L122.13554,32.2319436 C122.119013,32.1166455 122.166925,32.0015519 122.260358,31.9321115 C122.356576,31.8821708 122.464092,31.8580656 122.572402,31.8621507 L124.83909,31.8621507 C125.101208,31.8621507 125.233514,31.9845821 125.233514,32.2319436 L125.233514,32.4243358 C125.236156,32.5268511 125.210224,32.6280775 125.158624,32.716672 C125.079892,32.8091116 124.959136,32.8544357 124.83909,32.8366048 L124.379761,32.8366048 L123.972856,32.8366048 L123.563454,32.8366048 L123.27887,32.8366048 L123.27887,33.7710813 L123.815586,33.7585883 L124.20252,33.7585883 L124.669338,33.7585883 C124.782536,33.7447678 124.895672,33.7847739 124.975074,33.8666999 C125.054476,33.9486259 125.090989,34.0630271 125.073748,34.1758546 L125.073748,34.2708014 C125.091195,34.3834536 125.054651,34.4977554 124.975103,34.5793409 C124.895555,34.6609265 124.782281,34.7002798 124.669338,34.685569 L124.032768,34.685569 L123.283862,34.6705774 L123.283862,35.817435 L123.897965,35.817435 L124.344813,35.817435 L124.844083,35.817435 C124.964129,35.7996041 125.084885,35.8449282 125.163616,35.9373678 C125.215718,36.0257556 125.241688,36.1271284 125.238507,36.229704 L125.238507,36.4220962 L125.236011,36.3696256 Z M129.944133,32.1270024 C129.938007,32.2127579 129.918638,32.297045 129.886717,32.3768624 L128.388905,36.3871158 C128.354425,36.4925852 128.29439,36.5878686 128.21416,36.6644605 C128.115996,36.7311885 127.997877,36.7620682 127.879649,36.7519115 L127.540145,36.7519115 C127.424826,36.759749 127.310077,36.7299402 127.213122,36.6669591 C127.129735,36.5905839 127.067039,36.4943073 127.030889,36.3871158 L125.458186,32.3118988 C125.443314,32.2665671 125.434091,32.2195711 125.430726,32.1719772 C125.422081,32.0815168 125.463187,31.9934908 125.538069,31.9421059 C125.609566,31.9015797 125.690571,31.8808791 125.772727,31.8821395 L126.217077,31.8821395 C126.413481,31.8718924 126.591186,31.9980524 126.64645,32.1869688 L127.724875,35.1453115 L128.765854,32.2319436 C128.798738,32.1378309 128.852509,32.0524037 128.923124,31.9820835 C129.01014,31.9179451 129.117526,31.8877434 129.225183,31.8971311 L129.582162,31.8971311 C129.685363,31.8844406 129.789853,31.906412 129.879228,31.9595961 C129.927098,32.0116392 129.950684,32.0815529 129.944133,32.1519884 L129.944133,32.1270024 Z M133.36164,36.3696256 C133.36164,36.6194856 133.229334,36.7419171 132.967217,36.7419171 L130.703024,36.7419171 C130.5867,36.7490813 130.471394,36.7164846 130.376002,36.6494689 C130.293576,36.5706472 130.25212,36.4581543 130.263666,36.3446396 L130.263666,32.2319436 C130.247123,32.1160829 130.296159,32.0005997 130.39098,31.9321115 C130.487199,31.8821708 130.594715,31.8580656 130.703024,31.8621507 L132.967217,31.8621507 C133.229334,31.8621507 133.36164,31.9845821 133.36164,32.2319436 L133.36164,32.4243358 C133.364282,32.5268511 133.33835,32.6280775 133.28675,32.716672 C133.236823,32.7966272 133.131976,32.8366048 132.967217,32.8366048 L132.507888,32.8366048 L132.103478,32.8366048 L131.694076,32.8366048 L131.409492,32.8366048 L131.409492,33.7710813 L131.946208,33.7585883 L132.333143,33.7585883 L132.80745,33.7585883 C132.920494,33.744551 133.033546,33.7845938 133.112607,33.8666746 C133.191667,33.9487554 133.227513,34.0632976 133.209363,34.1758546 L133.209363,34.2708014 C133.226631,34.382966 133.190391,34.4967488 133.11145,34.5782148 C133.032509,34.6596808 132.919989,34.6994158 132.80745,34.685569 L132.17088,34.685569 L131.421974,34.6705774 L131.421974,35.817435 L132.036077,35.817435 L132.482924,35.817435 L132.982195,35.817435 C133.146954,35.817435 133.251801,35.8574126 133.301728,35.9373678 C133.35383,36.0257556 133.379799,36.1271284 133.376618,36.229704 L133.376618,36.4220962 L133.36164,36.3696256 Z M136.731717,36.3696256 C136.731717,36.6194856 136.601907,36.7419171 136.33979,36.7419171 L134.285291,36.7419171 C134.168967,36.7490813 134.053661,36.7164846 133.958269,36.6494689 C133.876757,36.5701801 133.836245,36.457751 133.848429,36.3446396 L133.848429,32.2319436 C133.848429,32.0795289 133.888371,31.9820835 133.973247,31.9321115 C134.069465,31.8821708 134.176982,31.8580656 134.285291,31.8621507 L134.597335,31.8621507 C134.859452,31.8621507 134.991759,31.9845821 134.991759,32.2319436 L134.991759,35.779956 C135.49103,35.7699616 135.940373,35.7649644 136.33979,35.7649644 C136.601907,35.7649644 136.731717,35.9023874 136.731717,36.1772334 L136.731717,36.3696256 Z M139.949517,34.3132776 C139.949517,34.0634176 139.949517,33.8335463 139.91956,33.6186667 C139.908838,33.4461324 139.867414,33.2769018 139.797239,33.1189467 C139.674918,32.854095 139.395326,32.7216692 138.960961,32.7216692 C138.526595,32.7216692 138.254493,32.854095 138.129675,33.1189467 C138.003502,33.502021 137.951811,33.9057404 137.977397,34.3082804 C137.952093,34.7083511 138.003789,35.1095633 138.129675,35.4901183 C138.256157,35.7599672 138.533252,35.8948916 138.960961,35.8948916 C139.39283,35.8948916 139.672421,35.7599672 139.797239,35.4901183 C139.923799,35.1097172 139.975511,34.7083733 139.949517,34.3082804 L139.949517,34.3132776 Z M141.130292,34.3132776 C141.139157,34.7644688 141.071633,35.2139057 140.930583,35.6425329 C140.807459,36.0120305 140.569543,36.3324557 140.251575,36.5570206 C139.866238,36.7995638 139.415579,36.9173465 138.960961,36.8943317 C138.607893,36.9038496 138.256972,36.8365008 137.932463,36.6969423 C137.665501,36.5750452 137.434908,36.3855821 137.26344,36.1472502 C137.091752,35.902981 136.970398,35.6269279 136.906462,35.3352051 C136.83142,34.9998469 136.795399,34.6569239 136.799119,34.3132776 C136.795358,33.9672855 136.830529,33.6219696 136.903966,33.2838543 C136.968816,32.9944073 137.089205,32.7203185 137.258448,32.4768064 C137.431441,32.2389259 137.662701,32.0496213 137.929967,31.9271143 C138.255318,31.7876695 138.607208,31.721151 138.960961,31.7322235 C139.415579,31.7092086 139.866238,31.8269914 140.251575,32.0695345 C140.570315,32.291128 140.808589,32.6102806 140.930583,32.979025 C141.071582,33.4093851 141.139098,33.8604546 141.130292,34.3132776 L141.130292,34.3132776 Z M143.98612,33.6361569 L143.98612,33.5487059 C143.98612,33.1539271 143.936193,32.9340502 143.833842,32.8865768 C143.687399,32.8432191 143.534249,32.8271282 143.382002,32.8391034 L143.292133,32.8391034 C143.057476,32.8391034 142.880235,32.8391034 142.762907,32.8391034 L142.762907,34.248314 L143.511813,34.248314 C143.728995,34.248314 143.863798,34.2133336 143.913725,34.1458714 C143.977325,33.9813654 144.001272,33.8041671 143.983623,33.6286611 L143.98612,33.6361569 Z M145.124457,33.6036751 C145.135569,33.9198034 145.080291,34.2347483 144.962194,34.5281572 C144.862665,34.7652998 144.678436,34.9568219 144.445449,35.0653563 C144.304967,35.1291561 144.15623,35.1728923 144.003594,35.1952835 C143.793082,35.2186827 143.581299,35.2286972 143.36952,35.2252667 L142.762907,35.2252667 L142.762907,36.3446396 C142.778923,36.4536838 142.742657,36.5639061 142.665039,36.6420862 C142.58742,36.7202663 142.477528,36.7572598 142.368483,36.7419171 L142.056439,36.7419171 C141.940114,36.7490813 141.824808,36.7164846 141.729416,36.6494689 C141.647939,36.5700276 141.606657,36.4580092 141.61708,36.3446396 L141.61708,32.2319436 C141.600537,32.1160829 141.649573,32.0005997 141.744394,31.9321115 C141.840613,31.8821708 141.948129,31.8580656 142.056439,31.8621507 L143.411958,31.8621507 C143.692999,31.851776 143.974321,31.8727265 144.250733,31.9246157 C144.431279,31.9781077 144.594202,32.0790552 144.722544,32.216952 C144.872474,32.3701567 144.978521,32.5608689 145.029595,32.7691426 C145.09811,33.0384698 145.130018,33.3158159 145.124457,33.5936807 L145.124457,33.6036751 Z M150.64639,36.3846172 C150.64639,36.6219842 150.499105,36.7419171 150.207032,36.7419171 L149.902477,36.7419171 C149.796449,36.7547476 149.690211,36.7197261 149.612553,36.6463431 C149.534895,36.5729601 149.493859,36.4688147 149.500564,36.3621298 L149.333308,33.8835183 C149.26341,34.0584204 149.141089,34.3832384 148.963848,34.8979501 C148.786607,35.4126617 148.666782,35.7274853 148.604373,35.8799 C148.568543,35.9761928 148.509351,36.062056 148.432125,36.12976 C148.343665,36.1906726 148.237174,36.2197418 148.130066,36.2122138 L147.94284,36.2122138 C147.864324,36.2152601 147.786053,36.2016356 147.713175,36.1722362 C147.653927,36.1444094 147.602473,36.1023507 147.563394,36.0498048 C147.52502,35.9958446 147.493962,35.9370318 147.471029,35.8749028 C147.448562,35.8249308 147.388649,35.6650203 147.291291,35.4001687 C147.193934,35.1353171 147.091583,34.8604711 146.989233,34.5831264 C146.886882,34.3057818 146.79951,34.0709134 146.739597,33.8785211 L146.579831,36.3571326 C146.585753,36.4640549 146.544113,36.568122 146.46609,36.6413949 C146.388067,36.7146678 146.281654,36.749639 146.175421,36.7369199 L145.870866,36.7369199 C145.578793,36.7369199 145.434005,36.616987 145.434005,36.37962 L145.434005,36.3196536 L145.788487,32.2319436 C145.785518,32.121483 145.834501,32.016028 145.920793,31.9471031 C146.014677,31.8957213 146.120992,31.8714978 146.227845,31.8771423 L146.632254,31.8771423 C146.732625,31.8716535 146.832629,31.8932254 146.921831,31.9396073 C146.997248,31.9889771 147.054284,32.0618729 147.084094,32.1469912 C147.131525,32.2594282 147.198926,32.4268344 147.286299,32.6467112 L147.535934,33.3013445 C147.613321,33.5162241 147.690708,33.7336023 147.785569,33.9559778 C147.880431,34.1783532 147.952825,34.4207174 148.050183,34.6755746 L148.212446,34.2383196 C148.307307,33.9884596 148.399672,33.7385995 148.487045,33.4887395 C148.574417,33.2388795 148.661789,33.0065096 148.73668,32.7816356 C148.81157,32.5567616 148.903936,32.3468792 148.986315,32.1469912 C149.01642,32.0627469 149.072334,31.9901685 149.146082,31.9396073 C149.233329,31.8927972 149.331855,31.8711712 149.430666,31.8771423 L149.840068,31.8771423 C149.94533,31.8715 150.050041,31.8957525 150.142127,31.9471031 C150.232204,32.0136692 150.284341,32.1198999 150.281922,32.2319436 L150.656375,36.329648 L150.656375,36.3896144 L150.64639,36.3846172 Z M154.198701,36.3696256 C154.198701,36.6194856 154.066394,36.7419171 153.804277,36.7419171 L151.530099,36.7419171 C151.414483,36.7497295 151.299752,36.7170459 151.205573,36.6494689 C151.123147,36.5706472 151.081691,36.4581543 151.093237,36.3446396 L151.093237,32.2319436 C151.076694,32.1160829 151.12573,32.0005997 151.220551,31.9321115 C151.315868,31.8821594 151.422585,31.8580403 151.530099,31.8621507 L153.796788,31.8621507 C154.046423,31.8621507 154.191212,31.9845821 154.191212,32.2319436 L154.191212,32.4243358 C154.193853,32.5268511 154.167921,32.6280775 154.116321,32.716672 C154.037589,32.8091116 153.916834,32.8544357 153.796788,32.8366048 L153.337459,32.8366048 L152.930553,32.8366048 L152.521151,32.8366048 L152.239063,32.8366048 L152.239063,33.7710813 L152.773283,33.7585883 L153.160218,33.7585883 L153.629532,33.7585883 C153.742577,33.744551 153.855628,33.7845938 153.934689,33.8666746 C154.013749,33.9487554 154.049595,34.0632976 154.031445,34.1758546 L154.031445,34.2708014 C154.048714,34.382966 154.012473,34.4967488 153.933532,34.5782148 C153.854591,34.6596808 153.742071,34.6994158 153.629532,34.685569 L152.992962,34.685569 L152.244056,34.6705774 L152.244056,35.817435 L152.858159,35.817435 L153.305006,35.817435 L153.804277,35.817435 C153.924323,35.7996041 154.045078,35.8449282 154.12381,35.9373678 C154.175912,36.0257556 154.201882,36.1271284 154.198701,36.229704 L154.198701,36.4220962 L154.198701,36.3696256 Z M158.801976,36.3446396 C158.817092,36.4539469 158.780164,36.5640281 158.702206,36.6420569 C158.624247,36.7200856 158.514265,36.7570462 158.405056,36.7419171 L158.190369,36.7419171 C158.096749,36.7447404 158.003262,36.7329385 157.913274,36.7069367 C157.834135,36.6776545 157.764895,36.6265444 157.713566,36.5595192 C157.25923,35.9698496 156.623492,35.0895094 155.806352,33.9184987 L155.806352,36.3446396 C155.821845,36.4549434 155.784308,36.5660833 155.705125,36.644353 C155.625942,36.7226228 155.514442,36.7588015 155.404439,36.7419171 L155.119855,36.7419171 C155.004239,36.7497295 154.889508,36.7170459 154.795329,36.6494689 C154.712903,36.5706472 154.671447,36.4581543 154.682993,36.3446396 L154.682993,32.2319436 C154.66645,32.1160829 154.715486,32.0005997 154.810307,31.9321115 C154.905624,31.8821594 155.012341,31.8580403 155.119855,31.8621507 L155.312074,31.8621507 C155.371064,31.8575095 155.430326,31.8575095 155.489315,31.8621507 C155.536396,31.8694714 155.581447,31.8864872 155.621622,31.9121227 C155.670928,31.9432087 155.713396,31.9840147 155.74644,32.0320555 C155.994411,32.3535421 156.637638,33.2413781 157.676121,34.6955634 L157.676121,32.2319436 C157.659577,32.1160829 157.708614,32.0005997 157.803435,31.9321115 C157.89977,31.8824911 158.007201,31.8584049 158.115479,31.8621507 L158.405056,31.8621507 C158.669669,31.8621507 158.801976,31.9845821 158.801976,32.2319436 L158.801976,36.3346452 L158.801976,36.3446396 Z M163.013324,32.4343302 C163.013324,32.7091762 162.883514,32.8465992 162.621396,32.8465992 C162.359279,32.8465992 162.012286,32.8465992 161.622855,32.8316076 L161.622855,36.3446396 C161.638872,36.4536838 161.602606,36.5639061 161.524987,36.6420862 C161.447369,36.7202663 161.337476,36.7572598 161.228431,36.7419171 L160.916387,36.7419171 C160.801069,36.7504532 160.686366,36.7186606 160.591861,36.6519675 C160.511801,36.5708476 160.472391,36.4580165 160.484518,36.3446396 L160.484518,32.8316076 C160.095087,32.8316076 159.760576,32.8465992 159.485977,32.8465992 C159.319553,32.8465992 159.21221,32.8066216 159.163947,32.7266664 C159.114392,32.6373512 159.08941,32.5364711 159.091553,32.4343302 L159.091553,32.2319436 C159.091553,31.9820835 159.22386,31.8621507 159.485977,31.8621507 L162.626389,31.8621507 C162.876024,31.8621507 163.018317,31.9845821 163.018317,32.2319436 L163.018317,32.4243358 L163.013324,32.4343302 Z M83.3422109,41.4767646 C83.3596874,41.5887543 83.3234173,41.7024393 83.2443291,41.7835654 C83.1652408,41.8646916 83.0525821,41.9037728 82.9402981,41.8890336 L82.4659909,41.8890336 L82.0690708,41.8890336 L81.5298585,41.8890336 L81.5298585,42.8160143 C82.0041656,42.8060199 82.4285456,42.8010227 82.8029986,42.8010227 C83.0651157,42.8010227 83.1974224,42.9409443 83.1974224,43.218289 L83.1974224,43.3132358 C83.2006033,43.4158114 83.1746336,43.5171842 83.1225318,43.605572 C83.0443354,43.698936 82.9234951,43.7452368 82.8029986,43.7280034 L82.226341,43.7280034 L81.5298585,43.7130118 L81.5298585,45.4170572 C81.545001,45.5257034 81.5083457,45.6351672 81.4308471,45.7127356 C81.3533485,45.7903039 81.2439832,45.8269922 81.1354347,45.8118361 L80.8208942,45.8118361 C80.7055758,45.8203722 80.5908726,45.7885796 80.4963683,45.7218865 C80.4139423,45.6430648 80.3724863,45.5305719 80.3840324,45.4170572 L80.3840324,41.2918682 C80.3674891,41.1760075 80.4165253,41.0605243 80.5113464,40.9920361 C80.6066634,40.942084 80.7133804,40.9179649 80.8208942,40.9220753 L82.9402981,40.9220753 C83.2099042,40.9220753 83.3422109,41.0445067 83.3422109,41.2918682 L83.3422109,41.4767646 Z M86.6823315,43.3632078 C86.6823315,43.1133478 86.6823315,42.8834765 86.6523753,42.6685969 C86.6416535,42.4960626 86.6002293,42.326832 86.530054,42.1688769 C86.4077327,41.9040252 86.1281411,41.7715994 85.6937757,41.7715994 C85.2594102,41.7715994 84.9873077,41.9040252 84.86249,42.1688769 C84.659454,42.9462049 84.659454,43.7627205 84.86249,44.5400485 C84.9889719,44.8098974 85.2660671,44.9448218 85.6937757,44.9448218 C86.1256448,44.9448218 86.4052363,44.8098974 86.530054,44.5400485 C86.656614,44.1596474 86.7083264,43.7583035 86.6823315,43.3582106 L86.6823315,43.3632078 Z M87.8631066,43.3632078 C87.8715001,43.8141751 87.8048524,44.2633966 87.6658947,44.6924631 C87.5408676,45.0616537 87.3023087,45.3817678 86.9843903,45.6069508 C86.5990526,45.849494 86.148394,45.9672767 85.6937757,45.9442619 C85.3415123,45.9538159 84.9913969,45.8864582 84.6677745,45.7468725 C84.3997161,45.6256411 84.1681569,45.4360913 83.9962555,45.1971804 C83.8245672,44.9529112 83.7032131,44.6768581 83.639277,44.3851353 C83.5642345,44.0497771 83.5282139,43.7068541 83.5319338,43.3632078 C83.5281733,43.0172157 83.5633438,42.6718998 83.6367806,42.3337845 C83.7003148,42.0434701 83.8217312,41.7689749 83.9937591,41.5267366 C84.1648714,41.2890556 84.3944778,41.0996964 84.6602854,40.9770445 C84.9865929,40.8378597 85.3392367,40.7713598 85.6937757,40.7821537 C86.148394,40.7591388 86.5990526,40.8769216 86.9843903,41.1194647 C87.3031804,41.3415772 87.5421197,41.6604498 87.6658947,42.0289552 C87.8048126,42.4597501 87.8714524,42.9106071 87.8631066,43.3632078 L87.8631066,43.3632078 Z M90.7189347,42.5986361 L90.7189347,42.5986361 C90.7189347,42.2088545 90.6690076,41.9914762 90.5666571,41.9440028 C90.410866,41.9003925 90.2486666,41.8843271 90.0873573,41.8965294 L90.0524084,41.8965294 C89.8027731,41.8965294 89.6180429,41.8965294 89.4957216,41.8965294 L89.4957216,43.105852 L90.2446276,43.105852 C90.354125,43.1112748 90.4637673,43.0986124 90.5691535,43.068373 C90.6297192,43.0456601 90.6759978,42.9956342 90.6939712,42.9334485 C90.7182067,42.8235837 90.7282742,42.7110629 90.7239274,42.5986361 L90.7189347,42.5986361 Z M92.1168925,45.5194998 C92.1168925,45.6993991 92.0045566,45.7893487 91.7823812,45.7893487 L91.343023,45.7893487 C91.247196,45.7924657 91.1516041,45.7780716 91.0609351,45.7468725 C90.9700502,45.7067503 90.8903479,45.6449898 90.8287742,45.5669732 L89.6130502,44.0678131 L89.5082034,44.0678131 L89.5082034,45.3845754 C89.5244432,45.4934555 89.4881477,45.6035944 89.4103747,45.6814375 C89.3326016,45.7592805 89.2225617,45.7956087 89.1137796,45.7793543 L88.8017354,45.7793543 C88.6857019,45.7872462 88.5704222,45.7555377 88.4747131,45.6894046 C88.394148,45.6095077 88.3538061,45.49755 88.3648736,45.3845754 L88.3648736,41.2918682 C88.3483463,41.1765701 88.3962589,41.0614765 88.4896913,40.9920361 C88.5859098,40.9420954 88.6934259,40.9179902 88.8017354,40.9220753 L90.1572552,40.9220753 C90.438296,40.9117006 90.7196177,40.9326511 90.9960299,40.9845403 C91.1762783,41.0386956 91.3390378,41.1395421 91.4678407,41.2768766 C91.6177707,41.4300813 91.7238182,41.6207935 91.7748921,41.8290672 C91.8435397,42.0992197 91.8754481,42.377409 91.8697535,42.6561039 C91.8697535,43.4206756 91.5726875,43.8779194 90.9735627,44.0253369 L91.9995639,45.2196678 C92.0723785,45.3028784 92.1138767,45.4089267 92.1168925,45.5194998 L92.1168925,45.5194998 Z M97.8360377,45.3945698 C97.8506566,45.5044731 97.8127322,45.6148525 97.7336705,45.6925108 C97.6546088,45.7701692 97.5436349,45.8060451 97.4341248,45.7893487 L97.1270734,45.7893487 C97.0128866,45.7980254 96.8991904,45.7671498 96.8050438,45.7018977 C96.7222106,45.6223022 96.6807505,45.508876 96.6927079,45.3945698 L96.6927079,43.6455496 C96.5262844,43.6455496 96.2591746,43.6455496 95.8913786,43.6455496 L95.3396845,43.6455496 L95.0900492,43.6455496 L95.0900492,45.3945698 C95.1051916,45.503216 95.0685364,45.6126798 94.9910378,45.6902482 C94.9135392,45.7678165 94.8041738,45.8045048 94.6956254,45.7893487 L94.3835812,45.7893487 C94.2675477,45.7972406 94.152268,45.7655321 94.0565589,45.6993991 C93.974133,45.6205774 93.932677,45.5080845 93.944223,45.3945698 L93.944223,41.2918682 C93.9276797,41.1760075 93.976716,41.0605243 94.0715371,40.9920361 C94.1677556,40.9420954 94.2752717,40.9179902 94.3835812,40.9220753 L94.6956254,40.9220753 C94.9577425,40.9220753 95.0900492,41.0445067 95.0900492,41.2918682 L95.0900492,42.7260647 C95.2523121,42.7260647 95.5169256,42.7260647 95.8913786,42.7260647 C96.2658315,42.7260647 96.5329413,42.7260647 96.6927079,42.7260647 L96.6927079,41.2818738 C96.6761807,41.1665757 96.7240932,41.0514821 96.8175256,40.9820417 C96.9129619,40.9324152 97.0195917,40.9083159 97.1270734,40.9120809 L97.4341248,40.9120809 C97.7012346,40.9120809 97.8360377,41.0345123 97.8360377,41.2818738 L97.8360377,45.3845754 L97.8360377,45.3945698 Z M101.545619,45.4195558 C101.545619,45.6694158 101.413312,45.7893487 101.151195,45.7893487 L98.8845061,45.7893487 C98.7691877,45.7978848 98.6544845,45.7660922 98.5599801,45.6993991 C98.4775542,45.6205774 98.4360982,45.5080845 98.4476443,45.3945698 L98.4476443,41.2918682 C98.431117,41.1765701 98.4790295,41.0614765 98.5724619,40.9920361 C98.6687968,40.9424157 98.7762279,40.9183295 98.8845061,40.9220753 L101.151195,40.9220753 C101.413312,40.9220753 101.545619,41.0445067 101.545619,41.2918682 L101.545619,41.4767646 C101.54826,41.5792799 101.522328,41.6805063 101.470728,41.7691008 C101.391996,41.8615404 101.271241,41.9068645 101.151195,41.8890336 L100.691866,41.8890336 L100.28496,41.8890336 L99.8755583,41.8890336 L99.5934704,41.8890336 L99.5934704,42.8235101 L100.12769,42.8110171 L100.514625,42.8110171 L100.983939,42.8110171 C101.096983,42.7969798 101.210035,42.8370226 101.289096,42.9191034 C101.368156,43.0011842 101.404002,43.1157264 101.385852,43.2282834 L101.385852,43.3232302 C101.403121,43.4353948 101.36688,43.5491776 101.287939,43.6306436 C101.208998,43.7121096 101.096478,43.7518446 100.983939,43.7379978 L100.347369,43.7379978 L99.5984631,43.7230062 L99.5984631,44.8698638 L100.21007,44.8698638 L100.656917,44.8698638 L101.156187,44.8698638 C101.276233,44.8520329 101.396989,44.897357 101.475721,44.9897966 C101.527822,45.0781844 101.553792,45.1795572 101.550611,45.2821328 L101.550611,45.474525 L101.545619,45.4195558 Z M104.646089,44.0328327 L104.08441,42.4162383 L103.525227,44.0328327 L103.774862,44.0328327 L104.401447,44.0328327 L104.651082,44.0328327 L104.646089,44.0328327 Z M106.346106,45.499511 C106.346106,45.6919032 106.231274,45.7893487 106.004105,45.7893487 L105.602193,45.7893487 C105.512507,45.7960993 105.423078,45.7732832 105.347565,45.7243851 C105.283423,45.6633917 105.234656,45.5880353 105.205272,45.5045082 L104.978104,44.9073428 L104.104381,44.9073428 L103.230657,44.9073428 L103.033445,45.4545362 C103.000518,45.5474777 102.948664,45.6325611 102.881168,45.7043963 C102.795673,45.769678 102.688606,45.8000409 102.581605,45.7893487 L102.247094,45.7893487 C102.142763,45.8024591 102.037085,45.7795417 101.947531,45.7243851 C101.898518,45.6737865 101.873133,45.6048232 101.877634,45.5344914 C101.886523,45.4486692 101.907535,45.3645439 101.940042,45.2846314 L103.437854,41.2518906 C103.463305,41.1795923 103.497689,41.1107632 103.540205,41.0470053 C103.579749,40.9939098 103.632156,40.951774 103.692482,40.9245739 C103.772084,40.894085 103.856922,40.8796495 103.942118,40.8820977 L104.24168,40.8820977 C104.359734,40.8738951 104.477224,40.9046104 104.576191,40.9695487 C104.65938,41.0431242 104.720705,41.13822 104.753432,41.2443948 L106.333624,45.349595 C106.349126,45.3947594 106.358366,45.4418388 106.361084,45.4895166 L106.346106,45.499511 Z M107.442005,40.9220753 C107.704122,40.9220753 107.836429,41.0445067 107.836429,41.2918682 L107.836429,44.8298862 C108.335699,44.8198918 108.785043,44.8148946 109.184459,44.8148946 C109.434095,44.8148946 109.576387,44.9523176 109.576387,45.2271636 L109.576387,45.4195558 C109.576387,45.6694158 109.44408,45.7893487 109.184459,45.7893487 L107.127464,45.7893487 C107.012146,45.7978848 106.897443,45.7660922 106.802938,45.6993991 C106.736998,45.6363417 106.697278,45.5517348 106.689939,45.4622948 L106.690603,41.2918682 C106.674059,41.1760075 106.723095,41.0605243 106.817917,40.9920361 C106.913234,40.942084 107.019951,40.9179649 107.127464,40.9220753 L107.442005,40.9220753 Z M112.472157,40.9220753 C112.721792,40.9220753 112.864084,41.0445067 112.864084,41.2918682 L112.864084,41.4767646 C112.861588,41.7516106 112.729281,41.8890336 112.46966,41.8890336 C112.21004,41.8890336 111.858054,41.8890336 111.471119,41.874042 L111.471119,45.387074 C111.487359,45.4959541 111.451063,45.606093 111.37329,45.6839361 C111.295517,45.7617791 111.185477,45.7981073 111.076695,45.7818529 L110.764651,45.7818529 C110.649629,45.7911151 110.534953,45.7602129 110.440125,45.6944018 C110.359155,45.6137333 110.318808,45.5008433 110.330286,45.387074 L110.330286,41.8815378 C109.943351,41.8815378 109.608839,41.8965294 109.331744,41.8965294 C109.165321,41.8965294 109.057978,41.8565518 109.009715,41.7765966 C108.960159,41.6872814 108.935177,41.5864013 108.93732,41.4842604 L108.93732,41.2918682 C108.93732,41.0420081 109.069627,40.9220753 109.331744,40.9220753 L112.472157,40.9220753 Z M117.03549,45.3945698 C117.051216,45.5047178 117.01365,45.615784 116.934307,45.6937183 C116.854964,45.7716525 116.743311,45.8071577 116.633577,45.7893487 L116.331519,45.7893487 C116.216497,45.7986109 116.101821,45.7677087 116.006993,45.7018977 C115.926022,45.6212291 115.885675,45.5083391 115.897153,45.3945698 L115.897153,43.6455496 C115.73489,43.6455496 115.467781,43.6455496 115.093328,43.6455496 L114.54413,43.6455496 L114.294494,43.6455496 L114.294494,45.3945698 C114.310734,45.5034499 114.274439,45.6135888 114.196666,45.6914319 C114.118893,45.7692749 114.008853,45.8056031 113.900071,45.7893487 L113.58553,45.7893487 C113.470212,45.7978848 113.355509,45.7660922 113.261004,45.6993991 C113.178578,45.6205774 113.137122,45.5080845 113.148668,45.3945698 L113.148668,41.2918682 C113.132141,41.1765701 113.180054,41.0614765 113.273486,40.9920361 C113.369705,40.9420954 113.477221,40.9179902 113.58553,40.9220753 L113.897574,40.9220753 C114.162188,40.9220753 114.291998,41.0445067 114.291998,41.2918682 L114.291998,42.7260647 C114.458422,42.7260647 114.725531,42.7260647 115.093328,42.7260647 C115.467781,42.7260647 115.73489,42.7260647 115.897153,42.7260647 L115.897153,41.2818738 C115.880626,41.1665757 115.928539,41.0514821 116.021971,40.9820417 C116.117206,40.9318679 116.223983,40.9077353 116.331519,40.9120809 L116.636074,40.9120809 C116.90568,40.9120809 117.037987,41.0345123 117.037987,41.2818738 L117.037987,45.3845754 L117.03549,45.3945698 Z M121.531423,41.2269046 C121.531496,41.3150364 121.507312,41.4014853 121.461525,41.4767646 L120.031114,43.9029055 L120.031114,45.4020656 C120.04716,45.5104484 120.011167,45.6200547 119.934008,45.6977753 C119.856849,45.7754959 119.747572,45.8122164 119.639187,45.7968445 L119.327143,45.7968445 C119.212956,45.8055212 119.09926,45.7746456 119.005113,45.7093935 C118.923193,45.6293315 118.882677,45.5159688 118.895273,45.4020656 L118.895273,43.9678691 L117.437403,41.4767646 C117.393398,41.4002595 117.366963,41.314908 117.360016,41.2269046 C117.35006,41.1323596 117.394571,41.0403509 117.474848,40.9895375 C117.550414,40.9448205 117.636701,40.9215019 117.724484,40.9220753 L118.121404,40.9220753 C118.215358,40.9170545 118.308817,40.938708 118.39101,40.9845403 C118.459651,41.0316702 118.51543,41.0952296 118.553273,41.1694367 L119.471931,42.7660423 L120.413056,41.1644395 C120.450554,41.0893212 120.50636,41.0248718 120.575319,40.9770445 C120.659321,40.9340676 120.753233,40.9142332 120.847422,40.9195767 L121.166955,40.9195767 C121.264341,40.9126003 121.360731,40.9429725 121.436561,41.0045291 C121.49745,41.0611573 121.531092,41.1412425 121.528926,41.224406 L121.531423,41.2269046 Z M126.594027,45.4195558 C126.594027,45.6694158 126.464216,45.7893487 126.204596,45.7893487 L124.147601,45.7893487 C124.032282,45.7978848 123.917579,45.7660922 123.823075,45.6993991 C123.740649,45.6205774 123.699193,45.5080845 123.710739,45.3945698 L123.710739,41.2918682 C123.694212,41.1765701 123.742124,41.0614765 123.835556,40.9920361 C123.931775,40.9420954 124.039291,40.9179902 124.147601,40.9220753 L124.462141,40.9220753 C124.724258,40.9220753 124.856565,41.0445067 124.856565,41.2918682 L124.856565,44.8298862 C125.355836,44.8198918 125.805179,44.8148946 126.204596,44.8148946 C126.464216,44.8148946 126.594027,44.9523176 126.594027,45.2271636 L126.594027,45.4195558 L126.594027,45.4195558 Z M128.204175,45.3945698 C128.220221,45.5029526 128.184228,45.6125589 128.107068,45.6902795 C128.029909,45.7680001 127.920632,45.8047206 127.812247,45.7893487 L127.497707,45.7893487 C127.382685,45.7986109 127.268009,45.7677087 127.173181,45.7018977 C127.09221,45.6212291 127.051863,45.5083391 127.063341,45.3945698 L127.063341,41.2918682 C127.046798,41.1760075 127.095834,41.0605243 127.190655,40.9920361 C127.285068,40.9420687 127.390988,40.9179353 127.497707,40.9220753 L127.814744,40.9220753 C128.076861,40.9220753 128.206671,41.0445067 128.206671,41.2918682 L128.206671,45.3945698 L128.204175,45.3945698 Z M133.072063,41.1769326 C133.065937,41.2626881 133.046569,41.3469752 133.014647,41.4267926 L131.516835,45.437046 C131.483166,45.5423053 131.423991,45.6375867 131.344587,45.7143907 C131.245088,45.7800532 131.126282,45.8100016 131.007579,45.7993431 L130.670572,45.7993431 C130.556284,45.8082896 130.442233,45.7793122 130.346046,45.7168893 C130.262658,45.6405141 130.199963,45.5442375 130.163812,45.437046 L128.591109,41.361829 C128.574469,41.3168683 128.56438,41.2697448 128.561153,41.2219074 C128.552508,41.131447 128.593613,41.043421 128.668496,40.9920361 C128.740255,40.9521661 128.821082,40.931511 128.903154,40.9320697 L129.350001,40.9320697 C129.546136,40.9227449 129.723329,41.0485412 129.779374,41.236899 L130.857798,44.1952417 L131.898777,41.2793752 C131.930757,41.1848287 131.98465,41.0992058 132.056048,41.0295151 C132.14296,40.965166 132.250427,40.9349415 132.358106,40.9445627 L132.712589,40.9445627 C132.815822,40.9310873 132.920566,40.9531123 133.009655,41.0070277 C133.05843,41.0586498 133.082941,41.1286144 133.077056,41.19942 L133.072063,41.1769326 Z M134.554897,45.3945698 C134.570943,45.5029526 134.53495,45.6125589 134.457791,45.6902795 C134.380632,45.7680001 134.271355,45.8047206 134.16297,45.7893487 L133.845933,45.7893487 C133.730911,45.7986109 133.616235,45.7677087 133.521407,45.7018977 C133.439487,45.6218357 133.398971,45.508473 133.411567,45.3945698 L133.411567,41.2918682 C133.395024,41.1760075 133.44406,41.0605243 133.538881,40.9920361 C133.633294,40.9420687 133.739214,40.9179353 133.845933,40.9220753 L134.16297,40.9220753 C134.412605,40.9220753 134.554897,41.0445067 134.554897,41.2918682 L134.554897,45.3945698 L134.554897,45.3945698 Z M139.315443,45.3945698 C139.331489,45.5029526 139.295496,45.6125589 139.218337,45.6902795 C139.141177,45.7680001 139.0319,45.8047206 138.923515,45.7893487 L138.706333,45.7893487 C138.612851,45.7927831 138.519397,45.7818281 138.429237,45.7568669 C138.350098,45.7275847 138.280858,45.6764746 138.229529,45.6094494 C137.776857,45.0197798 137.141119,44.1419382 136.322315,42.9759247 L136.322315,45.4020656 C136.338041,45.5122136 136.300475,45.6232799 136.221132,45.7012141 C136.141789,45.7791483 136.030136,45.8146535 135.920402,45.7968445 L135.635818,45.7968445 C135.5205,45.8053806 135.405797,45.773588 135.311292,45.7068949 C135.228866,45.6280732 135.18741,45.5155803 135.198956,45.4020656 L135.198956,41.2918682 C135.182429,41.1765701 135.230342,41.0614765 135.323774,40.9920361 C135.420109,40.9424157 135.52754,40.9183295 135.635818,40.9220753 L135.828037,40.9220753 C135.887027,40.9174341 135.946289,40.9174341 136.005278,40.9220753 C136.052359,40.929396 136.09741,40.9464118 136.137585,40.9720473 C136.186891,41.0031333 136.229359,41.0439393 136.262403,41.0919801 C136.510374,41.4151324 137.154433,42.3029684 138.19458,43.755488 L138.19458,41.2818738 C138.19458,41.1294591 138.234522,41.0320137 138.319398,40.9820417 C138.415616,40.932101 138.523133,40.9079958 138.631442,40.9120809 L138.923515,40.9120809 C139.173151,40.9120809 139.315443,41.0345123 139.315443,41.2818738 L139.315443,45.3845754 L139.315443,45.3945698 Z M143.541769,45.3021216 C143.549757,45.4050907 143.519538,45.5073932 143.456893,45.5894606 C143.378485,45.667887 143.280031,45.7232095 143.172309,45.7493711 C142.785785,45.8478591 142.387822,45.8940778 141.989037,45.8867941 C141.622591,45.8963458 141.25716,45.8439737 140.908116,45.7318809 C140.645171,45.6443336 140.412356,45.4840753 140.236597,45.2696398 C140.066661,45.0430946 139.950552,44.7807601 139.897093,44.5025695 C139.827347,44.1437498 139.794723,43.7786926 139.799735,43.4131798 C139.774971,42.8749275 139.854659,42.3369724 140.034393,41.8290672 C140.160582,41.4965661 140.41262,41.2272442 140.735868,41.0794871 C141.134356,40.9296761 141.558682,40.8608733 141.984044,40.8771005 C142.183753,40.8771005 142.370979,40.8771005 142.545724,40.8771005 C142.720469,40.8771005 142.892717,40.8970893 143.069958,40.9145795 C143.195304,40.9136181 143.318602,40.9464121 143.426937,41.0095263 C143.493438,41.0676479 143.528606,41.1537932 143.521798,41.2418962 L143.521798,41.4917562 C143.532668,41.6065637 143.507352,41.7218966 143.449404,41.8215714 C143.370679,41.8925228 143.264853,41.9253952 143.159827,41.911521 C143.099914,41.911521 142.977593,41.9015266 142.792863,41.8815378 C142.572969,41.8610214 142.352166,41.8518477 142.131329,41.8540532 C141.873398,41.8388399 141.614807,41.8692898 141.367445,41.9440028 C141.245406,41.9947538 141.146622,42.0891728 141.09035,42.2088545 C141.029806,42.3437334 140.994279,42.4885099 140.985503,42.6361151 C140.985503,42.7985241 140.965532,43.030894 140.965532,43.3332246 L140.965532,43.4206756 C140.96167,43.6709562 140.972506,43.9212477 140.997985,44.1702557 C141.013567,44.3360626 141.071133,44.4951544 141.165241,44.6324967 C141.264131,44.7706506 141.416148,44.8612185 141.584628,44.8823568 C141.765991,44.9043584 141.948677,44.9135426 142.131329,44.9098414 L142.393446,44.8823568 L142.393446,43.7255048 L141.811796,43.7255048 C141.69141,43.7417692 141.571023,43.6956421 141.492263,43.6030734 C141.440161,43.5146856 141.414191,43.4133128 141.417372,43.3107372 L141.417372,43.2157904 C141.413853,43.1123876 141.43983,43.0101203 141.492263,42.9209555 C141.54219,42.8385017 141.647037,42.7985241 141.811796,42.7985241 L143.13736,42.7985241 C143.404469,42.7985241 143.536776,42.9259527 143.536776,43.18081 L143.536776,45.3146146 L143.541769,45.3021216 Z M83.3422109,50.5341906 C83.3596874,50.6461803 83.3234173,50.7598653 83.2443291,50.8409914 C83.1652408,50.9221176 83.0525821,50.9611988 82.9402981,50.9464596 L82.4659909,50.9464596 L82.0690708,50.9464596 L81.5298585,50.9339666 L81.5298585,51.8609473 C82.0041656,51.8509529 82.4285456,51.8459557 82.8029986,51.8459557 C83.0651157,51.8459557 83.1974224,51.9858773 83.1974224,52.263222 L83.1974224,52.3581688 C83.2006033,52.4607444 83.1746336,52.5621172 83.1225318,52.650505 C83.0438002,52.7429446 82.9230445,52.7882687 82.8029986,52.7704378 C82.6232612,52.7704378 82.431042,52.7704378 82.226341,52.7704378 L81.5298585,52.7554462 L81.5298585,54.4594916 C81.545001,54.5681378 81.5083457,54.6776016 81.4308471,54.75517 C81.3533485,54.8327383 81.2439832,54.8694266 81.1354347,54.8542705 L80.8208942,54.8542705 C80.7055758,54.8628066 80.5908726,54.831014 80.4963683,54.7643209 C80.4139423,54.6854992 80.3724863,54.5730063 80.3840324,54.4594916 L80.3840324,50.3417984 C80.3674891,50.2259377 80.4165253,50.1104545 80.5113464,50.0419663 C80.6064277,49.9911478 80.7131576,49.9661643 80.8208942,49.9695069 L82.9402981,49.9695069 C83.2099042,49.9695069 83.3422109,50.0944369 83.3422109,50.3417984 L83.3422109,50.5341906 Z M86.6823315,52.413138 C86.6823315,52.163278 86.6823315,51.9334067 86.6523753,51.7185271 C86.6416535,51.5459928 86.6002293,51.3767622 86.530054,51.2188071 C86.4077327,50.9539554 86.1281411,50.819031 85.6937757,50.819031 C85.2594102,50.819031 84.9873077,50.9539554 84.86249,51.2188071 C84.659454,51.9961351 84.659454,52.8126507 84.86249,53.5899787 C84.9889719,53.8598276 85.2660671,53.994752 85.6937757,53.994752 C86.1256448,53.994752 86.4052363,53.8598276 86.530054,53.5899787 C86.656614,53.2095776 86.7083264,52.8082337 86.6823315,52.4081408 L86.6823315,52.413138 Z M87.8631066,52.413138 C87.8715001,52.8641053 87.8048524,53.3133268 87.6658947,53.7423933 C87.5408676,54.1115839 87.3023087,54.431698 86.9843903,54.656881 C86.5990526,54.8994242 86.148394,55.0172069 85.6937757,54.9941921 C85.3415123,55.0037461 84.9913969,54.9363884 84.6677745,54.7968027 C84.3997161,54.6755713 84.1681569,54.4860215 83.9962555,54.2471106 C83.8245672,54.0028414 83.7032131,53.7267883 83.639277,53.4350655 C83.5642345,53.0997073 83.5282139,52.7567843 83.5319338,52.413138 C83.5281733,52.0671459 83.5633438,51.72183 83.6367806,51.3837147 C83.7003148,51.0934003 83.8217312,50.8189051 83.9937591,50.5766668 C84.1648714,50.3389858 84.3944778,50.1496266 84.6602854,50.0269747 C84.9865929,49.8877899 85.3392367,49.82129 85.6937757,49.8320839 C86.148394,49.809069 86.5990526,49.9268518 86.9843903,50.1693949 C87.3031804,50.3915074 87.5421197,50.71038 87.6658947,51.0788854 C87.8049929,51.5096381 87.8716372,51.9605254 87.8631066,52.413138 L87.8631066,52.413138 Z M90.7189347,51.6485663 L90.7189347,51.6485663 C90.7189347,51.2587847 90.6690076,51.0414064 90.5666571,50.9914344 C90.4103583,50.9506749 90.2485017,50.9354872 90.0873573,50.9464596 L90.0524084,50.9464596 C89.8027731,50.9464596 89.6180429,50.9464596 89.4957216,50.9464596 L89.4957216,52.1557822 L90.2446276,52.1557822 C90.354125,52.161205 90.4637673,52.1485426 90.5691535,52.1183032 C90.630542,52.0954345 90.6770597,52.0442189 90.6939712,51.9808801 C90.7184084,51.8718928 90.7284794,51.7601715 90.7239274,51.6485663 L90.7189347,51.6485663 Z M92.1168925,54.56943 C92.1168925,54.7493293 92.0045566,54.8392789 91.7823812,54.8392789 L91.343023,54.8392789 C91.247196,54.8423959 91.1516041,54.8280018 91.0609351,54.7968027 C90.9700502,54.7566805 90.8903479,54.69492 90.8287742,54.6169034 L89.6130502,53.1177433 L89.5082034,53.1177433 L89.5082034,54.4345056 C89.5244432,54.5433857 89.4881477,54.6535246 89.4103747,54.7313677 C89.3326016,54.8092107 89.2225617,54.8455389 89.1137796,54.8292845 L88.8017354,54.8292845 C88.6857019,54.8371764 88.5704222,54.8054679 88.4747131,54.7393348 C88.394148,54.6594379 88.3538061,54.5474802 88.3648736,54.4345056 L88.3648736,50.3417984 C88.3483463,50.2265003 88.3962589,50.1114067 88.4896913,50.0419663 C88.5856764,49.9911598 88.6932051,49.9661907 88.8017354,49.9695069 L90.1572552,49.9695069 C90.4383972,49.9595568 90.7197641,49.9813488 90.9960299,50.0344705 C91.1762783,50.0886258 91.3390378,50.1894723 91.4678407,50.3268068 C91.6177707,50.4800115 91.7238182,50.6707237 91.7748921,50.8789974 C91.8435397,51.1491499 91.8754481,51.4273392 91.8697535,51.7060341 C91.8697535,52.4706058 91.5726875,52.9278496 90.9735627,53.0752671 L91.9995639,54.269598 C92.0723785,54.3528086 92.1138767,54.4588569 92.1168925,54.56943 L92.1168925,54.56943 Z M97.0921245,53.3101355 C97.1178886,53.6572373 97.0685014,54.005816 96.947336,54.332063 C96.8579051,54.4907027 96.7219708,54.6180378 96.5579049,54.6968586 C96.3844807,54.7853907 96.1969266,54.8428914 96.0037145,54.8667635 C95.789996,54.892429 95.5749055,54.9049455 95.3596553,54.9042705 C95.0176549,54.9042705 94.6581801,54.8867523 94.276238,54.8542705 C94.1511526,54.8541478 94.0285137,54.8195705 93.9217559,54.7543265 C93.8551345,54.6982625 93.8190138,54.6139051 93.8243981,54.5269538 L93.8243981,54.2770938 C93.8123101,54.1611017 93.8386222,54.0443465 93.8992887,53.94478 C93.9784669,53.8765729 94.0826522,53.8448358 94.1863693,53.857329 C94.2837271,53.857329 94.4360046,53.857329 94.6382092,53.8873122 C94.8404139,53.9172954 95.11002,53.9147968 95.4669985,53.9147968 C95.5863419,53.9182454 95.7057626,53.9115586 95.823977,53.894808 C95.8769089,53.887917 95.9223717,53.8537893 95.943802,53.8048583 C95.965211,53.7233819 95.9744644,53.6391845 95.9712619,53.5549983 L95.9712619,53.3476145 C95.976516,53.2734271 95.9645546,53.1990287 95.9363129,53.1302363 C95.8938744,53.0737806 95.8343246,53.0325841 95.7665609,53.0128021 L94.8404139,52.6430092 C94.6228427,52.5593635 94.4158815,52.4503385 94.2238146,52.3181912 C94.0981258,52.2250521 94.0047213,52.0948671 93.9567048,51.9458997 C93.8984452,51.7225843 93.8732133,51.4919258 93.8818142,51.2612833 C93.877008,51.0446441 93.9030655,50.8284246 93.9592012,50.619143 C94.009734,50.4450616 94.1147336,50.2917994 94.2587636,50.1818879 C94.44443,50.0508782 94.6615179,49.9715526 94.8878446,49.9520167 C95.1217114,49.9283397 95.3568173,49.9191607 95.5918162,49.9245321 L95.7016557,49.9245321 C95.9113494,49.9245321 96.2009264,49.9245321 96.5404304,49.9595125 C96.6669917,49.954956 96.7920694,49.9879924 96.8999053,50.0544593 C96.9689393,50.1110724 97.0061794,50.1977335 96.9997594,50.2868292 L96.9997594,50.5216976 C97.0114773,50.6376675 96.9851915,50.7543059 96.9248688,50.8540114 C96.8438582,50.9224738 96.7380603,50.9541513 96.6327955,50.9414624 C96.5928538,50.9414624 96.4830143,50.9414624 96.3007805,50.9239722 C96.1185467,50.906482 95.9687655,50.906482 95.8464442,50.906482 L95.5968089,50.906482 L95.3122246,50.906482 C95.1774215,50.906482 95.0900492,50.931468 95.0625893,50.9789414 C95.0193924,51.0619671 95.0003631,51.1554676 95.0076695,51.2487903 L95.0076695,51.3362413 C95.002651,51.4112315 95.0145971,51.4863889 95.0426185,51.5561181 C95.0858068,51.6139774 95.1460569,51.6568022 95.2148668,51.6785495 L95.5493782,51.8109753 L95.8189843,51.9209137 C96.106089,52.0339893 96.3861805,52.1641488 96.657759,52.3106954 C96.8085215,52.3924102 96.9292308,52.5202321 97.0022557,52.675491 C97.0769222,52.8818271 97.1100117,53.1009236 97.0996135,53.3201299 L97.0921245,53.3101355 Z M100.604493,52.413138 C100.605725,52.1811943 100.594893,51.9493436 100.572041,51.7185271 C100.563209,51.5459861 100.522585,51.3765659 100.452216,51.2188071 C100.329895,50.9539554 100.050303,50.819031 99.6159376,50.819031 C99.1815721,50.819031 98.9094696,50.9539554 98.7846519,51.2188071 C98.5783182,51.9957074 98.5783182,52.8130784 98.7846519,53.5899787 C98.9111338,53.8598276 99.188229,53.994752 99.6159376,53.994752 C100.047807,53.994752 100.327398,53.8598276 100.452216,53.5899787 C100.578776,53.2095776 100.630488,52.8082337 100.604493,52.4081408 L100.604493,52.413138 Z M101.785269,52.413138 C101.792903,52.8642484 101.72541,53.313481 101.58556,53.7423933 C101.46225,54.1124842 101.223326,54.4330883 100.904056,54.656881 C100.519819,54.8998327 100.069818,55.0176715 99.6159376,54.9941921 C99.2628696,55.00371 98.9119486,54.9363612 98.58744,54.7968027 C98.3204777,54.6749056 98.0898848,54.4854425 97.9184174,54.2471106 C97.7467291,54.0028414 97.625375,53.7267883 97.5614389,53.4350655 C97.4863964,53.0997073 97.4503758,52.7567843 97.4540957,52.413138 C97.4503352,52.0671459 97.4855057,51.72183 97.5589425,51.3837147 C97.6227448,51.093924 97.7432203,50.819638 97.9134247,50.5766668 C98.0854781,50.3388861 98.315911,50.1495545 98.5824473,50.0269747 C98.9087548,49.8877899 99.2613986,49.82129 99.6159376,49.8320839 C100.069818,49.8086044 100.519819,49.9264433 100.904056,50.1693949 C101.224237,50.390061 101.463562,50.7094481 101.58556,51.0788854 C101.72555,51.5094843 101.79304,51.9603827 101.785269,52.413138 L101.785269,52.413138 Z M105.647127,54.56943 C105.652309,54.6583123 105.6153,54.7444339 105.547273,54.8017999 C105.439261,54.8678557 105.314309,54.9008588 105.187798,54.8967467 C104.860776,54.9242313 104.581184,54.9367243 104.349023,54.9367243 C103.981749,54.9464622 103.615466,54.894089 103.265606,54.7818111 C103.005072,54.6936246 102.774836,54.5333541 102.601576,54.31957 C102.43164,54.0930248 102.315531,53.8306903 102.262072,53.5524997 C102.192326,53.19368 102.159701,52.8286228 102.164714,52.46311 C102.13995,51.9248577 102.219638,51.3869026 102.399371,50.8789974 C102.525561,50.5464963 102.777599,50.2771744 103.100847,50.1294173 C103.499369,49.979736 103.92367,49.9109375 104.349023,49.9270307 C104.558717,49.9270307 104.848294,49.9270307 105.187798,49.9620111 C105.314309,49.957899 105.439261,49.9909021 105.547273,50.0569579 C105.6153,50.1143239 105.652309,50.2004455 105.647127,50.2893278 L105.647127,50.5241962 C105.658845,50.6401661 105.632559,50.7568045 105.572236,50.85651 C105.491226,50.9249724 105.385428,50.9566499 105.280163,50.943961 C105.235229,50.943961 105.122893,50.943961 104.943155,50.9264708 C104.763418,50.9089806 104.61114,50.9089806 104.493812,50.9089806 C104.23588,50.8937673 103.977289,50.9242172 103.729928,50.9989302 C103.607346,51.0488452 103.508295,51.143519 103.452832,51.2637819 C103.392046,51.398713 103.3557,51.5433822 103.345489,51.6910425 C103.333008,51.8534515 103.328015,52.0858214 103.328015,52.388152 L103.328015,52.4706058 C103.324152,52.7208864 103.334989,52.9711779 103.360467,53.2201859 C103.376149,53.3855775 103.432776,53.5444475 103.525227,53.6824269 C103.625517,53.8202652 103.778125,53.9106471 103.94711,53.932287 C104.128473,53.9542886 104.311159,53.9634728 104.493812,53.9597716 C104.541242,53.9597716 104.656075,53.9597716 104.835812,53.9422814 C105.01555,53.9247912 105.162834,53.9247912 105.280163,53.9247912 C105.385899,53.9115129 105.492247,53.9442649 105.572236,54.0147408 C105.632922,54.1152202 105.659215,54.2327666 105.647127,54.3495532 L105.647127,54.5794244 L105.647127,54.56943 Z M107.197362,54.4445 C107.213408,54.5528828 107.177415,54.6624891 107.100256,54.7402097 C107.023097,54.8179303 106.91382,54.8546508 106.805435,54.8392789 L106.488398,54.8392789 C106.374211,54.8479556 106.260515,54.81708 106.166368,54.7518279 C106.083535,54.6722324 106.042075,54.5588062 106.054033,54.4445 L106.054033,50.3417984 C106.037489,50.2259377 106.086525,50.1104545 106.181347,50.0419663 C106.275769,49.9917867 106.381525,49.9668298 106.488398,49.9695069 L106.805435,49.9695069 C107.067552,49.9695069 107.197362,50.0944369 107.197362,50.3417984 L107.197362,54.4445 Z M110.455103,53.0827629 L109.890927,51.4711657 L109.34173,53.0827629 L109.591365,53.0827629 L110.21795,53.0827629 L110.467585,53.0827629 L110.455103,53.0827629 Z M112.165105,54.5494412 C112.165105,54.7443321 112.050273,54.8392789 111.823105,54.8392789 L111.421192,54.8392789 C111.322528,54.8476349 111.224158,54.8201375 111.144097,54.7618223 C111.079955,54.7008289 111.031189,54.6254725 111.001805,54.5419454 L110.774636,53.94478 L109.898416,53.94478 L109.027189,53.94478 L108.827481,54.4919734 C108.796371,54.5857693 108.74429,54.6712245 108.675203,54.7418334 C108.590824,54.8074199 108.484398,54.8378547 108.378137,54.8267859 L108.043626,54.8267859 C107.939295,54.8398963 107.833617,54.8169789 107.744064,54.7618223 C107.694139,54.7116515 107.667827,54.6426344 107.671669,54.5719286 C107.681929,54.4860899 107.703763,54.4020386 107.736575,54.3220686 L109.234387,50.2893278 C109.260622,50.2169063 109.295847,50.1480719 109.339233,50.0844425 C109.378189,50.0307832 109.430761,49.9885153 109.491511,49.9620111 C109.571112,49.9315222 109.655951,49.9170866 109.741146,49.9195349 L110.040709,49.9195349 C110.158763,49.9113323 110.276253,49.9420476 110.37522,50.0069859 C110.458408,50.0805614 110.519733,50.1756571 110.552461,50.281832 L112.130156,54.3870322 C112.147457,54.4317981 112.157567,54.4790232 112.160112,54.5269538 L112.165105,54.5494412 Z M115.492744,54.469486 C115.492744,54.719346 115.362934,54.8392789 115.100817,54.8392789 L113.046318,54.8392789 C112.931,54.847815 112.816296,54.8160224 112.721792,54.7493293 C112.639366,54.6705076 112.59791,54.5580147 112.609456,54.4445 L112.609456,50.3417984 C112.592929,50.2265003 112.640841,50.1114067 112.734274,50.0419663 C112.830378,49.9914803 112.937821,49.966531 113.046318,49.9695069 L113.358362,49.9695069 C113.622975,49.9695069 113.752786,50.0944369 113.752786,50.3417984 L113.752786,53.8798164 C114.252056,53.869822 114.7014,53.8648248 115.100817,53.8648248 C115.362934,53.8648248 115.492744,54.0022478 115.492744,54.2770938 L115.492744,54.469486 L115.492744,54.469486 Z M119.908793,51.6485663 L119.908793,51.6485663 C119.908793,51.2587847 119.858866,51.0414064 119.756515,50.9914344 C119.600217,50.9506749 119.43836,50.9354872 119.277216,50.9464596 L119.23977,50.9464596 C118.993463,50.9464596 118.808733,50.9464596 118.68558,50.9464596 L118.68558,52.1557822 L119.434486,52.1557822 C119.543173,52.1615825 119.652057,52.1489102 119.756515,52.1183032 C119.819108,52.09648 119.866805,52.0449958 119.883829,51.9808801 C119.908267,51.8718928 119.918338,51.7601715 119.913786,51.6485663 L119.908793,51.6485663 Z M121.291773,54.56943 C121.291773,54.7493293 121.181933,54.8392789 120.957261,54.8392789 L120.520399,54.8392789 C120.424572,54.8423959 120.32898,54.8280018 120.238312,54.7968027 C120.147427,54.7566805 120.067724,54.69492 120.006151,54.6169034 L118.78793,53.1177433 L118.68558,53.1177433 L118.68558,54.4345056 C118.700722,54.5431518 118.664067,54.6526156 118.586568,54.730184 C118.50907,54.8077523 118.399704,54.8444406 118.291156,54.8292845 L117.979112,54.8292845 C117.863078,54.8371764 117.747799,54.8054679 117.65209,54.7393348 C117.569664,54.6605132 117.528208,54.5480203 117.539754,54.4345056 L117.539754,50.3417984 C117.52321,50.2259377 117.572247,50.1104545 117.667068,50.0419663 C117.763053,49.9911598 117.870581,49.9661907 117.979112,49.9695069 L119.327143,49.9695069 C119.609113,49.9595173 119.891311,49.9813088 120.168414,50.0344705 C120.34842,50.0891632 120.511049,50.1899289 120.640224,50.3268068 C120.790154,50.4800115 120.896202,50.6707237 120.947276,50.8789974 C121.014704,51.1493726 121.046594,51.4273988 121.042137,51.7060341 C121.042137,52.4706058 120.743407,52.9270168 120.145946,53.0752671 L121.169451,54.269598 C121.243201,54.3522362 121.284839,54.4586412 121.28678,54.56943 L121.291773,54.56943 Z M124.81912,54.469486 C124.81912,54.719346 124.689309,54.8392789 124.424696,54.8392789 L122.160503,54.8392789 C122.045185,54.847815 121.930482,54.8160224 121.835978,54.7493293 C121.753552,54.6705076 121.712096,54.5580147 121.723642,54.4445 L121.723642,50.3417984 C121.707114,50.2265003 121.755027,50.1114067 121.848459,50.0419663 C121.944444,49.9911598 122.051973,49.9661907 122.160503,49.9695069 L124.424696,49.9695069 C124.689309,49.9695069 124.81912,50.0944369 124.81912,50.3417984 L124.81912,50.5341906 C124.822854,50.635711 124.797752,50.7362105 124.746725,50.8240282 C124.696798,50.906482 124.589455,50.9464596 124.424696,50.9464596 L123.965367,50.9464596 L123.560958,50.9464596 L123.151556,50.9464596 L122.866971,50.9464596 L122.866971,51.8809361 L123.403687,51.8684431 L123.790622,51.8684431 L124.259937,51.8684431 C124.527046,51.8684431 124.659353,52.0083647 124.659353,52.2857094 L124.659353,52.3806562 C124.676649,52.4921579 124.640682,52.6053227 124.562201,52.6863288 C124.48372,52.7673349 124.371817,52.8067986 124.259937,52.7929252 C124.060228,52.7929252 123.848038,52.7929252 123.62087,52.7929252 L122.871964,52.7779336 L122.871964,53.9247912 L123.486067,53.9247912 L123.932914,53.9247912 L124.432185,53.9247912 C124.598608,53.9247912 124.705952,53.9647688 124.754214,54.044724 C124.805573,54.1333191 124.830682,54.2347132 124.826609,54.3370602 L124.826609,54.469486 L124.81912,54.469486 Z M128.441328,53.3101355 C128.467092,53.6572373 128.417705,54.005816 128.29654,54.332063 C128.207388,54.4900294 128.072474,54.6172242 127.909605,54.6968586 C127.735898,54.7846902 127.548469,54.8421528 127.355415,54.8667635 C127.140866,54.8924998 126.924941,54.9050163 126.708859,54.9042763 C126.369355,54.9042763 126.007384,54.8867523 125.625442,54.8542705 C125.50041,54.8537662 125.377871,54.8192173 125.27096,54.7543265 C125.204338,54.6982625 125.168218,54.6139051 125.173602,54.5269538 L125.173602,54.2770938 C125.161514,54.1611017 125.187826,54.0443465 125.248492,53.94478 C125.327671,53.8765729 125.431856,53.8448358 125.535573,53.857329 C125.632931,53.857329 125.785208,53.857329 125.987413,53.8873122 C126.189618,53.9172954 126.459224,53.9147968 126.816202,53.9147968 C126.935546,53.9182454 127.054966,53.9115586 127.173181,53.894808 C127.226718,53.8894382 127.272865,53.8547968 127.293006,53.8048583 C127.316756,53.7238088 127.32688,53.6393711 127.322962,53.5549983 L127.322962,53.3476145 C127.329025,53.2731526 127.316142,53.1983669 127.285517,53.1302363 C127.2436,53.0732398 127.183849,53.0319045 127.115765,53.0128021 L126.189618,52.6430092 C125.972046,52.5593635 125.765085,52.4503385 125.573018,52.3181912 C125.448039,52.2243542 125.354813,52.094417 125.305909,51.9458997 C125.247649,51.7225843 125.222417,51.4919258 125.231018,51.2612833 C125.226212,51.0446441 125.252269,50.8284246 125.308405,50.619143 C125.358938,50.4450616 125.463937,50.2917994 125.607967,50.1818879 C125.794073,50.0517198 126.010928,49.9724793 126.237048,49.9520167 C126.470915,49.9283397 126.706021,49.9191607 126.94102,49.9245321 L127.050859,49.9245321 C127.260553,49.9245321 127.55013,49.9245321 127.89213,49.9595125 C128.017918,49.9548494 128.142228,49.9879126 128.249109,50.0544593 C128.318143,50.1110724 128.355383,50.1977335 128.348963,50.2868292 L128.348963,50.5216976 C128.360681,50.6376675 128.334395,50.7543059 128.274073,50.8540114 C128.193514,50.9233055 128.087343,50.9550947 127.981999,50.9414624 C127.942058,50.9414624 127.832218,50.9414624 127.649984,50.9239722 C127.46775,50.906482 127.317969,50.906482 127.198144,50.906482 L126.948509,50.906482 L126.663925,50.906482 C126.529122,50.906482 126.441749,50.931468 126.414289,50.9789414 C126.371092,51.0619671 126.352063,51.1554676 126.35937,51.2487903 L126.35937,51.3362413 C126.354351,51.4112315 126.366297,51.4863889 126.394319,51.5561181 C126.437507,51.6139774 126.497757,51.6568022 126.566567,51.6785495 L126.901078,51.8109753 L127.170684,51.9209137 C127.458321,52.0346409 127.739205,52.1647817 128.011955,52.3106954 C128.161575,52.3931061 128.281292,52.5208035 128.353956,52.675491 C128.428622,52.8818271 128.461712,53.1009236 128.451314,53.3201299 L128.441328,53.3101355 Z M131.309638,51.7360173 L131.309638,51.6485663 C131.309638,51.2537875 131.259711,51.0339106 131.15736,50.9839386 C131.010389,50.9433876 130.857593,50.9281787 130.705521,50.9389638 L130.618148,50.9389638 C130.368513,50.9389638 130.203754,50.9389638 130.086425,50.9389638 L130.086425,52.3481744 L130.835331,52.3481744 C131.052514,52.3481744 131.187317,52.313194 131.237244,52.2457318 C131.300843,52.0812258 131.32479,51.9040275 131.307142,51.7285215 L131.309638,51.7360173 Z M132.447975,51.7060341 C132.458298,52.0210654 132.403921,52.3348658 132.288208,52.6280176 C132.186867,52.8648002 132.002054,53.0560045 131.768967,53.1652167 C131.629801,53.229701 131.48166,53.2726667 131.329609,53.2926453 C131.117604,53.3183775 130.904061,53.3292313 130.690542,53.3251271 L130.086425,53.3251271 L130.086425,54.4445 C130.102665,54.5533801 130.066369,54.663519 129.988596,54.7413621 C129.910823,54.8192051 129.800783,54.8555333 129.692001,54.8392789 L129.379957,54.8392789 C129.264639,54.847815 129.149935,54.8160224 129.055431,54.7493293 C128.973005,54.6705076 128.931549,54.5580147 128.943095,54.4445 L128.943095,50.3417984 C128.926568,50.2265003 128.97448,50.1114067 129.067913,50.0419663 C129.163898,49.9911598 129.271427,49.9661907 129.379957,49.9695069 L130.735477,49.9695069 C131.016619,49.9595568 131.297986,49.9813488 131.574251,50.0344705 C131.7545,50.0886258 131.917259,50.1894723 132.046062,50.3268068 C132.1969,50.4793308 132.303096,50.6703099 132.353114,50.8789974 C132.420542,51.1493726 132.452432,51.4273988 132.447975,51.7060341 Z M135.91541,52.413138 C135.916641,52.1811943 135.905809,51.9493436 135.882957,51.7185271 C135.871659,51.5463515 135.831138,51.3773606 135.763132,51.2188071 C135.638315,50.9539554 135.358723,50.819031 134.926854,50.819031 C134.494985,50.819031 134.220386,50.9539554 134.095568,51.2188071 C133.889234,51.9957074 133.889234,52.8130784 134.095568,53.5899787 C134.22205,53.8598276 134.499145,53.994752 134.926854,53.994752 C135.358723,53.994752 135.635818,53.8598276 135.763132,53.5899787 C135.888416,53.2092866 135.940097,52.8081912 135.91541,52.4081408 L135.91541,52.413138 Z M137.096185,52.413138 C137.103819,52.8642484 137.036326,53.313481 136.896477,53.7423933 C136.773166,54.1124842 136.534242,54.4330883 136.214972,54.656881 C135.830407,54.8990762 135.38065,55.0168512 134.926854,54.9941921 C134.57376,55.0040304 134.222771,54.9366685 133.898356,54.7968027 C133.630667,54.6749759 133.399249,54.4855411 133.226837,54.2471106 C133.057331,54.001615 132.936172,53.7260068 132.869859,53.4350655 C132.730058,52.7584404 132.730058,52.0603398 132.869859,51.3837147 C132.933661,51.093924 133.054137,50.819638 133.224341,50.5766668 C133.395808,50.3383348 133.626401,50.1488718 133.893364,50.0269747 C134.219671,49.8877899 134.572315,49.82129 134.926854,49.8320839 C135.38065,49.8094248 135.830407,49.9271998 136.214972,50.1693949 C136.535154,50.390061 136.774478,50.7094481 136.896477,51.0788854 C137.036466,51.5094843 137.103956,51.9603827 137.096185,52.413138 L137.096185,52.413138 Z M141.701956,54.4445 C141.717099,54.5531462 141.680444,54.66261 141.602945,54.7401784 C141.525447,54.8177467 141.416081,54.854435 141.307533,54.8392789 L141.09035,54.8392789 C140.996875,54.8425566 140.903444,54.8316044 140.813255,54.8067971 C140.734433,54.7769271 140.665343,54.7259268 140.613546,54.6593796 C140.15921,54.06971 139.523472,53.1893698 138.706333,52.0183591 L138.706333,54.4445 C138.722059,54.554648 138.684492,54.6657142 138.605149,54.7436485 C138.525807,54.8215827 138.414153,54.8570879 138.30442,54.8392789 L138.019835,54.8392789 C137.904517,54.847815 137.789814,54.8160224 137.69531,54.7493293 C137.612884,54.6705076 137.571428,54.5580147 137.582974,54.4445 L137.582974,50.3417984 C137.56643,50.2259377 137.615467,50.1104545 137.710288,50.0419663 C137.805491,49.9914737 137.912134,49.9665107 138.019835,49.9695069 L138.212055,49.9695069 C138.27187,49.9646804 138.331977,49.9646804 138.391792,49.9695069 C138.438082,49.9768775 138.482308,49.9939028 138.521602,50.0194789 C138.570908,50.0505649 138.613376,50.0913709 138.64642,50.1394117 C138.894391,50.4608983 139.53845,51.3487343 140.578598,52.8029196 L140.578598,50.3293054 C140.578598,50.1768907 140.618539,50.0794453 140.703415,50.0294733 C140.79952,49.9789873 140.906963,49.954038 141.015459,49.9570139 L141.307533,49.9570139 C141.56965,49.9570139 141.701956,50.0819439 141.701956,50.3293054 L141.701956,54.4445 L141.701956,54.4445 Z M145.456472,53.3101355 C145.482236,53.6572373 145.432849,54.005816 145.311683,54.332063 C145.222532,54.4900294 145.087617,54.6172242 144.924748,54.6968586 C144.751042,54.7846902 144.563612,54.8421528 144.370558,54.8667635 C144.15684,54.892429 143.941749,54.9049455 143.726499,54.9042705 C143.384499,54.9042705 143.022527,54.8867523 142.640585,54.8542705 C142.516276,54.8542065 142.394424,54.8196075 142.288599,54.7543265 C142.220374,54.699282 142.183134,54.6144833 142.188745,54.5269538 L142.188745,54.2770938 C142.176657,54.1611017 142.202969,54.0443465 142.263636,53.94478 C142.343732,53.8764463 142.448723,53.8447396 142.553213,53.857329 C142.651403,53.857329 142.801184,53.8673234 143.002557,53.8873122 C143.197272,53.9048024 143.474367,53.9147968 143.833842,53.9147968 C143.953184,53.9181503 144.072597,53.9114638 144.190821,53.894808 C144.243425,53.888565 144.288424,53.8540666 144.308149,53.8048583 C144.3319,53.7238088 144.342023,53.6393711 144.338105,53.5549983 L144.338105,53.3476145 C144.344168,53.2731526 144.331286,53.1983669 144.30066,53.1302363 C144.258743,53.0732398 144.198993,53.0319045 144.130908,53.0128021 L143.207257,52.6430092 C142.989421,52.5599494 142.782393,52.4508887 142.590658,52.3181912 C142.46423,52.2257835 142.370636,52.0953343 142.323548,51.9458997 C142.262965,51.7229905 142.236867,51.4921055 142.246161,51.2612833 C142.240818,51.0444554 142.267741,50.8280387 142.326045,50.619143 C142.374593,50.4447811 142.478951,50.2911752 142.623111,50.1818879 C142.809216,50.0517198 143.026071,49.9724793 143.252192,49.9520167 C143.486066,49.9284408 143.721165,49.919262 143.956163,49.9245321 L144.066003,49.9245321 C144.275697,49.9245321 144.565274,49.9245321 144.907274,49.9595125 C145.033061,49.9548494 145.157371,49.9879126 145.264253,50.0544593 C145.333287,50.1110724 145.370527,50.1977335 145.364107,50.2868292 L145.364107,50.5216976 C145.376391,50.6373833 145.350998,50.7539451 145.291712,50.8540114 C145.210702,50.9224738 145.104904,50.9541513 144.999639,50.9414624 C144.959697,50.9414624 144.847362,50.9414624 144.667624,50.9239722 C144.487887,50.906482 144.335609,50.906482 144.213288,50.906482 L143.963652,50.906482 L143.679068,50.906482 C143.544265,50.906482 143.456893,50.931468 143.429433,50.9789414 C143.384747,51.061432 143.365627,51.1553771 143.374513,51.2487903 L143.374513,51.3362413 C143.368702,51.4110426 143.379794,51.4861935 143.406966,51.5561181 C143.450154,51.6139774 143.510404,51.6568022 143.579214,51.6785495 L143.913725,51.8109753 L144.185828,51.9209137 C144.472491,52.0350189 144.752523,52.1651511 145.024603,52.3106954 C145.174319,52.3937669 145.294662,52.5212014 145.369099,52.675491 C145.441551,52.8823378 145.473751,53.1011591 145.463961,53.3201299 L145.456472,53.3101355 Z M147.111554,54.4445 C147.1276,54.5528828 147.091607,54.6624891 147.014448,54.7402097 C146.937288,54.8179303 146.828011,54.8546508 146.719626,54.8392789 L146.405086,54.8392789 C146.290064,54.8485411 146.175388,54.8176389 146.08056,54.7518279 C145.998678,54.6716145 145.957392,54.5586641 145.968224,54.4445 L145.968224,50.3417984 C145.951681,50.2259377 146.000717,50.1104545 146.095538,50.0419663 C146.190742,49.9914737 146.297384,49.9665107 146.405086,49.9695069 L146.719626,49.9695069 C146.969262,49.9695069 147.111554,50.0944369 147.111554,50.3417984 L147.111554,54.4445 Z M150.172083,53.3526117 C150.180894,53.2438905 150.161998,53.1347094 150.117163,53.0352895 C150.079339,52.9799301 150.020867,52.9421144 149.9549,52.9303482 C149.74108,52.8895773 149.523383,52.8728162 149.305848,52.8803762 L148.953863,52.8803762 L148.953863,53.894808 C149.046228,53.894808 149.203498,53.894808 149.398213,53.894808 C149.565392,53.9001226 149.732676,53.8884022 149.897484,53.8598276 C149.983638,53.8408524 150.058924,53.7888226 150.107178,53.7149087 C150.163607,53.6011313 150.188602,53.4743172 150.179572,53.3476145 L150.172083,53.3526117 Z M149.959893,51.3537315 C149.968755,51.2415199 149.948999,51.1288937 149.902477,51.0264148 C149.882053,50.9814578 149.845533,50.9457969 149.800126,50.9264708 C149.728772,50.9114078 149.655787,50.9055301 149.582944,50.9089806 L149.420681,50.9089806 C149.238447,50.9089806 149.083673,50.9089806 148.953863,50.9089806 L148.953863,51.9708857 L149.260914,51.9708857 C149.382745,51.9742398 149.504646,51.9675543 149.625382,51.9508969 C149.723385,51.9415143 149.813427,51.8928477 149.875017,51.8159725 C149.941454,51.6688746 149.968139,51.5068955 149.952404,51.3462357 L149.959893,51.3537315 Z M151.307924,53.3526117 C151.312012,53.5641444 151.28252,53.7749854 151.220551,53.9772618 C151.165828,54.1547018 151.071013,54.3171443 150.943456,54.4519958 C150.852733,54.5502445 150.743226,54.6292625 150.621427,54.6843656 C150.488352,54.7449547 150.347007,54.7853754 150.202039,54.8042985 C150.018471,54.8300957 149.8332,54.84179 149.647849,54.8392789 L148.249891,54.8392789 C148.134035,54.8491316 148.018377,54.8182026 147.922869,54.7518279 C147.841898,54.6711593 147.801551,54.5582693 147.813029,54.4445 L147.813029,50.3417984 C147.796502,50.2265003 147.844414,50.1114067 147.937847,50.0419663 C148.033951,49.9914803 148.141395,49.966531 148.249891,49.9695069 L149.196009,49.9695069 C149.627878,49.9695069 149.914959,49.9695069 150.059747,49.9919943 C150.196672,50.0050646 150.330205,50.0422846 150.454171,50.1019327 C150.656184,50.1897644 150.818808,50.3489775 150.911004,50.5491822 C151.014591,50.7781019 151.064949,51.0275576 151.058288,51.2787735 C151.061977,51.4554057 151.0384,51.6315493 150.98839,51.8009809 C150.93646,51.9477782 150.850976,52.0803985 150.738755,52.188264 C150.928871,52.2808932 151.08136,52.4361667 151.170624,52.6280176 C151.264763,52.8575964 151.309013,53.104598 151.300435,53.3526117 L151.307924,53.3526117 Z M153.005444,54.4445 C153.02149,54.5528828 152.985497,54.6624891 152.908338,54.7402097 C152.831178,54.8179303 152.721901,54.8546508 152.613516,54.8392789 L152.298976,54.8392789 C152.183954,54.8485411 152.069278,54.8176389 151.97445,54.7518279 C151.89348,54.6711593 151.853133,54.5582693 151.86461,54.4445 L151.86461,50.3417984 C151.848067,50.2259377 151.897103,50.1104545 151.991924,50.0419663 C152.086099,49.991132 152.192032,49.9661335 152.298976,49.9695069 L152.613516,49.9695069 C152.863152,49.9695069 153.005444,50.0944369 153.005444,50.3417984 L153.005444,54.4445 L153.005444,54.4445 Z M156.522806,54.469486 C156.522806,54.719346 156.392995,54.8392789 156.133374,54.8392789 L154.076379,54.8392789 C153.961061,54.847815 153.846358,54.8160224 153.751853,54.7493293 C153.669427,54.6705076 153.627972,54.5580147 153.639518,54.4445 L153.639518,50.3417984 C153.622974,50.2259377 153.67201,50.1104545 153.766832,50.0419663 C153.861913,49.9911478 153.968643,49.9661643 154.076379,49.9695069 L154.39092,49.9695069 C154.640555,49.9695069 154.785344,50.0944369 154.785344,50.3417984 L154.785344,53.8798164 C155.284614,53.869822 155.733958,53.8648248 156.133374,53.8648248 C156.392995,53.8648248 156.522806,54.0022478 156.522806,54.2770938 L156.522806,54.469486 Z M158.142939,54.4445 C158.158985,54.5528828 158.122992,54.6624891 158.045833,54.7402097 C157.968673,54.8179303 157.859396,54.8546508 157.751011,54.8392789 L157.433974,54.8392789 C157.318953,54.8485411 157.204276,54.8176389 157.109449,54.7518279 C157.028478,54.6711593 156.988131,54.5582693 156.999609,54.4445 L156.999609,50.3417984 C156.983066,50.2259377 157.032102,50.1104545 157.126923,50.0419663 C157.221223,49.9914635 157.327066,49.9664862 157.433974,49.9695069 L157.751011,49.9695069 C158.000647,49.9695069 158.142939,50.0944369 158.142939,50.3417984 L158.142939,54.4445 L158.142939,54.4445 Z M162.389236,50.5341906 C162.389236,50.8090366 162.256929,50.9464596 161.997308,50.9464596 C161.737687,50.9464596 161.385702,50.9464596 160.998767,50.931468 L160.998767,54.4445 C161.013909,54.5531462 160.977254,54.66261 160.899755,54.7401784 C160.822257,54.8177467 160.712892,54.854435 160.604343,54.8392789 L160.289803,54.8392789 C160.174781,54.8485411 160.060105,54.8176389 159.965277,54.7518279 C159.884306,54.6711593 159.843959,54.5582693 159.855437,54.4445 L159.855437,50.931468 C159.468502,50.931468 159.133991,50.9464596 158.856896,50.9464596 C158.692136,50.9464596 158.584793,50.906482 158.534866,50.8240282 C158.484942,50.7357658 158.459919,50.6355839 158.462472,50.5341906 L158.462472,50.3417984 C158.462472,50.0919383 158.594779,49.9695069 158.856896,49.9695069 L161.997308,49.9695069 C162.246943,49.9695069 162.389236,50.0944369 162.389236,50.3417984 L162.389236,50.5341906 L162.389236,50.5341906 Z M166.812774,50.2768348 C166.811967,50.3651868 166.786924,50.451619 166.740379,50.5266948 L165.309969,52.9528357 L165.309969,54.4519958 C165.325829,54.5598849 165.29014,54.6689654 165.213591,54.7465654 C165.137042,54.8241654 165.028523,54.8612734 164.920538,54.8467747 L164.603501,54.8467747 C164.488479,54.8560369 164.373803,54.8251347 164.278975,54.7593237 C164.198005,54.6786551 164.157658,54.5657651 164.169135,54.4519958 L164.169135,53.0177993 L162.718754,50.5341906 C162.673068,50.4582583 162.645715,50.3727033 162.638871,50.2843306 C162.629426,50.189264 162.674968,50.0971284 162.7562,50.0469635 C162.831805,50.0020504 162.91792,49.9779166 163.005835,49.9770027 L163.400259,49.9770027 C163.582953,49.9614118 163.75611,50.0610172 163.834624,50.2268628 L164.750786,51.8234683 L165.694407,50.2218656 C165.73295,50.1473681 165.789611,50.0837818 165.859167,50.0369691 C165.942344,49.9915413 166.036721,49.9707425 166.131269,49.9770027 L166.450802,49.9770027 C166.548615,49.9699415 166.645327,50.0013114 166.720408,50.0644537 C166.78195,50.1208234 166.816473,50.2008422 166.8153,50.2843306 L166.812774,50.2768348 Z M165.502188,31.8671479 C166.280747,31.8671479 166.920565,32.4617029 166.993143,33.221929 L167,33.3663081 C167,34.1455677 166.40598,34.7859615 165.646437,34.8586055 L165.502188,34.8654683 C165.102785,34.8687997 164.718597,34.7123249 164.434997,34.4308159 C164.151397,34.1493069 163.991894,33.7660841 163.991894,33.3663081 C163.991894,32.966532 164.151397,32.5833092 164.434997,32.3018003 C164.683147,32.0554799 165.00831,31.9048888 165.353292,31.8733216 L165.502188,31.8671479 Z M165.502188,32.1694759 C165.184622,32.168815 164.879836,32.2946162 164.655049,32.5191372 C164.430261,32.7436582 164.303939,33.0484558 164.303939,33.3663081 C164.306511,33.9858311 164.777125,34.4944469 165.379958,34.5567312 L165.502188,34.5631376 C166.120395,34.5618458 166.628227,34.0911675 166.689291,33.4885012 L166.695448,33.3663081 C166.696108,33.0491191 166.570683,32.7446941 166.346832,32.5201729 C166.15496,32.3277262 165.904284,32.2075332 165.637012,32.1771199 L165.502188,32.1694759 Z M165.539633,32.6217252 C165.789269,32.6217252 165.836699,32.6342182 165.926568,32.7241678 C166.018196,32.8447223 166.060184,32.9958377 166.043897,33.1464313 C166.043897,33.3962913 165.93905,33.5462073 165.709385,33.5611989 L166.098816,34.0284372 C166.141254,34.0809078 166.133765,34.135877 166.066364,34.135877 L166.066364,34.123384 L165.924072,34.123384 C165.874905,34.1289006 165.826488,34.1079957 165.796758,34.0684148 L165.389852,33.5686947 L165.280013,33.5686947 L165.280013,34.0534232 C165.280013,34.1158882 165.255049,34.135877 165.202626,34.135877 L165.102772,34.135877 C165.03537,34.135877 165.012903,34.135877 165.012903,34.0534232 L165.012903,32.6966832 C165.012903,32.6242238 165.055341,32.6217252 165.102772,32.6217252 L165.539633,32.6217252 Z M165.280013,32.8341062 L165.280013,33.3338263 L165.56959,33.3338263 C165.67194,33.3338263 165.719371,33.3163361 165.746831,33.2813557 C165.774291,33.2463753 165.779283,33.2288851 165.779283,33.1164481 C165.779283,32.9490418 165.75432,32.8815796 165.701896,32.8515964 C165.562117,32.8300602 165.420789,32.8250381 165.280013,32.8341062 Z" id="logo-areas-of-impact" fill="var(--wsSecondaryColor)" fill-rule="nonzero"></path>
                <path d="M71.6078505,0 C72.0164947,0 72.408365,0.159875902 72.697082,0.444387997 C72.9497091,0.69333608 73.105212,1.01982518 73.1396901,1.36688568 L73.1469871,1.51671927 C73.1476593,1.91874829 72.9857987,2.30453845 72.697082,2.58905054 C72.4444546,2.83799863 72.1128505,2.99152212 71.7601371,3.02601319 L71.6078505,3.03343854 C70.7564074,3.03343854 70.0661762,2.35438019 70.0661762,1.51671927 C70.0661762,0.725595066 70.6818454,0.0759404417 71.4675267,0.00619833591 L71.6078505,0 Z M71.6078505,0.314835336 C71.2834073,0.314174337 70.9720213,0.440507742 70.7423667,0.66597618 C70.5127121,0.891444618 70.3836544,1.19752712 70.3836544,1.51671927 C70.3849642,2.13977291 70.8660483,2.65193003 71.4827944,2.71464846 L71.6078505,2.72109932 C72.2402255,2.71852446 72.7593963,2.24549902 72.8229684,1.63957586 L72.8295067,1.51671927 C72.8295067,0.894424834 72.3487854,0.382589165 71.7327577,0.321040543 L71.6078505,0.314835336 Z M71.6459479,0.757110278 C71.8999305,0.757110278 71.9532668,0.769603847 72.0421607,0.859557544 C72.1357805,0.980885033 72.178508,1.13292998 72.1615325,1.28433889 C72.1615325,1.53421027 72.0573997,1.68413309 71.8211959,1.70162409 L72.2174087,2.16888357 C72.2631256,2.22135656 72.2555061,2.27632826 72.1869308,2.27632826 L72.0396209,2.27632826 C71.9894403,2.28292911 71.9396444,2.26179627 71.9100898,2.22135656 L71.4935583,1.70912023 L71.381806,1.70912023 L71.381806,2.19636942 C71.381806,2.25633855 71.3564077,2.27632826 71.3030714,2.27632826 L71.1989385,2.27632826 C71.1303632,2.27632826 71.1075048,2.27632826 71.1075048,2.19636942 L71.1075048,0.832071692 C71.1075048,0.774101532 71.1351381,0.760908323 71.1708988,0.757949846 L71.6459479,0.757110278 Z M71.381806,0.98199452 L71.381806,1.48173728 L71.6764258,1.48173728 C71.7805586,1.48173728 71.8313552,1.46424628 71.8592932,1.42926429 C71.8872313,1.3942823 71.892311,1.3767913 71.892311,1.26434918 C71.892311,1.09693535 71.877072,1.02697137 71.8135764,0.999485516 C71.6707127,0.97838004 71.5259497,0.972515704 71.381806,0.98199452 Z" id="logo-registeredtm" fill="var(--wsPartnerColor)" fill-rule="nonzero"></path>
            </g>
        </g>
    </g>
</svg>
