<svg xmlns="http://www.w3.org/2000/svg" width="18" height="12" viewBox="0 0 18 12" fill="none">
  <path d="M10.3125 11.5625C10.0486 11.2986 9.91667 10.9826 9.91667 10.6146C9.91667 10.2465 10.0486 9.93056 10.3125 9.66667L12.625 7.33333H1.35417C0.993056 7.33333 0.677083 7.19792 0.40625 6.92708C0.135417 6.65625 0 6.34028 0 5.97917C0 5.61806 0.135417 5.30208 0.40625 5.03125C0.677083 4.76042 0.993056 4.625 1.35417 4.625H12.625L10.3125 2.29167C10.0486 2.02778 9.92014 1.71181 9.92708 1.34375C9.93403 0.975694 10.0694 0.659722 10.3333 0.395833C10.5972 0.131944 10.9097 0 11.2708 0C11.6319 0 11.9444 0.131944 12.2083 0.395833L16.8333 5C16.9722 5.13889 17.0799 5.29514 17.1562 5.46875C17.2326 5.64236 17.2708 5.8125 17.2708 5.97917C17.2708 6.14583 17.2361 6.3125 17.1667 6.47917C17.0972 6.64583 16.9931 6.79861 16.8542 6.9375L12.2083 11.5833C11.9444 11.8472 11.6285 11.9792 11.2604 11.9792C10.8924 11.9792 10.5764 11.8403 10.3125 11.5625Z" fill="#231F20"/>
</svg>
