<svg xmlns="http://www.w3.org/2000/svg" width="24" height="18" viewBox="0 0 24 18" fill="none">
  <path d="M14.5852 16.7207C14.3725 16.5026 14.2662 16.2399 14.2662 15.9324C14.2662 15.625 14.3725 15.3622 14.5852 15.1441L19.4783 10.1235H1.27991C0.967902 10.1235 0.707134 10.0161 0.497609 9.80135C0.288103 9.58658 0.18335 9.31927 0.18335 8.9994C0.18335 8.67954 0.288103 8.41223 0.497609 8.19746C0.707115 7.9827 0.967883 7.87531 1.27991 7.87531H19.4783L14.5852 2.85467C14.3823 2.64979 14.2788 2.39033 14.2747 2.07629C14.2705 1.76224 14.3764 1.4946 14.5922 1.27336C14.8049 1.05531 15.0601 0.946289 15.3577 0.946289C15.6553 0.946289 15.912 1.05531 16.1278 1.27336L22.8853 8.20521C23.0036 8.32651 23.0875 8.45228 23.137 8.58253C23.1865 8.71277 23.2113 8.85173 23.2113 8.9994C23.2113 9.14708 23.1869 9.28564 23.1382 9.41509C23.0894 9.54457 23.0074 9.66837 22.8922 9.78651L16.1278 16.7207C15.912 16.9419 15.6542 17.0529 15.3542 17.0537C15.0543 17.0545 14.798 16.9435 14.5852 16.7207Z" fill="white"/>
</svg>
