<svg xmlns="http://www.w3.org/2000/svg" width="25" height="17" viewBox="0 0 25 17" fill="none">
  <path d="M15.599 16.1329C15.376 15.9099 15.2645 15.6412 15.2645 15.3267C15.2645 15.0123 15.376 14.7436 15.599 14.5205L20.7289 9.38578H1.64964C1.32253 9.38578 1.04914 9.27596 0.82947 9.05631C0.609823 8.83666 0.5 8.56327 0.5 8.23614C0.5 7.90901 0.609823 7.63562 0.82947 7.41597C1.04912 7.19633 1.32251 7.0865 1.64964 7.0865H20.7289L15.599 1.95175C15.3862 1.74222 15.2777 1.47686 15.2734 1.15568C15.269 0.834495 15.38 0.560772 15.6062 0.334508C15.8293 0.111503 16.0968 0 16.4088 0C16.7208 0 16.99 0.111503 17.2162 0.334508L24.3007 7.42389C24.4248 7.54795 24.5128 7.67658 24.5647 7.80979C24.6166 7.94299 24.6425 8.08511 24.6425 8.23614C24.6425 8.38717 24.617 8.52888 24.5659 8.66128C24.5148 8.79369 24.4288 8.92031 24.308 9.04113L17.2162 16.1329C16.99 16.3592 16.7196 16.4727 16.4052 16.4735C16.0907 16.4743 15.822 16.3608 15.599 16.1329Z" fill="#231F20"/>
</svg>
