<?xml version="1.0" encoding="UTF-8"?>
<svg width="25.060241px" height="25.060241px" viewBox="0 0 25.060241 25.060241" version="1.1" xmlns="http://www.w3.org/2000/svg" xmlns:xlink="http://www.w3.org/1999/xlink">
    <title>CDAE09C1-5207-4B93-A951-CB0FB2995C8C</title>
    <g id="UI-KIt" stroke="none" stroke-width="1" fill="none" fill-rule="evenodd">
        <g id="Article-CT" transform="translate(-379.469880, -2167.469880)">
            <g id="Group-5" transform="translate(0.000000, 798.000000)">
                <g id="Quote-2" transform="translate(345.000000, 1316.000000)">
                    <g id="icon/quote" transform="translate(27.000000, 46.000000)">
                        <g id="materialicon/format_quote_black_24dp-(2)" transform="translate(7.469880, 7.469880)">
                            <polygon id="Path" points="0 0 25.060241 0 25.060241 25.060241 0 25.060241"></polygon>
                            <path d="M7.39051205,18.0722892 C7.92048193,18.0722892 8.40888554,17.7648193 8.6375,17.2877108 L10.1131024,14.2766265 C10.2585843,13.979759 10.3313253,13.6616867 10.3313253,13.333012 L10.3313253,8.53012048 C10.3313253,7.94698795 9.86370482,7.46987952 9.29216867,7.46987952 L5.13554217,7.46987952 C4.56400602,7.46987952 4.09638554,7.94698795 4.09638554,8.53012048 L4.09638554,12.7710843 C4.09638554,13.3542169 4.56400602,13.8313253 5.13554217,13.8313253 L7.21385542,13.8313253 L6.1435241,16.0154217 C5.67590361,16.9590361 6.35135542,18.0722892 7.39051205,18.0722892 Z M17.7820783,18.0722892 C18.3120482,18.0722892 18.8004518,17.7648193 19.0290663,17.2877108 L20.5046687,14.2766265 C20.6501506,13.979759 20.7228916,13.6616867 20.7228916,13.333012 L20.7228916,8.53012048 C20.7228916,7.94698795 20.2552711,7.46987952 19.6837349,7.46987952 L15.5271084,7.46987952 C14.9555723,7.46987952 14.4879518,7.94698795 14.4879518,8.53012048 L14.4879518,12.7710843 C14.4879518,13.3542169 14.9555723,13.8313253 15.5271084,13.8313253 L17.6054217,13.8313253 L16.5350904,16.0154217 C16.0674699,16.9590361 16.7429217,18.0722892 17.7820783,18.0722892 Z" id="Shape" fill="#FFFFFF" fill-rule="nonzero" transform="translate(12.409639, 12.771084) scale(-1, 1) translate(-12.409639, -12.771084) "></path>
                        </g>
                    </g>
                </g>
            </g>
        </g>
    </g>
</svg>