<svg width="19px" height="29px" viewBox="0 0 19 29" version="1.1" xmlns="http://www.w3.org/2000/svg" xmlns:xlink="http://www.w3.org/1999/xlink">
    <g id="Layout-Builder-2.0" stroke="none" stroke-width="1" fill="none" fill-rule="evenodd">
        <g id="Testimonials-Desktop" transform="translate(-1173.000000, -554.000000)" fill="#2F2F2F">
            <g id="Group-5" transform="translate(247.800000, 304.000000)">
                <g id="Group-4" transform="translate(0.000000, 176.000000)">
                    <path d="M943.50404,87.7715895 L943.440025,87.6682026 L936.284295,76.0051044 L936.159049,75.8009479 C935.515426,74.791817 934.348618,74.1818308 933.097477,74.2004127 L927.190034,74.2004127 C926.532454,74.2018559 926.000194,74.7035696 926.000195,75.3219652 C925.99653,75.5074561 926.044504,75.6906243 926.139358,75.8532957 L933.346578,87.5922982 C934.028177,88.6849911 934.039313,90.036369 933.375802,91.1388642 L927.113494,101.346692 C927.018641,101.509364 926.970667,101.692532 926.974332,101.878023 C926.974332,102.497439 927.508287,102.999575 928.166954,102.999575 L934.226084,102.999575 C935.477297,103.018428 936.644239,102.408372 937.287656,101.39904 L937.412902,101.194884 L943.438634,91.3796642 L943.549964,91.1977555 C943.855302,90.684444 944.010407,90.1041577 943.999458,89.5160812 C944.00208,88.9040296 943.832608,88.3022028 943.508215,87.7715895 L943.50404,87.7715895 Z" id="Shape"></path>
                </g>
            </g>
        </g>
    </g>
</svg>