
<svg width="47px" height="35px" viewBox="0 0 47 35" version="1.1" xmlns="http://www.w3.org/2000/svg" xmlns:xlink="http://www.w3.org/1999/xlink">
    <g id="UI-KIt" stroke="none" stroke-width="1" fill="none" fill-rule="evenodd">
        <g id="Icons-&amp;-Other-Branded-Assets" transform="translate(-150.000000, -42.000000)" fill="#000000">
            <g id="Group-15" transform="translate(150.000000, 42.000000)">
                <path d="M13.443991,22.2612683 C13.3181412,22.2740601 13.1937231,22.2980088 13.0722528,22.3328224 C12.6486509,22.4345022 12.2151514,22.4910111 11.7792506,22.501372 C11.5581107,22.504615 11.3384691,22.4651793 11.1327495,22.3852954 C10.8094989,22.239007 10.7707088,21.8303538 10.7820226,21.3056239 L13.3809571,21.3056239 C13.7526953,21.3056239 13.8270429,21.2436103 13.8270429,20.6695876 C13.8270429,19.9969793 13.7640091,19.3386818 13.4342935,18.8664249 C13.1255892,18.4371004 12.5922258,18.2176679 11.7081355,18.2176679 C10.7707088,18.2176679 10.1856253,18.4577716 9.86560724,18.9093573 C9.54558918,19.3609431 9.43891649,19.9874388 9.43891649,20.9096913 C9.43891649,21.9480205 9.58761175,22.6301693 10.0353138,23.0372325 C10.3876569,23.3552506 10.9630429,23.5285705 11.7614718,23.5285705 C12.303114,23.5280033 12.8437557,23.4827926 13.3777246,23.3934128 C13.7009752,23.3409398 13.7607765,23.1739803 13.7607765,22.9322865 C13.7646171,22.8141803 13.7570405,22.6959822 13.738149,22.5792864 C13.6993589,22.4457188 13.604,22.2612683 13.443991,22.2612683 Z M10.7820226,20.289556 C10.7820226,19.5247224 10.9436479,19.2639475 11.7081355,19.2639475 C12.4322167,19.2639475 12.5275756,19.535853 12.5275756,20.18461 L12.5275756,20.3849614 L10.7820226,20.3849614 L10.7820226,20.289556 Z M6.97574719,18.2224382 C6.47542273,18.233929 5.98400301,18.3550669 5.53728218,18.5770284 L5.53728218,16.6291674 C5.53728218,16.4304061 5.45162078,16.1791718 5.1219052,16.1791718 L4.63702935,16.1791718 C4.32994132,16.1791718 4.16993229,16.2729871 4.16993229,16.6291674 L4.16993229,22.9704487 C4.16993229,23.221683 4.25397743,23.3886425 4.55298421,23.3886425 L5.11705644,23.3886425 C5.44030701,23.3886425 5.53243342,23.2105524 5.53243342,22.9116154 L5.53243342,20.5121687 C5.53243342,19.7616459 5.6940587,19.5040512 6.44238376,19.5040512 C7.153535,19.5040512 7.25051017,19.7711864 7.25051017,20.4088128 L7.25051017,20.605984 L7.25051017,20.605984 C7.25051017,20.7061597 7.25051017,20.8206462 7.25051017,20.9494436 L7.25051017,22.9132055 C7.25051017,23.2312236 7.3555666,23.3902326 7.63356209,23.3902326 L8.19763432,23.3902326 C8.52088489,23.3902326 8.61303476,23.2121425 8.61303476,22.9132055 L8.61303476,19.7012225 C8.61624381,19.0190736 8.28652823,18.2128977 6.97574719,18.2128977 L6.97574719,18.2224382 Z M3.07088037,19.4690692 L1.91687585,19.4690692 L1.91687585,21.5759393 C1.91687585,22.0672773 1.93950339,22.256498 1.98152596,22.3407728 C2.01535106,22.3959999 2.07777038,22.4279324 2.14315124,22.4234576 C2.44215802,22.4234576 2.77187359,22.2644485 3.01754402,22.2644485 C3.09688271,22.2599648 3.17427254,22.2896967 3.22952699,22.3458891 C3.28478142,22.4020815 3.31242132,22.4791622 3.30523703,22.5570252 L3.30523703,22.9338766 C3.30523703,23.3218587 3.19856434,23.4268047 2.85753499,23.4586065 C2.5494511,23.4922064 2.23977391,23.5097219 1.92980587,23.5110795 C0.798428895,23.5110795 0.555990972,23.1024262 0.555990972,21.8557952 L0.555990972,19.4706593 L0.256984199,19.4706593 C0.0533363432,19.4706593 0,19.3339115 0,19.166952 L0,18.7153663 C0,18.4530013 0.106672686,18.3703166 0.287693003,18.3703166 L0.554374719,18.3703166 L0.554374719,17.5212083 C0.554374719,17.165028 0.703069979,17.060082 1.01339052,17.060082 L1.49826637,17.060082 C1.61949039,17.0579066 1.7357619,17.1073484 1.81721161,17.1957062 C1.89866131,17.2840639 1.93735073,17.4027257 1.92334086,17.5212083 L1.92334086,18.3703166 L2.96905644,18.3703166 C3.2034131,18.3703166 3.33109707,18.4021184 3.33109707,18.7058257 L3.33109707,19.0715466 C3.32463206,19.4261368 3.25998195,19.4690692 3.07088037,19.4690692 Z" id="Shape" fill-rule="nonzero"></path>
                <path d="M28.0306727,31.5696587 C28.0774666,31.6026723 28.11613,31.6456003 28.1438104,31.6952758 L28.9600181,33.0563934 L29.732587,33.4936683 C29.7785886,33.5124235 29.8132346,33.5509933 29.8264969,33.5982131 C29.8397592,33.645433 29.8301569,33.6960311 29.8004696,33.735362 L29.7131919,33.8943711 C29.643693,34.0104477 29.5806592,34.0438396 29.4562077,33.9738756 L28.7111152,33.5509115 L27.0188985,33.5318304 C26.9755376,33.5339705 26.932292,33.5257886 26.8928307,33.5079791 C26.8598805,33.4861925 26.8375478,33.451977 26.8311203,33.4134345 C26.8246929,33.3748922 26.8347425,33.33545 26.8588894,33.3044475 L26.9720271,33.1136366 C27.0067662,33.0337156 27.0913021,32.9862842 27.1789075,32.99756 L28.339377,33.0198213 L27.7413635,32.0291948 C27.6882949,31.9600267 27.6882949,31.8646197 27.7413635,31.7954515 L27.8318736,31.6364425 C27.8461023,31.5989306 27.8766852,31.5696769 27.9151992,31.5567387 C27.9537132,31.5438006 27.9960954,31.5485426 28.0306727,31.5696587 Z M29.5143928,29.1272795 L31.7092642,30.1338068 C31.8401806,30.1910501 31.8256344,30.2848655 31.7609842,30.3945817 L31.6753228,30.5424601 C31.6554972,30.5866683 31.6163146,30.6196091 31.5688375,30.6319822 C31.5213602,30.6443554 31.4707402,30.6348183 31.4312687,30.6060638 L29.9152235,29.8682617 C29.9782574,29.9414059 30.0687675,30.0399915 30.1382664,30.1179059 C30.4097969,30.4359241 30.7039549,30.7539422 30.876894,30.9717846 C30.9543173,31.0426937 30.9660877,31.1591722 30.9043703,31.2436901 L30.8494177,31.3359153 C30.8077948,31.4312295 30.6991019,31.479522 30.5988985,31.4472217 C30.320903,31.4074694 29.8845147,31.3263748 29.4675215,31.2516405 C29.3624651,31.2341495 29.2347811,31.1991675 29.1442709,31.1832666 L30.5520271,32.1055192 C30.6490023,32.1707129 30.6797111,32.2406769 30.6182935,32.3440328 L30.5310158,32.4935013 C30.4663657,32.6032175 30.3904019,32.6525103 30.2643341,32.5730058 L28.2844244,31.2039378 C28.1615892,31.1212531 28.192298,31.0353882 28.2424018,30.9495233 L28.3555395,30.7555323 C28.3903281,30.67016 28.4820716,30.6213536 28.5737337,30.6394557 C28.9810294,30.6966989 29.6954131,30.8334467 30.2433228,30.9272621 C29.886131,30.5090682 29.4077201,29.9732077 29.1539684,29.6551896 C29.0954935,29.5848947 29.0954935,29.4837907 29.1539684,29.4134958 L29.2687224,29.2179147 C29.3188262,29.1336399 29.3786276,29.0589056 29.5143928,29.1272795 Z M30.6861761,27.047441 L30.8041626,27.1142248 C30.9334628,27.187369 30.9657879,27.2334816 30.8979052,27.346378 C30.8300226,27.4592745 30.7653725,27.5308285 30.6570836,27.7168691 C30.5754326,27.8448554 30.5153925,27.9850082 30.4792958,28.1318828 C30.4518195,28.3926576 30.7314312,28.5612072 31.1451919,28.7949506 C31.5589526,29.0286939 31.8789707,29.1845228 32.1149436,28.9094371 C32.1800046,28.8268209 32.2388832,28.7396669 32.2911152,28.6486622 L32.3473866,28.548283 L32.4572401,28.3288123 C32.4692909,28.3058387 32.4824795,28.2819873 32.4979955,28.2559099 C32.5755757,28.1255224 32.6192145,28.1461936 32.750131,28.2209279 L32.8681174,28.2877117 C32.9489301,28.3322342 32.9618601,28.3910676 32.8875125,28.5421262 C32.8083161,28.7011352 32.7646773,28.7917704 32.6677021,28.9539596 C32.5885721,29.0956122 32.4925334,29.227463 32.3816253,29.346712 C31.9710971,29.7696761 31.4749075,29.6345184 30.8542664,29.2815183 C29.7988533,28.6820541 29.7940046,28.2400089 30.1980678,27.5514997 C30.2950429,27.3924907 30.359693,27.3050357 30.4534357,27.1587473 C30.5471784,27.012459 30.615061,26.9997383 30.6861761,27.047441 Z M31.5670339,25.6020487 L34.1029346,26.0281929 C34.1249391,26.0297301 34.1463906,26.0356827 34.1659684,26.0456839 C34.2645599,26.0949767 34.2370836,26.1760714 34.2031423,26.2364948 L34.0900046,26.4304859 C34.0528636,26.5151531 33.9548388,26.5563838 33.8669617,26.5243012 L33.3271332,26.4257156 C33.2414718,26.5847246 33.1752055,26.6928508 33.0830791,26.8486797 C32.9909526,27.0045086 32.9214538,27.1269455 32.8422574,27.2525627 L33.1816705,27.6341844 C33.2608669,27.7200493 33.2980407,27.7804728 33.2269256,27.8997296 L33.1331829,28.0587386 C33.0620678,28.1795855 33.0184289,28.1779954 32.9715576,28.1477837 C32.9354156,28.1228975 32.9037353,28.0922674 32.8778149,28.0571485 L31.2421671,26.1665308 C31.1484414,26.0935132 31.1305555,25.9604843 31.2017608,25.8660037 L31.2874222,25.7213054 C31.3322913,25.6134935 31.4563783,25.5605694 31.5670339,25.6020487 Z M31.8644244,26.1506299 L32.5448669,26.9154635 C32.5933545,26.8327788 32.6466908,26.7357832 32.7064921,26.6340174 C32.7662935,26.5322516 32.8180136,26.451157 32.8778149,26.3493912 L31.8644244,26.1506299 Z M45.5686321,0 C45.8286785,0 46.0780504,0.10173921 46.2617794,0.282792362 C46.4148868,0.433669988 46.511934,0.629304335 46.5397825,0.838378354 L46.5480827,0.96518499 C46.5484296,1.17264227 46.4807656,1.3733045 46.3571964,1.5383166 L46.3844846,1.5623498 C46.4312045,1.60251192 46.4234178,1.64458652 46.3533381,1.64458652 L46.2646436,1.64474342 C46.1086719,1.79845524 45.909979,1.89425375 45.6975113,1.92199553 L45.5686321,1.93036998 C45.0268047,1.93036998 44.5875667,1.49824194 44.5875667,0.96518499 C44.5875667,0.470203536 44.9662974,0.0622475205 45.4542192,0.0064935053 L45.5686321,0 Z M45.5686321,0.20034976 C45.3621683,0.199929123 45.1640136,0.280323108 45.0178697,0.423803023 C44.8717259,0.567282938 44.7895983,0.762062712 44.7895983,0.96518499 C44.7904133,1.35286281 45.0831205,1.67307174 45.4630163,1.72442143 L45.5686321,1.73160866 C45.7453308,1.73088919 45.9081404,1.67244978 46.0386152,1.57447517 L45.6447536,1.2104531 L45.5305495,1.2104531 L45.5305495,1.5833871 C45.5305495,1.62928667 45.504594,1.64458652 45.4500875,1.64458652 L45.34367,1.64458652 C45.2735902,1.64458652 45.2502303,1.64458652 45.2502303,1.5833871 L45.2502303,0.539171911 C45.2502303,0.483709932 45.2943546,0.48179745 45.34367,0.48179745 L45.8004864,0.48179745 C46.0600412,0.48179745 46.1145477,0.49135986 46.2053918,0.560209213 C46.2342458,0.588215344 46.2583693,0.618359891 46.2775154,0.649984581 C46.1689184,0.414890998 45.9434286,0.243275039 45.6741231,0.207331821 L45.5686321,0.20034976 Z M45.5305495,0.653920833 L45.5305495,1.03641724 L45.831633,1.03641724 C45.9380504,1.03641724 45.9899614,1.02302986 46.0185124,0.996255116 C46.0470634,0.969480368 46.0522545,0.956092993 46.0522545,0.870031302 C46.0522545,0.741895006 46.0366812,0.688345509 45.9717926,0.667308207 C45.8257946,0.651154359 45.6778556,0.646665874 45.5305495,0.653920833 Z" id="Path-2" fill-rule="nonzero"></path>
                <path d="M41.8334718,0.00794973503 L28.4363522,0.00794973503 C27.9602629,0.00794973503 27.5036966,0.194123404 27.1672021,0.525469204 C26.8307078,0.856815004 26.6419891,1.30615841 26.6423116,1.7745411 C26.6364688,2.06755619 26.7101113,2.3568089 26.8556569,2.61251885 L33.5808849,14.0707117 C33.9003965,14.6187683 34.4935215,14.9567768 35.1357201,14.9567768 C35.7779188,14.9567768 36.3710438,14.6187683 36.6905554,14.0707117 L43.4141671,2.61251885 C43.560203,2.35693489 43.6344006,2.06769276 43.6291287,1.7745411 C43.6293913,1.30588277 43.4405112,0.856298054 43.1036672,0.524906431 C42.7668229,0.193514808 42.3098412,0.00752804772 41.8334718,0.00794973503 Z" id="Path"></path>
                <path d="M32.7743748,16.4971899 L32.7000271,16.3715728 L24.3892551,2.20068538 L24.2437924,1.95263125 C23.4962783,0.726518001 22.1411299,-0.0146270189 20.6880361,0.00795045297 L13.8270429,0.00795045297 C13.0633202,0.00970392427 12.4451447,0.619295635 12.4451467,1.37065809 C12.4408902,1.59603313 12.4966081,1.81858602 12.606772,2.01623487 L20.9773454,16.2793475 C21.7689653,17.6069903 21.7818983,19.2489403 21.0112867,20.588493 L13.738149,32.9911996 C13.6279851,33.1888485 13.5722672,33.4114014 13.5765237,33.6367764 C13.5765237,34.389379 14.196667,34.9994841 14.9616524,34.9994841 L21.9988172,34.9994841 C23.4519948,35.0223904 24.8072991,34.2811602 25.5545734,33.0548033 L25.7000362,32.8067491 L32.6984109,20.8810697 L32.8277111,20.6600471 C33.1823361,20.0363638 33.3624768,19.3313049 33.3497608,18.6167807 C33.3528061,17.8731263 33.1559782,17.1418952 32.7792235,16.4971899 L32.7743748,16.4971899 Z" id="Shape"></path>
            </g>
        </g>
    </g>
</svg>
