<svg width="44" height="44" viewBox="0 0 44 44" fill="none" xmlns="http://www.w3.org/2000/svg">
<g filter="url(#filter0_d_133_4183)">
<rect x="4" y="3" width="36" height="36" rx="10" fill="#CCCCCC"/>
</g>
<mask id="mask0_133_4183" style="mask-type:alpha" maskUnits="userSpaceOnUse" x="4" y="3" width="36" height="36">
<rect x="4" y="3" width="36" height="36" rx="10" fill="#636466"/>
</mask>
<g mask="url(#mask0_133_4183)">
<g filter="url(#filter1_d_133_4183)">
<path d="M3.6604 11.8302H10.4906C21.5363 11.8302 30.4906 20.7845 30.4906 31.8302V39H13.6604C8.13755 39 3.6604 34.5229 3.6604 29V11.8302Z" fill="white"/>
<path d="M3.6604 11.3302H3.1604V11.8302V29C3.1604 34.799 7.86141 39.5 13.6604 39.5H30.4906H30.9906V39V31.8302C30.9906 20.5084 21.8124 11.3302 10.4906 11.3302H3.6604Z" stroke="#636466"/>
</g>
</g>
<defs>
<filter id="filter0_d_133_4183" x="0" y="0" width="44" height="44" filterUnits="userSpaceOnUse" color-interpolation-filters="sRGB">
<feFlood flood-opacity="0" result="BackgroundImageFix"/>
<feColorMatrix in="SourceAlpha" type="matrix" values="0 0 0 0 0 0 0 0 0 0 0 0 0 0 0 0 0 0 127 0" result="hardAlpha"/>
<feOffset dy="1"/>
<feGaussianBlur stdDeviation="2"/>
<feColorMatrix type="matrix" values="0 0 0 0 0 0 0 0 0 0 0 0 0 0 0 0 0 0 0.1 0"/>
<feBlend mode="normal" in2="BackgroundImageFix" result="effect1_dropShadow_133_4183"/>
<feBlend mode="normal" in="SourceGraphic" in2="effect1_dropShadow_133_4183" result="shape"/>
</filter>
<filter id="filter1_d_133_4183" x="-1.3396" y="7.8302" width="36.8302" height="37.1698" filterUnits="userSpaceOnUse" color-interpolation-filters="sRGB">
<feFlood flood-opacity="0" result="BackgroundImageFix"/>
<feColorMatrix in="SourceAlpha" type="matrix" values="0 0 0 0 0 0 0 0 0 0 0 0 0 0 0 0 0 0 127 0" result="hardAlpha"/>
<feOffset dy="1"/>
<feGaussianBlur stdDeviation="2"/>
<feColorMatrix type="matrix" values="0 0 0 0 0 0 0 0 0 0 0 0 0 0 0 0 0 0 0.1 0"/>
<feBlend mode="normal" in2="BackgroundImageFix" result="effect1_dropShadow_133_4183"/>
<feBlend mode="normal" in="SourceGraphic" in2="effect1_dropShadow_133_4183" result="shape"/>
</filter>
</defs>
</svg>
